<?xml version="1.0" encoding="utf-8" standalone="no"?>
<!DOCTYPE svg PUBLIC "-//W3C//DTD SVG 1.1//EN"
  "http://www.w3.org/Graphics/SVG/1.1/DTD/svg11.dtd">
<!-- Created with matplotlib (https://matplotlib.org/) -->
<svg height="188.521875pt" version="1.1" viewBox="0 0 463.181022 188.521875" width="463.181022pt" xmlns="http://www.w3.org/2000/svg" xmlns:xlink="http://www.w3.org/1999/xlink">
 <metadata>
  <rdf:RDF xmlns:cc="http://creativecommons.org/ns#" xmlns:dc="http://purl.org/dc/elements/1.1/" xmlns:rdf="http://www.w3.org/1999/02/22-rdf-syntax-ns#">
   <cc:Work>
    <dc:type rdf:resource="http://purl.org/dc/dcmitype/StillImage"/>
    <dc:date>2021-01-23T15:31:35.936185</dc:date>
    <dc:format>image/svg+xml</dc:format>
    <dc:creator>
     <cc:Agent>
      <dc:title>Matplotlib v3.3.2, https://matplotlib.org/</dc:title>
     </cc:Agent>
    </dc:creator>
   </cc:Work>
  </rdf:RDF>
 </metadata>
 <defs>
  <style type="text/css">*{stroke-linecap:butt;stroke-linejoin:round;}</style>
 </defs>
 <g id="figure_1">
  <g id="patch_1">
   <path d="M 0 188.521875 
L 463.181022 188.521875 
L 463.181022 0 
L 0 0 
z
" style="fill:#ffffff;"/>
  </g>
  <g id="axes_1">
   <g id="matplotlib.axis_1">
    <g id="xtick_1">
     <g id="line2d_1">
      <defs>
       <path d="M 0 0 
L 0 6 
" id="m1475e48b0e" style="stroke:#262626;stroke-width:0.8;"/>
      </defs>
      <g>
       <use style="fill:#262626;stroke:#262626;stroke-width:0.8;" x="52.421365" xlink:href="#m1475e48b0e" y="135.595003"/>
      </g>
     </g>
     <g id="text_1">
      <!-- Wt -->
      <g style="fill:#262626;" transform="translate(46.702615 153.273753)scale(0.08 -0.08)">
       <defs>
        <path d="M 76.21875 0 
L 68.21875 0 
L 51.515625 59.28125 
L 34.8125 0 
L 26.8125 0 
L 7.71875 67.671875 
L 0.484375 67.671875 
L 0.484375 72.90625 
L 27.09375 72.90625 
L 27.09375 67.671875 
L 18.015625 67.671875 
L 33.203125 13.8125 
L 49.8125 72.90625 
L 57.71875 72.90625 
L 74.609375 13.1875 
L 89.890625 67.671875 
L 81.5 67.671875 
L 81.5 72.90625 
L 102.484375 72.90625 
L 102.484375 67.671875 
L 95.3125 67.671875 
z
" id="DejaVuSerif-87"/>
        <path d="M 10.796875 46.6875 
L 2.875 46.6875 
L 2.875 51.90625 
L 10.796875 51.90625 
L 10.796875 68.015625 
L 19.828125 68.015625 
L 19.828125 51.90625 
L 36.71875 51.90625 
L 36.71875 46.6875 
L 19.828125 46.6875 
L 19.828125 13.71875 
Q 19.828125 7.125 21.09375 5.265625 
Q 22.359375 3.421875 25.78125 3.421875 
Q 29.296875 3.421875 30.90625 5.484375 
Q 32.515625 7.5625 32.625 12.203125 
L 39.40625 12.203125 
Q 39.015625 5.125 35.546875 1.84375 
Q 32.078125 -1.421875 25 -1.421875 
Q 17.234375 -1.421875 14.015625 2.015625 
Q 10.796875 5.46875 10.796875 13.71875 
z
" id="DejaVuSerif-116"/>
       </defs>
       <use xlink:href="#DejaVuSerif-87"/>
       <use x="102.783203" xlink:href="#DejaVuSerif-116"/>
      </g>
      <!-- N = 9 -->
      <g style="fill:#262626;" transform="translate(40.48199 162.232003)scale(0.08 -0.08)">
       <defs>
        <path d="M 4.890625 0 
L 4.890625 5.171875 
L 14.703125 5.171875 
L 14.703125 67.671875 
L 4.890625 67.671875 
L 4.890625 72.90625 
L 23.578125 72.90625 
L 67.28125 15.375 
L 67.28125 67.671875 
L 57.515625 67.671875 
L 57.515625 72.90625 
L 83.109375 72.90625 
L 83.109375 67.671875 
L 73.296875 67.671875 
L 73.296875 -1.421875 
L 67.390625 -1.421875 
L 20.703125 60.015625 
L 20.703125 5.171875 
L 30.515625 5.171875 
L 30.515625 0 
z
" id="DejaVuSerif-78"/>
        <path id="DejaVuSerif-32"/>
        <path d="M 10.59375 45.21875 
L 73.1875 45.21875 
L 73.1875 37.40625 
L 10.59375 37.40625 
z
M 10.59375 25.296875 
L 73.1875 25.296875 
L 73.1875 17.484375 
L 10.59375 17.484375 
z
" id="DejaVuSerif-61"/>
        <path d="M 46.78125 32.671875 
Q 43.5 29 39.25 27.1875 
Q 35.015625 25.390625 29.6875 25.390625 
Q 18.84375 25.390625 12.5625 31.9375 
Q 6.296875 38.484375 6.296875 49.8125 
Q 6.296875 60.890625 13.109375 67.546875 
Q 19.921875 74.21875 31.296875 74.21875 
Q 43.65625 74.21875 50.265625 65.015625 
Q 56.890625 55.8125 56.890625 38.71875 
Q 56.890625 19.578125 49.015625 9.078125 
Q 41.15625 -1.421875 26.90625 -1.421875 
Q 23.046875 -1.421875 18.796875 -0.6875 
Q 14.546875 0.046875 10.109375 1.515625 
L 10.109375 13.625 
L 15.578125 13.625 
Q 16.21875 8.6875 19.390625 6.046875 
Q 22.5625 3.421875 27.875 3.421875 
Q 37.359375 3.421875 41.984375 10.5625 
Q 46.625 17.71875 46.78125 32.671875 
z
M 30.90625 69.390625 
Q 23.96875 69.390625 20.28125 64.328125 
Q 16.609375 59.28125 16.609375 49.8125 
Q 16.609375 40.328125 20.28125 35.25 
Q 23.96875 30.171875 30.90625 30.171875 
Q 37.84375 30.171875 41.53125 35.078125 
Q 45.21875 39.984375 45.21875 49.21875 
Q 45.21875 58.9375 41.5 64.15625 
Q 37.796875 69.390625 30.90625 69.390625 
z
" id="DejaVuSerif-57"/>
       </defs>
       <use xlink:href="#DejaVuSerif-78"/>
       <use x="87.5" xlink:href="#DejaVuSerif-32"/>
       <use x="119.287109" xlink:href="#DejaVuSerif-61"/>
       <use x="203.076172" xlink:href="#DejaVuSerif-32"/>
       <use x="234.863281" xlink:href="#DejaVuSerif-57"/>
      </g>
     </g>
    </g>
    <g id="xtick_2">
     <g id="line2d_2">
      <g>
       <use style="fill:#262626;stroke:#262626;stroke-width:0.8;" x="81.843469" xlink:href="#m1475e48b0e" y="135.595003"/>
      </g>
     </g>
     <g id="text_2">
      <!-- Tg -->
      <g style="fill:#262626;" transform="translate(76.614719 153.160003)scale(0.08 -0.08)">
       <defs>
        <path d="M 19.09375 0 
L 19.09375 5.171875 
L 28.421875 5.171875 
L 28.421875 67.09375 
L 6.984375 67.09375 
L 6.984375 55.71875 
L 0.984375 55.71875 
L 0.984375 72.90625 
L 65.71875 72.90625 
L 65.71875 55.71875 
L 59.71875 55.71875 
L 59.71875 67.09375 
L 38.28125 67.09375 
L 38.28125 5.171875 
L 47.609375 5.171875 
L 47.609375 0 
z
" id="DejaVuSerif-84"/>
        <path d="M 52.484375 46.6875 
L 52.484375 1.125 
Q 52.484375 -10.0625 46.328125 -16.140625 
Q 40.1875 -22.21875 28.8125 -22.21875 
Q 23.6875 -22.21875 19 -21.28125 
Q 14.3125 -20.359375 10.015625 -18.5 
L 10.015625 -7.625 
L 14.703125 -7.625 
Q 15.578125 -12.703125 18.84375 -15.046875 
Q 22.125 -17.390625 28.21875 -17.390625 
Q 36.140625 -17.390625 39.8125 -12.921875 
Q 43.5 -8.453125 43.5 1.125 
L 43.5 8.109375 
Q 40.875 3.21875 36.796875 0.890625 
Q 32.71875 -1.421875 26.703125 -1.421875 
Q 17.140625 -1.421875 11.0625 6.171875 
Q 4.984375 13.765625 4.984375 25.984375 
Q 4.984375 38.1875 11.03125 45.75 
Q 17.09375 53.328125 26.703125 53.328125 
Q 32.71875 53.328125 36.796875 51 
Q 40.875 48.6875 43.5 43.796875 
L 43.5 51.90625 
L 61.078125 51.90625 
L 61.078125 46.6875 
z
M 43.5 28.515625 
Q 43.5 37.84375 39.90625 42.765625 
Q 36.328125 47.703125 29.5 47.703125 
Q 22.5625 47.703125 19.015625 42.234375 
Q 15.484375 36.765625 15.484375 25.984375 
Q 15.484375 15.234375 19.015625 9.71875 
Q 22.5625 4.203125 29.5 4.203125 
Q 36.328125 4.203125 39.90625 9.109375 
Q 43.5 14.015625 43.5 23.390625 
z
" id="DejaVuSerif-103"/>
       </defs>
       <use xlink:href="#DejaVuSerif-84"/>
       <use x="66.699219" xlink:href="#DejaVuSerif-103"/>
      </g>
      <!-- N = 6 -->
      <g style="fill:#262626;" transform="translate(69.904094 162.232003)scale(0.08 -0.08)">
       <defs>
        <path d="M 32.71875 3.421875 
Q 39.59375 3.421875 43.296875 8.46875 
Q 47.015625 13.53125 47.015625 23 
Q 47.015625 32.46875 43.296875 37.515625 
Q 39.59375 42.578125 32.71875 42.578125 
Q 25.734375 42.578125 22.0625 37.6875 
Q 18.40625 32.8125 18.40625 23.578125 
Q 18.40625 13.875 22.109375 8.640625 
Q 25.828125 3.421875 32.71875 3.421875 
z
M 16.796875 40.140625 
Q 20.125 43.796875 24.3125 45.59375 
Q 28.515625 47.40625 33.796875 47.40625 
Q 44.671875 47.40625 51 40.859375 
Q 57.328125 34.328125 57.328125 23 
Q 57.328125 11.921875 50.515625 5.25 
Q 43.703125 -1.421875 32.328125 -1.421875 
Q 19.96875 -1.421875 13.328125 7.78125 
Q 6.6875 17 6.6875 34.078125 
Q 6.6875 53.21875 14.546875 63.71875 
Q 22.40625 74.21875 36.71875 74.21875 
Q 40.578125 74.21875 44.828125 73.484375 
Q 49.078125 72.75 53.515625 71.296875 
L 53.515625 59.28125 
L 48 59.28125 
Q 47.40625 64.203125 44.234375 66.796875 
Q 41.0625 69.390625 35.6875 69.390625 
Q 26.21875 69.390625 21.578125 62.203125 
Q 16.9375 55.03125 16.796875 40.140625 
z
" id="DejaVuSerif-54"/>
       </defs>
       <use xlink:href="#DejaVuSerif-78"/>
       <use x="87.5" xlink:href="#DejaVuSerif-32"/>
       <use x="119.287109" xlink:href="#DejaVuSerif-61"/>
       <use x="203.076172" xlink:href="#DejaVuSerif-32"/>
       <use x="234.863281" xlink:href="#DejaVuSerif-54"/>
      </g>
     </g>
    </g>
   </g>
   <g id="matplotlib.axis_2">
    <g id="ytick_1">
     <g id="line2d_3">
      <defs>
       <path d="M 0 0 
L -6 0 
" id="m09201d7ee6" style="stroke:#262626;stroke-width:0.8;"/>
      </defs>
      <g>
       <use style="fill:#262626;stroke:#262626;stroke-width:0.8;" x="37.710313" xlink:href="#m09201d7ee6" y="135.402001"/>
      </g>
     </g>
     <g id="text_3">
      <!-- 0 -->
      <g style="fill:#262626;" transform="translate(21.020313 138.441376)scale(0.08 -0.08)">
       <defs>
        <path d="M 31.78125 3.421875 
Q 39.265625 3.421875 42.96875 11.625 
Q 46.6875 19.828125 46.6875 36.375 
Q 46.6875 52.984375 42.96875 61.1875 
Q 39.265625 69.390625 31.78125 69.390625 
Q 24.3125 69.390625 20.59375 61.1875 
Q 16.890625 52.984375 16.890625 36.375 
Q 16.890625 19.828125 20.59375 11.625 
Q 24.3125 3.421875 31.78125 3.421875 
z
M 31.78125 -1.421875 
Q 19.921875 -1.421875 13.25 8.53125 
Q 6.59375 18.5 6.59375 36.375 
Q 6.59375 54.296875 13.25 64.25 
Q 19.921875 74.21875 31.78125 74.21875 
Q 43.703125 74.21875 50.34375 64.25 
Q 56.984375 54.296875 56.984375 36.375 
Q 56.984375 18.5 50.34375 8.53125 
Q 43.703125 -1.421875 31.78125 -1.421875 
z
" id="DejaVuSerif-48"/>
       </defs>
       <use xlink:href="#DejaVuSerif-48"/>
      </g>
     </g>
    </g>
    <g id="ytick_2">
     <g id="line2d_4">
      <g>
       <use style="fill:#262626;stroke:#262626;stroke-width:0.8;" x="37.710313" xlink:href="#m09201d7ee6" y="114.213683"/>
      </g>
     </g>
     <g id="text_4">
      <!-- 2 -->
      <g style="fill:#262626;" transform="translate(21.020313 117.253058)scale(0.08 -0.08)">
       <defs>
        <path d="M 12.796875 55.515625 
L 7.328125 55.515625 
L 7.328125 68.5 
Q 12.546875 71.296875 17.84375 72.75 
Q 23.140625 74.21875 28.21875 74.21875 
Q 39.59375 74.21875 46.1875 68.703125 
Q 52.78125 63.1875 52.78125 53.71875 
Q 52.78125 43.015625 37.84375 28.125 
Q 36.671875 27 36.078125 26.421875 
L 17.671875 8.015625 
L 48.09375 8.015625 
L 48.09375 17 
L 53.8125 17 
L 53.8125 0 
L 6.78125 0 
L 6.78125 5.328125 
L 28.90625 27.390625 
Q 36.234375 34.71875 39.359375 40.84375 
Q 42.484375 46.96875 42.484375 53.71875 
Q 42.484375 61.078125 38.640625 65.234375 
Q 34.8125 69.390625 28.078125 69.390625 
Q 21.09375 69.390625 17.28125 65.921875 
Q 13.484375 62.453125 12.796875 55.515625 
z
" id="DejaVuSerif-50"/>
       </defs>
       <use xlink:href="#DejaVuSerif-50"/>
      </g>
     </g>
    </g>
    <g id="ytick_3">
     <g id="line2d_5">
      <g>
       <use style="fill:#262626;stroke:#262626;stroke-width:0.8;" x="37.710313" xlink:href="#m09201d7ee6" y="93.025365"/>
      </g>
     </g>
     <g id="text_5">
      <!-- 4 -->
      <g style="fill:#262626;" transform="translate(21.020313 96.06474)scale(0.08 -0.08)">
       <defs>
        <path d="M 34.90625 24.703125 
L 34.90625 63.484375 
L 10.015625 24.703125 
z
M 56.390625 0 
L 23.1875 0 
L 23.1875 5.171875 
L 34.90625 5.171875 
L 34.90625 19.484375 
L 3.078125 19.484375 
L 3.078125 24.8125 
L 35.015625 74.21875 
L 44.671875 74.21875 
L 44.671875 24.703125 
L 58.59375 24.703125 
L 58.59375 19.484375 
L 44.671875 19.484375 
L 44.671875 5.171875 
L 56.390625 5.171875 
z
" id="DejaVuSerif-52"/>
       </defs>
       <use xlink:href="#DejaVuSerif-52"/>
      </g>
     </g>
    </g>
    <g id="ytick_4">
     <g id="line2d_6">
      <g>
       <use style="fill:#262626;stroke:#262626;stroke-width:0.8;" x="37.710313" xlink:href="#m09201d7ee6" y="71.837046"/>
      </g>
     </g>
     <g id="text_6">
      <!-- 6 -->
      <g style="fill:#262626;" transform="translate(21.020313 74.876421)scale(0.08 -0.08)">
       <use xlink:href="#DejaVuSerif-54"/>
      </g>
     </g>
    </g>
    <g id="text_7">
     <!-- Latency to Cue Area (log seconds) -->
     <g style="fill:#262626;" transform="translate(14.798438 181.321875)rotate(-90)scale(0.1 -0.1)">
      <defs>
       <path d="M 5.515625 0 
L 5.515625 5.171875 
L 14.796875 5.171875 
L 14.796875 67.671875 
L 5.515625 67.671875 
L 5.515625 72.90625 
L 33.984375 72.90625 
L 33.984375 67.671875 
L 24.703125 67.671875 
L 24.703125 6 
L 58.015625 6 
L 58.015625 18.21875 
L 64.015625 18.21875 
L 64.015625 0 
z
" id="DejaVuSerif-76"/>
       <path d="M 39.796875 16.3125 
L 39.796875 27.296875 
L 28.21875 27.296875 
Q 21.53125 27.296875 18.25 24.40625 
Q 14.984375 21.53125 14.984375 15.578125 
Q 14.984375 10.15625 18.296875 6.984375 
Q 21.625 3.8125 27.296875 3.8125 
Q 32.90625 3.8125 36.34375 7.28125 
Q 39.796875 10.75 39.796875 16.3125 
z
M 48.78125 32.421875 
L 48.78125 5.171875 
L 56.78125 5.171875 
L 56.78125 0 
L 39.796875 0 
L 39.796875 5.609375 
Q 36.8125 2 32.90625 0.28125 
Q 29 -1.421875 23.78125 -1.421875 
Q 15.140625 -1.421875 10.0625 3.171875 
Q 4.984375 7.765625 4.984375 15.578125 
Q 4.984375 23.640625 10.796875 28.078125 
Q 16.609375 32.515625 27.203125 32.515625 
L 39.796875 32.515625 
L 39.796875 36.078125 
Q 39.796875 42 36.203125 45.234375 
Q 32.625 48.484375 26.125 48.484375 
Q 20.75 48.484375 17.578125 46.046875 
Q 14.40625 43.609375 13.625 38.8125 
L 8.984375 38.8125 
L 8.984375 49.3125 
Q 13.671875 51.3125 18.09375 52.3125 
Q 22.515625 53.328125 26.703125 53.328125 
Q 37.5 53.328125 43.140625 47.96875 
Q 48.78125 42.625 48.78125 32.421875 
z
" id="DejaVuSerif-97"/>
       <path d="M 54.203125 25 
L 15.484375 25 
L 15.484375 24.609375 
Q 15.484375 14.109375 19.4375 8.765625 
Q 23.390625 3.421875 31.109375 3.421875 
Q 37.015625 3.421875 40.796875 6.515625 
Q 44.578125 9.625 46.09375 15.71875 
L 53.328125 15.71875 
Q 51.171875 7.171875 45.375 2.875 
Q 39.59375 -1.421875 30.171875 -1.421875 
Q 18.796875 -1.421875 11.890625 6.078125 
Q 4.984375 13.578125 4.984375 25.984375 
Q 4.984375 38.28125 11.765625 45.796875 
Q 18.5625 53.328125 29.59375 53.328125 
Q 41.359375 53.328125 47.65625 46.0625 
Q 53.953125 38.8125 54.203125 25 
z
M 43.609375 30.171875 
Q 43.3125 39.265625 39.765625 43.875 
Q 36.234375 48.484375 29.59375 48.484375 
Q 23.390625 48.484375 19.828125 43.84375 
Q 16.265625 39.203125 15.484375 30.171875 
z
" id="DejaVuSerif-101"/>
       <path d="M 4.109375 0 
L 4.109375 5.171875 
L 12.203125 5.171875 
L 12.203125 46.6875 
L 3.609375 46.6875 
L 3.609375 51.90625 
L 21.1875 51.90625 
L 21.1875 42.671875 
Q 23.6875 47.953125 27.65625 50.640625 
Q 31.640625 53.328125 36.921875 53.328125 
Q 45.515625 53.328125 49.5625 48.390625 
Q 53.609375 43.453125 53.609375 33.015625 
L 53.609375 5.171875 
L 61.625 5.171875 
L 61.625 0 
L 36.8125 0 
L 36.8125 5.171875 
L 44.578125 5.171875 
L 44.578125 30.171875 
Q 44.578125 39.703125 42.234375 43.234375 
Q 39.890625 46.78125 33.984375 46.78125 
Q 27.734375 46.78125 24.453125 42.203125 
Q 21.1875 37.640625 21.1875 28.90625 
L 21.1875 5.171875 
L 29 5.171875 
L 29 0 
z
" id="DejaVuSerif-110"/>
       <path d="M 51.421875 15.578125 
Q 49.515625 7.28125 44.09375 2.921875 
Q 38.671875 -1.421875 30.078125 -1.421875 
Q 18.75 -1.421875 11.859375 6.078125 
Q 4.984375 13.578125 4.984375 25.984375 
Q 4.984375 38.421875 11.859375 45.875 
Q 18.75 53.328125 30.078125 53.328125 
Q 35.015625 53.328125 39.890625 52.171875 
Q 44.78125 51.03125 49.703125 48.6875 
L 49.703125 35.40625 
L 44.484375 35.40625 
Q 43.453125 42.234375 40.015625 45.359375 
Q 36.578125 48.484375 30.171875 48.484375 
Q 22.90625 48.484375 19.1875 42.84375 
Q 15.484375 37.203125 15.484375 25.984375 
Q 15.484375 14.75 19.171875 9.078125 
Q 22.859375 3.421875 30.171875 3.421875 
Q 35.984375 3.421875 39.453125 6.4375 
Q 42.921875 9.46875 44.1875 15.578125 
z
" id="DejaVuSerif-99"/>
       <path d="M 21.578125 -9.515625 
L 25 -0.875 
L 5.609375 46.6875 
L -0.296875 46.6875 
L -0.296875 51.90625 
L 23.578125 51.90625 
L 23.578125 46.6875 
L 15.28125 46.6875 
L 29.890625 10.984375 
L 44.484375 46.6875 
L 36.71875 46.6875 
L 36.71875 51.90625 
L 56.203125 51.90625 
L 56.203125 46.6875 
L 50.390625 46.6875 
L 26.609375 -11.71875 
Q 24.171875 -17.78125 21.1875 -20 
Q 18.21875 -22.21875 12.796875 -22.21875 
Q 10.5 -22.21875 8.078125 -21.828125 
Q 5.671875 -21.4375 3.21875 -20.703125 
L 3.21875 -10.796875 
L 7.8125 -10.796875 
Q 8.109375 -14.109375 9.5 -15.546875 
Q 10.890625 -17 13.8125 -17 
Q 16.5 -17 18.140625 -15.5 
Q 19.78125 -14.015625 21.578125 -9.515625 
z
" id="DejaVuSerif-121"/>
       <path d="M 30.078125 3.421875 
Q 37.3125 3.421875 40.984375 9.125 
Q 44.671875 14.84375 44.671875 25.984375 
Q 44.671875 37.109375 40.984375 42.796875 
Q 37.3125 48.484375 30.078125 48.484375 
Q 22.859375 48.484375 19.171875 42.796875 
Q 15.484375 37.109375 15.484375 25.984375 
Q 15.484375 14.84375 19.1875 9.125 
Q 22.90625 3.421875 30.078125 3.421875 
z
M 30.078125 -1.421875 
Q 18.75 -1.421875 11.859375 6.078125 
Q 4.984375 13.578125 4.984375 25.984375 
Q 4.984375 38.375 11.84375 45.84375 
Q 18.703125 53.328125 30.078125 53.328125 
Q 41.453125 53.328125 48.3125 45.84375 
Q 55.171875 38.375 55.171875 25.984375 
Q 55.171875 13.578125 48.3125 6.078125 
Q 41.453125 -1.421875 30.078125 -1.421875 
z
" id="DejaVuSerif-111"/>
       <path d="M 70.515625 19.28125 
Q 67.28125 9.078125 59.6875 3.828125 
Q 52.09375 -1.421875 40.484375 -1.421875 
Q 33.34375 -1.421875 27.234375 1.015625 
Q 21.140625 3.46875 16.40625 8.203125 
Q 10.9375 13.671875 8.265625 20.625 
Q 5.609375 27.59375 5.609375 36.375 
Q 5.609375 53.375 15.421875 63.796875 
Q 25.25 74.21875 41.3125 74.21875 
Q 47.265625 74.21875 54 72.65625 
Q 60.75 71.09375 68.5 67.921875 
L 68.5 51.125 
L 62.984375 51.125 
Q 61.1875 60.296875 55.734375 64.640625 
Q 50.296875 69 40.484375 69 
Q 28.8125 69 22.796875 60.71875 
Q 16.796875 52.4375 16.796875 36.375 
Q 16.796875 20.359375 22.796875 12.078125 
Q 28.8125 3.8125 40.484375 3.8125 
Q 48.640625 3.8125 53.90625 7.6875 
Q 59.1875 11.578125 61.53125 19.28125 
z
" id="DejaVuSerif-67"/>
       <path d="M 35.40625 51.90625 
L 52.203125 51.90625 
L 52.203125 5.171875 
L 60.6875 5.171875 
L 60.6875 0 
L 43.21875 0 
L 43.21875 9.1875 
Q 40.71875 4 36.765625 1.28125 
Q 32.8125 -1.421875 27.59375 -1.421875 
Q 18.953125 -1.421875 14.875 3.484375 
Q 10.796875 8.40625 10.796875 18.890625 
L 10.796875 46.6875 
L 2.6875 46.6875 
L 2.6875 51.90625 
L 19.828125 51.90625 
L 19.828125 21.6875 
Q 19.828125 12.203125 22.140625 8.6875 
Q 24.46875 5.171875 30.421875 5.171875 
Q 36.671875 5.171875 39.9375 9.765625 
Q 43.21875 14.359375 43.21875 23.09375 
L 43.21875 46.6875 
L 35.40625 46.6875 
z
" id="DejaVuSerif-117"/>
       <path d="M 20.015625 26.421875 
L 46.78125 26.421875 
L 33.40625 61.078125 
z
M -0.59375 0 
L -0.59375 5.171875 
L 5.8125 5.171875 
L 31.78125 72.90625 
L 39.984375 72.90625 
L 66.015625 5.171875 
L 73.1875 5.171875 
L 73.1875 0 
L 46.6875 0 
L 46.6875 5.171875 
L 54.78125 5.171875 
L 48.6875 21.1875 
L 18.015625 21.1875 
L 11.921875 5.171875 
L 19.921875 5.171875 
L 19.921875 0 
z
" id="DejaVuSerif-65"/>
       <path d="M 47.796875 52 
L 47.796875 39.015625 
L 42.625 39.015625 
Q 42.390625 42.875 40.484375 44.78125 
Q 38.578125 46.6875 34.90625 46.6875 
Q 28.265625 46.6875 24.71875 42.09375 
Q 21.1875 37.5 21.1875 28.90625 
L 21.1875 5.171875 
L 31.59375 5.171875 
L 31.59375 0 
L 4.109375 0 
L 4.109375 5.171875 
L 12.203125 5.171875 
L 12.203125 46.78125 
L 3.609375 46.78125 
L 3.609375 51.90625 
L 21.1875 51.90625 
L 21.1875 42.671875 
Q 23.828125 48.09375 27.96875 50.703125 
Q 32.125 53.328125 38.09375 53.328125 
Q 40.28125 53.328125 42.703125 52.984375 
Q 45.125 52.640625 47.796875 52 
z
" id="DejaVuSerif-114"/>
       <path d="M 31.890625 -15.578125 
Q 20.015625 -10.25 13.953125 1.296875 
Q 7.90625 12.84375 7.90625 30.171875 
Q 7.90625 47.5625 13.953125 59.109375 
Q 20.015625 70.65625 31.890625 75.984375 
L 31.890625 71.1875 
Q 24.359375 66.015625 21.09375 56.609375 
Q 17.828125 47.21875 17.828125 30.171875 
Q 17.828125 13.1875 21.09375 3.78125 
Q 24.359375 -5.609375 31.890625 -10.796875 
z
" id="DejaVuSerif-40"/>
       <path d="M 20.515625 5.171875 
L 29 5.171875 
L 29 0 
L 2.875 0 
L 2.875 5.171875 
L 11.53125 5.171875 
L 11.53125 70.796875 
L 2.875 70.796875 
L 2.875 75.984375 
L 20.515625 75.984375 
z
" id="DejaVuSerif-108"/>
       <path d="M 5.609375 2.875 
L 5.609375 14.984375 
L 10.796875 14.984375 
Q 10.984375 9.1875 14.421875 6.296875 
Q 17.875 3.421875 24.609375 3.421875 
Q 30.671875 3.421875 33.84375 5.6875 
Q 37.015625 7.953125 37.015625 12.3125 
Q 37.015625 15.71875 34.6875 17.8125 
Q 32.375 19.921875 24.90625 22.3125 
L 18.40625 24.515625 
Q 11.71875 26.65625 8.71875 29.875 
Q 5.71875 33.109375 5.71875 38.09375 
Q 5.71875 45.21875 10.9375 49.265625 
Q 16.15625 53.328125 25.390625 53.328125 
Q 29.5 53.328125 34.03125 52.25 
Q 38.578125 51.171875 43.40625 49.125 
L 43.40625 37.796875 
L 38.234375 37.796875 
Q 38.03125 42.828125 34.703125 45.65625 
Q 31.390625 48.484375 25.6875 48.484375 
Q 20.015625 48.484375 17.109375 46.484375 
Q 14.203125 44.484375 14.203125 40.484375 
Q 14.203125 37.203125 16.40625 35.21875 
Q 18.609375 33.25 25.203125 31.203125 
L 32.328125 29 
Q 39.703125 26.703125 42.9375 23.265625 
Q 46.1875 19.828125 46.1875 14.40625 
Q 46.1875 7.03125 40.546875 2.796875 
Q 34.90625 -1.421875 25 -1.421875 
Q 19.96875 -1.421875 15.1875 -0.34375 
Q 10.40625 0.734375 5.609375 2.875 
z
" id="DejaVuSerif-115"/>
       <path d="M 52.484375 5.171875 
L 61.078125 5.171875 
L 61.078125 0 
L 43.5 0 
L 43.5 8.109375 
Q 40.875 3.21875 36.796875 0.890625 
Q 32.71875 -1.421875 26.703125 -1.421875 
Q 17.140625 -1.421875 11.0625 6.171875 
Q 4.984375 13.765625 4.984375 25.984375 
Q 4.984375 38.1875 11.03125 45.75 
Q 17.09375 53.328125 26.703125 53.328125 
Q 32.71875 53.328125 36.796875 51 
Q 40.875 48.6875 43.5 43.796875 
L 43.5 70.796875 
L 35.015625 70.796875 
L 35.015625 75.984375 
L 52.484375 75.984375 
z
M 43.5 23.390625 
L 43.5 28.515625 
Q 43.5 37.84375 39.90625 42.765625 
Q 36.328125 47.703125 29.5 47.703125 
Q 22.5625 47.703125 19.015625 42.234375 
Q 15.484375 36.765625 15.484375 25.984375 
Q 15.484375 15.234375 19.015625 9.71875 
Q 22.5625 4.203125 29.5 4.203125 
Q 36.328125 4.203125 39.90625 9.109375 
Q 43.5 14.015625 43.5 23.390625 
z
" id="DejaVuSerif-100"/>
       <path d="M 7.078125 -15.578125 
L 7.078125 -10.796875 
Q 14.59375 -5.609375 17.890625 3.78125 
Q 21.1875 13.1875 21.1875 30.171875 
Q 21.1875 47.21875 17.890625 56.609375 
Q 14.59375 66.015625 7.078125 71.1875 
L 7.078125 75.984375 
Q 19 70.65625 25.046875 59.109375 
Q 31.109375 47.5625 31.109375 30.171875 
Q 31.109375 12.84375 25.046875 1.296875 
Q 19 -10.25 7.078125 -15.578125 
z
" id="DejaVuSerif-41"/>
      </defs>
      <use xlink:href="#DejaVuSerif-76"/>
      <use x="66.40625" xlink:href="#DejaVuSerif-97"/>
      <use x="126.025391" xlink:href="#DejaVuSerif-116"/>
      <use x="166.210938" xlink:href="#DejaVuSerif-101"/>
      <use x="225.390625" xlink:href="#DejaVuSerif-110"/>
      <use x="289.794922" xlink:href="#DejaVuSerif-99"/>
      <use x="345.800781" xlink:href="#DejaVuSerif-121"/>
      <use x="402.294922" xlink:href="#DejaVuSerif-32"/>
      <use x="434.082031" xlink:href="#DejaVuSerif-116"/>
      <use x="474.267578" xlink:href="#DejaVuSerif-111"/>
      <use x="534.472656" xlink:href="#DejaVuSerif-32"/>
      <use x="566.259766" xlink:href="#DejaVuSerif-67"/>
      <use x="642.773438" xlink:href="#DejaVuSerif-117"/>
      <use x="707.177734" xlink:href="#DejaVuSerif-101"/>
      <use x="766.357422" xlink:href="#DejaVuSerif-32"/>
      <use x="798.144531" xlink:href="#DejaVuSerif-65"/>
      <use x="870.361328" xlink:href="#DejaVuSerif-114"/>
      <use x="918.164062" xlink:href="#DejaVuSerif-101"/>
      <use x="977.34375" xlink:href="#DejaVuSerif-97"/>
      <use x="1036.962891" xlink:href="#DejaVuSerif-32"/>
      <use x="1068.75" xlink:href="#DejaVuSerif-40"/>
      <use x="1107.763672" xlink:href="#DejaVuSerif-108"/>
      <use x="1139.746094" xlink:href="#DejaVuSerif-111"/>
      <use x="1199.951172" xlink:href="#DejaVuSerif-103"/>
      <use x="1263.964844" xlink:href="#DejaVuSerif-32"/>
      <use x="1295.751953" xlink:href="#DejaVuSerif-115"/>
      <use x="1347.070312" xlink:href="#DejaVuSerif-101"/>
      <use x="1406.25" xlink:href="#DejaVuSerif-99"/>
      <use x="1462.255859" xlink:href="#DejaVuSerif-111"/>
      <use x="1522.460938" xlink:href="#DejaVuSerif-110"/>
      <use x="1586.865234" xlink:href="#DejaVuSerif-100"/>
      <use x="1650.878906" xlink:href="#DejaVuSerif-115"/>
      <use x="1702.197266" xlink:href="#DejaVuSerif-41"/>
     </g>
    </g>
   </g>
   <g id="PathCollection_1">
    <defs>
     <path d="M 0 1.5 
C 0.397805 1.5 0.77937 1.341951 1.06066 1.06066 
C 1.341951 0.77937 1.5 0.397805 1.5 -0 
C 1.5 -0.397805 1.341951 -0.77937 1.06066 -1.06066 
C 0.77937 -1.341951 0.397805 -1.5 0 -1.5 
C -0.397805 -1.5 -0.77937 -1.341951 -1.06066 -1.06066 
C -1.341951 -0.77937 -1.5 -0.397805 -1.5 0 
C -1.5 0.397805 -1.341951 0.77937 -1.06066 1.06066 
C -0.77937 1.341951 -0.397805 1.5 0 1.5 
z
" id="C0_0_5e43535086"/>
    </defs>
    <g clip-path="url(#peeae01c3f3)">
     <use style="fill:#a2a3af;" x="52.421365" xlink:href="#C0_0_5e43535086" y="122.029612"/>
    </g>
    <g clip-path="url(#peeae01c3f3)">
     <use style="fill:#a2a3af;" x="52.421365" xlink:href="#C0_0_5e43535086" y="117.868155"/>
    </g>
    <g clip-path="url(#peeae01c3f3)">
     <use style="fill:#a2a3af;" x="52.421365" xlink:href="#C0_0_5e43535086" y="111.968455"/>
    </g>
    <g clip-path="url(#peeae01c3f3)">
     <use style="fill:#a2a3af;" x="49.622203" xlink:href="#C0_0_5e43535086" y="110.592538"/>
    </g>
    <g clip-path="url(#peeae01c3f3)">
     <use style="fill:#a2a3af;" x="52.421365" xlink:href="#C0_0_5e43535086" y="103.283236"/>
    </g>
    <g clip-path="url(#peeae01c3f3)">
     <use style="fill:#a2a3af;" x="49.772386" xlink:href="#C0_0_5e43535086" y="101.659877"/>
    </g>
    <g clip-path="url(#peeae01c3f3)">
     <use style="fill:#a2a3af;" x="52.421365" xlink:href="#C0_0_5e43535086" y="89.438213"/>
    </g>
    <g clip-path="url(#peeae01c3f3)">
     <use style="fill:#a2a3af;" x="52.421365" xlink:href="#C0_0_5e43535086" y="62.955605"/>
    </g>
    <g clip-path="url(#peeae01c3f3)">
     <use style="fill:#a2a3af;" x="52.421365" xlink:href="#C0_0_5e43535086" y="56.684514"/>
    </g>
   </g>
   <g id="PathCollection_2">
    <defs>
     <path d="M 0 1.5 
C 0.397805 1.5 0.77937 1.341951 1.06066 1.06066 
C 1.341951 0.77937 1.5 0.397805 1.5 -0 
C 1.5 -0.397805 1.341951 -0.77937 1.06066 -1.06066 
C 0.77937 -1.341951 0.397805 -1.5 0 -1.5 
C -0.397805 -1.5 -0.77937 -1.341951 -1.06066 -1.06066 
C -1.341951 -0.77937 -1.5 -0.397805 -1.5 0 
C -1.5 0.397805 -1.341951 0.77937 -1.06066 1.06066 
C -0.77937 1.341951 -0.397805 1.5 0 1.5 
z
" id="C1_0_a936899e3a"/>
    </defs>
    <g clip-path="url(#peeae01c3f3)">
     <use style="fill:#4e2c43;" x="81.843469" xlink:href="#C1_0_a936899e3a" y="131.837361"/>
    </g>
    <g clip-path="url(#peeae01c3f3)">
     <use style="fill:#4e2c43;" x="81.843469" xlink:href="#C1_0_a936899e3a" y="126.889645"/>
    </g>
    <g clip-path="url(#peeae01c3f3)">
     <use style="fill:#4e2c43;" x="81.843469" xlink:href="#C1_0_a936899e3a" y="115.736085"/>
    </g>
    <g clip-path="url(#peeae01c3f3)">
     <use style="fill:#4e2c43;" x="81.843469" xlink:href="#C1_0_a936899e3a" y="110.127516"/>
    </g>
    <g clip-path="url(#peeae01c3f3)">
     <use style="fill:#4e2c43;" x="81.843469" xlink:href="#C1_0_a936899e3a" y="91.075153"/>
    </g>
   </g>
   <g id="LineCollection_1">
    <path clip-path="url(#peeae01c3f3)" d="M 52.421365 103.283236 
L 96.554521 103.283236 
" style="fill:none;stroke:#262626;stroke-width:0.75;"/>
   </g>
   <g id="LineCollection_2">
    <path clip-path="url(#peeae01c3f3)" d="M 81.843469 121.312865 
L 96.554521 121.312865 
" style="fill:none;stroke:#262626;stroke-width:0.75;"/>
   </g>
   <g id="axes_2">
    <g id="matplotlib.axis_3">
     <g id="xtick_3">
      <g id="line2d_7">
       <g>
        <use style="fill:#262626;stroke:#262626;stroke-width:0.8;" x="108.323363" xlink:href="#m1475e48b0e" y="135.595003"/>
       </g>
      </g>
      <g id="text_8">
       <!-- Tg -->
       <g style="fill:#262626;" transform="translate(103.094613 153.160003)scale(0.08 -0.08)">
        <use xlink:href="#DejaVuSerif-84"/>
        <use x="66.699219" xlink:href="#DejaVuSerif-103"/>
       </g>
       <!-- minus -->
       <g style="fill:#262626;" transform="translate(96.045863 162.232003)scale(0.08 -0.08)">
        <defs>
         <path d="M 51.8125 41.796875 
Q 54.390625 47.515625 58.421875 50.421875 
Q 62.453125 53.328125 67.828125 53.328125 
Q 75.984375 53.328125 79.984375 48.265625 
Q 83.984375 43.21875 83.984375 33.015625 
L 83.984375 5.171875 
L 92.09375 5.171875 
L 92.09375 0 
L 67.1875 0 
L 67.1875 5.171875 
L 75 5.171875 
L 75 31.984375 
Q 75 39.9375 72.65625 43.3125 
Q 70.3125 46.6875 64.890625 46.6875 
Q 58.890625 46.6875 55.734375 42.140625 
Q 52.59375 37.59375 52.59375 28.90625 
L 52.59375 5.171875 
L 60.40625 5.171875 
L 60.40625 0 
L 35.796875 0 
L 35.796875 5.171875 
L 43.609375 5.171875 
L 43.609375 32.328125 
Q 43.609375 40.09375 41.265625 43.390625 
Q 38.921875 46.6875 33.5 46.6875 
Q 27.484375 46.6875 24.328125 42.140625 
Q 21.1875 37.59375 21.1875 28.90625 
L 21.1875 5.171875 
L 29 5.171875 
L 29 0 
L 4.109375 0 
L 4.109375 5.171875 
L 12.203125 5.171875 
L 12.203125 46.78125 
L 3.609375 46.78125 
L 3.609375 51.90625 
L 21.1875 51.90625 
L 21.1875 42.671875 
Q 23.6875 47.859375 27.53125 50.59375 
Q 31.390625 53.328125 36.28125 53.328125 
Q 42.328125 53.328125 46.375 50.3125 
Q 50.4375 47.3125 51.8125 41.796875 
z
" id="DejaVuSerif-109"/>
         <path d="M 9.71875 68.015625 
Q 9.71875 70.265625 11.34375 71.921875 
Q 12.984375 73.578125 15.28125 73.578125 
Q 17.53125 73.578125 19.15625 71.921875 
Q 20.796875 70.265625 20.796875 68.015625 
Q 20.796875 65.71875 19.1875 64.109375 
Q 17.578125 62.5 15.28125 62.5 
Q 12.984375 62.5 11.34375 64.109375 
Q 9.71875 65.71875 9.71875 68.015625 
z
M 21.1875 5.171875 
L 29.6875 5.171875 
L 29.6875 0 
L 3.609375 0 
L 3.609375 5.171875 
L 12.203125 5.171875 
L 12.203125 46.6875 
L 3.609375 46.6875 
L 3.609375 51.90625 
L 21.1875 51.90625 
z
" id="DejaVuSerif-105"/>
        </defs>
        <use xlink:href="#DejaVuSerif-109"/>
        <use x="94.824219" xlink:href="#DejaVuSerif-105"/>
        <use x="126.806641" xlink:href="#DejaVuSerif-110"/>
        <use x="191.210938" xlink:href="#DejaVuSerif-117"/>
        <use x="255.615234" xlink:href="#DejaVuSerif-115"/>
       </g>
       <!-- Wt -->
       <g style="fill:#262626;" transform="translate(102.604613 171.190253)scale(0.08 -0.08)">
        <use xlink:href="#DejaVuSerif-87"/>
        <use x="102.783203" xlink:href="#DejaVuSerif-116"/>
       </g>
      </g>
     </g>
    </g>
    <g id="matplotlib.axis_4">
     <g id="ytick_5">
      <g id="line2d_8">
       <defs>
        <path d="M 0 0 
L 6 0 
" id="md240944cf6" style="stroke:#262626;stroke-width:0.8;"/>
       </defs>
       <g>
        <use style="fill:#262626;stroke:#262626;stroke-width:0.8;" x="120.092204" xlink:href="#md240944cf6" y="124.471555"/>
       </g>
      </g>
      <g id="text_9">
       <!-- −2 -->
       <g style="fill:#262626;" transform="translate(131.692204 127.51093)scale(0.08 -0.08)">
        <defs>
         <path d="M 10.59375 35.296875 
L 73.1875 35.296875 
L 73.1875 27.390625 
L 10.59375 27.390625 
z
" id="DejaVuSerif-8722"/>
        </defs>
        <use xlink:href="#DejaVuSerif-8722"/>
        <use x="83.789062" xlink:href="#DejaVuSerif-50"/>
       </g>
      </g>
     </g>
     <g id="ytick_6">
      <g id="line2d_9">
       <g>
        <use style="fill:#262626;stroke:#262626;stroke-width:0.8;" x="120.092204" xlink:href="#md240944cf6" y="103.283236"/>
       </g>
      </g>
      <g id="text_10">
       <!-- 0 -->
       <g style="fill:#262626;" transform="translate(131.692204 106.322611)scale(0.08 -0.08)">
        <use xlink:href="#DejaVuSerif-48"/>
       </g>
      </g>
     </g>
     <g id="ytick_7">
      <g id="line2d_10">
       <g>
        <use style="fill:#262626;stroke:#262626;stroke-width:0.8;" x="120.092204" xlink:href="#md240944cf6" y="82.094918"/>
       </g>
      </g>
      <g id="text_11">
       <!-- 2 -->
       <g style="fill:#262626;" transform="translate(131.692204 85.134293)scale(0.08 -0.08)">
        <use xlink:href="#DejaVuSerif-50"/>
       </g>
      </g>
     </g>
     <g id="ytick_8">
      <g id="line2d_11">
       <g>
        <use style="fill:#262626;stroke:#262626;stroke-width:0.8;" x="120.092204" xlink:href="#md240944cf6" y="60.9066"/>
       </g>
      </g>
      <g id="text_12">
       <!-- 4 -->
       <g style="fill:#262626;" transform="translate(131.692204 63.945975)scale(0.08 -0.08)">
        <use xlink:href="#DejaVuSerif-52"/>
       </g>
      </g>
     </g>
     <g id="text_13">
      <!-- Median difference -->
      <g style="fill:#262626;" transform="translate(155.084392 140.720313)rotate(-90)scale(0.1 -0.1)">
       <defs>
        <path d="M 5.515625 0 
L 5.515625 5.171875 
L 14.796875 5.171875 
L 14.796875 67.671875 
L 4.984375 67.671875 
L 4.984375 72.90625 
L 26.21875 72.90625 
L 51.8125 21 
L 77.390625 72.90625 
L 97.3125 72.90625 
L 97.3125 67.671875 
L 87.59375 67.671875 
L 87.59375 5.171875 
L 96.921875 5.171875 
L 96.921875 0 
L 68.40625 0 
L 68.40625 5.171875 
L 77.6875 5.171875 
L 77.6875 61.53125 
L 52.6875 10.6875 
L 45.796875 10.6875 
L 20.796875 61.53125 
L 20.796875 5.171875 
L 30.078125 5.171875 
L 30.078125 0 
z
" id="DejaVuSerif-77"/>
        <path d="M 43.015625 63.71875 
L 38.28125 63.71875 
Q 38.234375 67.390625 36.203125 69.28125 
Q 34.1875 71.1875 30.328125 71.1875 
Q 25.296875 71.1875 23.234375 68.421875 
Q 21.1875 65.671875 21.1875 58.59375 
L 21.1875 51.90625 
L 35.6875 51.90625 
L 35.6875 46.6875 
L 21.1875 46.6875 
L 21.1875 5.171875 
L 32.71875 5.171875 
L 32.71875 0 
L 3.609375 0 
L 3.609375 5.171875 
L 12.203125 5.171875 
L 12.203125 46.6875 
L 3.609375 46.6875 
L 3.609375 51.90625 
L 12.203125 51.90625 
L 12.203125 58.40625 
Q 12.203125 67.09375 16.71875 71.53125 
Q 21.234375 75.984375 29.984375 75.984375 
Q 33.25 75.984375 36.515625 75.390625 
Q 39.796875 74.8125 43.015625 73.578125 
z
" id="DejaVuSerif-102"/>
       </defs>
       <use xlink:href="#DejaVuSerif-77"/>
       <use x="102.392578" xlink:href="#DejaVuSerif-101"/>
       <use x="161.572266" xlink:href="#DejaVuSerif-100"/>
       <use x="225.585938" xlink:href="#DejaVuSerif-105"/>
       <use x="257.568359" xlink:href="#DejaVuSerif-97"/>
       <use x="317.1875" xlink:href="#DejaVuSerif-110"/>
       <use x="381.591797" xlink:href="#DejaVuSerif-32"/>
       <use x="413.378906" xlink:href="#DejaVuSerif-100"/>
       <use x="477.392578" xlink:href="#DejaVuSerif-105"/>
       <use x="509.375" xlink:href="#DejaVuSerif-102"/>
       <use x="546.386719" xlink:href="#DejaVuSerif-102"/>
       <use x="583.398438" xlink:href="#DejaVuSerif-101"/>
       <use x="642.578125" xlink:href="#DejaVuSerif-114"/>
       <use x="690.380859" xlink:href="#DejaVuSerif-101"/>
       <use x="749.560547" xlink:href="#DejaVuSerif-110"/>
       <use x="813.964844" xlink:href="#DejaVuSerif-99"/>
       <use x="869.970703" xlink:href="#DejaVuSerif-101"/>
      </g>
     </g>
    </g>
    <g id="PolyCollection_1">
     <defs>
      <path d="M 108.419214 -15.033508 
L 108.324375 -15.033508 
L 108.324375 -16.013287 
L 108.324375 -16.993066 
L 108.324375 -17.972845 
L 108.324375 -18.952624 
L 108.324375 -19.932404 
L 108.324375 -20.912183 
L 108.324375 -21.891962 
L 108.324375 -22.871741 
L 108.324375 -23.85152 
L 108.324375 -24.831299 
L 108.324375 -25.811078 
L 108.324375 -26.790857 
L 108.324375 -27.770636 
L 108.324375 -28.750416 
L 108.324375 -29.730195 
L 108.324375 -30.709974 
L 108.324375 -31.689753 
L 108.324375 -32.669532 
L 108.324375 -33.649311 
L 108.324375 -34.62909 
L 108.324375 -35.608869 
L 108.324375 -36.588649 
L 108.324375 -37.568428 
L 108.324375 -38.548207 
L 108.324375 -39.527986 
L 108.324375 -40.507765 
L 108.324375 -41.487544 
L 108.324375 -42.467323 
L 108.324375 -43.447102 
L 108.324375 -44.426881 
L 108.324375 -45.406661 
L 108.324375 -46.38644 
L 108.324375 -47.366219 
L 108.324375 -48.345998 
L 108.324375 -49.325777 
L 108.324375 -50.305556 
L 108.324375 -51.285335 
L 108.324375 -52.265114 
L 108.324375 -53.244894 
L 108.324375 -54.224673 
L 108.324375 -55.204452 
L 108.324375 -56.184231 
L 108.324375 -57.16401 
L 108.324375 -58.143789 
L 108.324375 -59.123568 
L 108.324375 -60.103347 
L 108.324375 -61.083126 
L 108.324375 -62.062906 
L 108.324375 -63.042685 
L 108.324375 -64.022464 
L 108.324375 -65.002243 
L 108.324375 -65.982022 
L 108.324375 -66.961801 
L 108.324375 -67.94158 
L 108.324375 -68.921359 
L 108.324375 -69.901139 
L 108.324375 -70.880918 
L 108.324375 -71.860697 
L 108.324375 -72.840476 
L 108.324375 -73.820255 
L 108.324375 -74.800034 
L 108.324375 -75.779813 
L 108.324375 -76.759592 
L 108.324375 -77.739371 
L 108.324375 -78.719151 
L 108.324375 -79.69893 
L 108.324375 -80.678709 
L 108.324375 -81.658488 
L 108.324375 -82.638267 
L 108.324375 -83.618046 
L 108.324375 -84.597825 
L 108.324375 -85.577604 
L 108.324375 -86.557384 
L 108.324375 -87.537163 
L 108.324375 -88.516942 
L 108.324375 -89.496721 
L 108.324375 -90.4765 
L 108.324375 -91.456279 
L 108.324375 -92.436058 
L 108.324375 -93.415837 
L 108.324375 -94.395616 
L 108.324375 -95.375396 
L 108.324375 -96.355175 
L 108.324375 -97.334954 
L 108.324375 -98.314733 
L 108.324375 -99.294512 
L 108.324375 -100.274291 
L 108.324375 -101.25407 
L 108.324375 -102.233849 
L 108.324375 -103.213629 
L 108.324375 -104.193408 
L 108.324375 -105.173187 
L 108.324375 -106.152966 
L 108.324375 -107.132745 
L 108.324375 -108.112524 
L 108.324375 -109.092303 
L 108.324375 -110.072082 
L 108.324375 -111.051861 
L 108.324375 -112.031641 
L 108.3372 -112.031641 
L 108.3372 -112.031641 
L 108.34035 -111.051861 
L 108.346465 -110.072082 
L 108.358307 -109.092303 
L 108.376858 -108.112524 
L 108.399511 -107.132745 
L 108.420398 -106.152966 
L 108.433267 -105.173187 
L 108.435236 -104.193408 
L 108.428937 -103.213629 
L 108.422057 -102.233849 
L 108.425373 -101.25407 
L 108.450385 -100.274291 
L 108.505927 -99.294512 
L 108.592783 -98.314733 
L 108.698543 -97.334954 
L 108.798414 -96.355175 
L 108.865581 -95.375396 
L 108.886499 -94.395616 
L 108.871051 -93.415837 
L 108.851486 -92.436058 
L 108.872201 -91.456279 
L 108.975202 -90.4765 
L 109.184295 -89.496721 
L 109.492256 -88.516942 
L 109.85881 -87.537163 
L 110.224452 -86.557384 
L 110.534241 -85.577604 
L 110.758261 -84.597825 
L 110.899954 -83.618046 
L 110.99286 -82.638267 
L 111.089927 -81.658488 
L 111.249069 -80.678709 
L 111.518297 -79.69893 
L 111.920909 -78.719151 
L 112.438793 -77.739371 
L 113.000309 -76.759592 
L 113.491854 -75.779813 
L 113.803714 -74.800034 
L 113.888968 -73.820255 
L 113.79399 -72.840476 
L 113.637371 -71.860697 
L 113.551246 -70.880918 
L 113.617758 -69.901139 
L 113.82726 -68.921359 
L 114.075208 -67.94158 
L 114.207784 -66.961801 
L 114.105242 -65.982022 
L 113.757357 -65.002243 
L 113.274335 -64.022464 
L 112.817745 -63.042685 
L 112.500765 -62.062906 
L 112.331334 -61.083126 
L 112.231028 -60.103347 
L 112.100587 -59.123568 
L 111.877876 -58.143789 
L 111.555871 -57.16401 
L 111.164796 -56.184231 
L 110.743438 -55.204452 
L 110.322354 -54.224673 
L 109.925356 -53.244894 
L 109.578707 -52.265114 
L 109.3123 -51.285335 
L 109.147496 -50.305556 
L 109.081872 -49.325777 
L 109.085445 -48.345998 
L 109.112716 -47.366219 
L 109.121659 -46.38644 
L 109.087464 -45.406661 
L 109.005873 -44.426881 
L 108.888877 -43.447102 
L 108.75761 -42.467323 
L 108.635124 -41.487544 
L 108.539959 -40.507765 
L 108.481562 -39.527986 
L 108.459019 -38.548207 
L 108.463393 -37.568428 
L 108.482059 -36.588649 
L 108.50301 -35.608869 
L 108.518084 -34.62909 
L 108.524513 -33.649311 
L 108.524571 -32.669532 
L 108.52367 -31.689753 
L 108.527424 -30.709974 
L 108.538158 -29.730195 
L 108.552323 -28.750416 
L 108.561409 -27.770636 
L 108.55721 -26.790857 
L 108.538178 -25.811078 
L 108.511375 -24.831299 
L 108.487929 -23.85152 
L 108.475809 -22.871741 
L 108.475813 -21.891962 
L 108.482987 -20.912183 
L 108.490776 -19.932404 
L 108.493947 -18.952624 
L 108.489079 -17.972845 
L 108.474301 -16.993066 
L 108.449906 -16.013287 
L 108.419214 -15.033508 
z
" id="m09fb23bede"/>
     </defs>
     <g clip-path="url(#pd0b75bcf35)">
      <use style="fill:#601a4a;fill-opacity:0.8;" x="0" xlink:href="#m09fb23bede" y="188.521875"/>
     </g>
    </g>
    <g id="LineCollection_3">
     <path clip-path="url(#pd0b75bcf35)" d="M 84.785679 103.283236 
L 120.092204 103.283236 
" style="fill:none;stroke:#262626;stroke-width:0.75;"/>
    </g>
    <g id="LineCollection_4">
     <path clip-path="url(#pd0b75bcf35)" d="M 94.200753 121.312865 
L 120.092204 121.312865 
" style="fill:none;stroke:#262626;stroke-width:0.75;"/>
    </g>
    <g id="line2d_12">
     <path clip-path="url(#pd0b75bcf35)" d="M 108.323363 121.312865 
" style="fill:none;stroke:#262626;stroke-linecap:round;stroke-width:1.4;"/>
     <defs>
      <path d="M 0 2 
C 0.530406 2 1.03916 1.789267 1.414214 1.414214 
C 1.789267 1.03916 2 0.530406 2 0 
C 2 -0.530406 1.789267 -1.03916 1.414214 -1.414214 
C 1.03916 -1.789267 0.530406 -2 0 -2 
C -0.530406 -2 -1.03916 -1.789267 -1.414214 -1.414214 
C -1.789267 -1.03916 -2 -0.530406 -2 0 
C -2 0.530406 -1.789267 1.03916 -1.414214 1.414214 
C -1.03916 1.789267 -0.530406 2 0 2 
z
" id="m11ac91a035"/>
     </defs>
     <g clip-path="url(#pd0b75bcf35)">
      <use style="fill:#262626;" x="108.323363" xlink:href="#m11ac91a035" y="121.312865"/>
     </g>
    </g>
    <g id="line2d_13">
     <path clip-path="url(#pd0b75bcf35)" d="M 108.323363 100.601334 
" style="fill:none;stroke:#262626;stroke-linecap:round;stroke-width:2;"/>
    </g>
    <g id="LineCollection_5">
     <defs>
      <path d="M 101.262058 -52.926872 
L 120.092204 -52.926872 
" id="m8d5f74aea0" style="stroke:#262626;"/>
     </defs>
     <g>
      <use style="fill:#262626;stroke:#262626;" x="0" xlink:href="#m8d5f74aea0" y="188.521875"/>
     </g>
    </g>
    <g id="LineCollection_6">
     <defs>
      <path d="M 120.092204 -52.926872 
L 120.092204 -135.595003 
" id="m017a1cdf0a" style="stroke:#262626;"/>
     </defs>
     <g>
      <use style="fill:#262626;stroke:#262626;" x="0" xlink:href="#m017a1cdf0a" y="188.521875"/>
     </g>
    </g>
   </g>
   <g id="LineCollection_7">
    <defs>
     <path d="M 37.710313 -52.926872 
L 90.6701 -52.926872 
" id="m1e23cd93d3" style="stroke:#262626;"/>
    </defs>
    <g>
     <use style="fill:#262626;stroke:#262626;" x="0" xlink:href="#m1e23cd93d3" y="188.521875"/>
    </g>
   </g>
   <g id="LineCollection_8">
    <defs>
     <path d="M 37.710313 -52.926872 
L 37.710313 -135.595003 
" id="m3725baf70d" style="stroke:#262626;"/>
    </defs>
    <g>
     <use style="fill:#262626;stroke:#262626;" x="0" xlink:href="#m3725baf70d" y="188.521875"/>
    </g>
   </g>
  </g>
  <g id="axes_3">
   <g id="matplotlib.axis_5">
    <g id="xtick_4">
     <g id="line2d_14">
      <g>
       <use style="fill:#262626;stroke:#262626;stroke-width:0.8;" x="217.185149" xlink:href="#m1475e48b0e" y="135.595003"/>
      </g>
     </g>
     <g id="text_14">
      <!-- Wt -->
      <g style="fill:#262626;" transform="translate(211.466399 153.273753)scale(0.08 -0.08)">
       <use xlink:href="#DejaVuSerif-87"/>
       <use x="102.783203" xlink:href="#DejaVuSerif-116"/>
      </g>
      <!-- N = 12 -->
      <g style="fill:#262626;" transform="translate(202.700774 162.232003)scale(0.08 -0.08)">
       <defs>
        <path d="M 14.203125 0 
L 14.203125 5.171875 
L 26.90625 5.171875 
L 26.90625 65.828125 
L 12.203125 56.296875 
L 12.203125 62.703125 
L 29.984375 74.21875 
L 36.71875 74.21875 
L 36.71875 5.171875 
L 49.421875 5.171875 
L 49.421875 0 
z
" id="DejaVuSerif-49"/>
       </defs>
       <use xlink:href="#DejaVuSerif-78"/>
       <use x="87.5" xlink:href="#DejaVuSerif-32"/>
       <use x="119.287109" xlink:href="#DejaVuSerif-61"/>
       <use x="203.076172" xlink:href="#DejaVuSerif-32"/>
       <use x="234.863281" xlink:href="#DejaVuSerif-49"/>
       <use x="298.486328" xlink:href="#DejaVuSerif-50"/>
      </g>
     </g>
    </g>
    <g id="xtick_5">
     <g id="line2d_15">
      <g>
       <use style="fill:#262626;stroke:#262626;stroke-width:0.8;" x="246.607253" xlink:href="#m1475e48b0e" y="135.595003"/>
      </g>
     </g>
     <g id="text_15">
      <!-- Tg -->
      <g style="fill:#262626;" transform="translate(241.378503 153.160003)scale(0.08 -0.08)">
       <use xlink:href="#DejaVuSerif-84"/>
       <use x="66.699219" xlink:href="#DejaVuSerif-103"/>
      </g>
      <!-- N = 12 -->
      <g style="fill:#262626;" transform="translate(232.122878 162.232003)scale(0.08 -0.08)">
       <use xlink:href="#DejaVuSerif-78"/>
       <use x="87.5" xlink:href="#DejaVuSerif-32"/>
       <use x="119.287109" xlink:href="#DejaVuSerif-61"/>
       <use x="203.076172" xlink:href="#DejaVuSerif-32"/>
       <use x="234.863281" xlink:href="#DejaVuSerif-49"/>
       <use x="298.486328" xlink:href="#DejaVuSerif-50"/>
      </g>
     </g>
    </g>
   </g>
   <g id="matplotlib.axis_6">
    <g id="ytick_9">
     <g id="line2d_16">
      <g>
       <use style="fill:#262626;stroke:#262626;stroke-width:0.8;" x="202.474096" xlink:href="#m09201d7ee6" y="131.837361"/>
      </g>
     </g>
     <g id="text_16">
      <!-- 0 -->
      <g style="fill:#262626;" transform="translate(185.784096 134.876736)scale(0.08 -0.08)">
       <use xlink:href="#DejaVuSerif-48"/>
      </g>
     </g>
    </g>
    <g id="ytick_10">
     <g id="line2d_17">
      <g>
       <use style="fill:#262626;stroke:#262626;stroke-width:0.8;" x="202.474096" xlink:href="#m09201d7ee6" y="101.776222"/>
      </g>
     </g>
     <g id="text_17">
      <!-- 20 -->
      <g style="fill:#262626;" transform="translate(180.694096 104.815597)scale(0.08 -0.08)">
       <use xlink:href="#DejaVuSerif-50"/>
       <use x="63.623047" xlink:href="#DejaVuSerif-48"/>
      </g>
     </g>
    </g>
    <g id="ytick_11">
     <g id="line2d_18">
      <g>
       <use style="fill:#262626;stroke:#262626;stroke-width:0.8;" x="202.474096" xlink:href="#m09201d7ee6" y="71.715084"/>
      </g>
     </g>
     <g id="text_18">
      <!-- 40 -->
      <g style="fill:#262626;" transform="translate(180.694096 74.754459)scale(0.08 -0.08)">
       <use xlink:href="#DejaVuSerif-52"/>
       <use x="63.623047" xlink:href="#DejaVuSerif-48"/>
      </g>
     </g>
    </g>
    <g id="text_19">
     <!-- Stops in Cue Zone -->
     <g style="fill:#262626;" transform="translate(174.614409 140.728125)rotate(-90)scale(0.1 -0.1)">
      <defs>
       <path d="M 9.28125 3.515625 
L 9.28125 20.125 
L 14.890625 20.0625 
Q 15.140625 11.765625 19.703125 7.78125 
Q 24.265625 3.8125 33.59375 3.8125 
Q 42.28125 3.8125 46.84375 7.25 
Q 51.421875 10.6875 51.421875 17.28125 
Q 51.421875 22.5625 48.65625 25.390625 
Q 45.90625 28.21875 37.015625 30.90625 
L 27.390625 33.796875 
Q 16.9375 36.96875 12.671875 41.703125 
Q 8.40625 46.4375 8.40625 54.6875 
Q 8.40625 63.96875 14.984375 69.09375 
Q 21.578125 74.21875 33.5 74.21875 
Q 38.578125 74.21875 44.625 73.109375 
Q 50.6875 72.015625 57.515625 69.921875 
L 57.515625 54.390625 
L 52 54.390625 
Q 51.171875 62.109375 46.84375 65.546875 
Q 42.53125 69 33.6875 69 
Q 25.984375 69 21.953125 65.84375 
Q 17.921875 62.703125 17.921875 56.6875 
Q 17.921875 51.46875 20.9375 48.484375 
Q 23.96875 45.515625 33.796875 42.578125 
L 42.828125 39.890625 
Q 52.734375 36.921875 56.953125 32.296875 
Q 61.1875 27.6875 61.1875 19.921875 
Q 61.1875 9.328125 54.390625 3.953125 
Q 47.609375 -1.421875 34.1875 -1.421875 
Q 28.171875 -1.421875 21.9375 -0.1875 
Q 15.71875 1.03125 9.28125 3.515625 
z
" id="DejaVuSerif-83"/>
       <path d="M 20.515625 28.515625 
L 20.515625 23.390625 
Q 20.515625 14.015625 24.09375 9.109375 
Q 27.6875 4.203125 34.515625 4.203125 
Q 41.40625 4.203125 44.9375 9.71875 
Q 48.484375 15.234375 48.484375 25.984375 
Q 48.484375 36.765625 44.9375 42.234375 
Q 41.40625 47.703125 34.515625 47.703125 
Q 27.6875 47.703125 24.09375 42.765625 
Q 20.515625 37.84375 20.515625 28.515625 
z
M 11.53125 46.6875 
L 2.875 46.6875 
L 2.875 51.90625 
L 20.515625 51.90625 
L 20.515625 43.796875 
Q 23.140625 48.6875 27.21875 51 
Q 31.296875 53.328125 37.3125 53.328125 
Q 46.875 53.328125 52.921875 45.75 
Q 58.984375 38.1875 58.984375 25.984375 
Q 58.984375 13.765625 52.921875 6.171875 
Q 46.875 -1.421875 37.3125 -1.421875 
Q 31.296875 -1.421875 27.21875 0.890625 
Q 23.140625 3.21875 20.515625 8.109375 
L 20.515625 -15.578125 
L 29 -15.578125 
L 29 -20.796875 
L 2.875 -20.796875 
L 2.875 -15.578125 
L 11.53125 -15.578125 
z
" id="DejaVuSerif-112"/>
       <path d="M 4.5 0 
L 4.5 3.515625 
L 49.90625 66.890625 
L 12.203125 66.890625 
L 12.203125 56 
L 6.203125 56 
L 6.203125 72.90625 
L 63.8125 72.90625 
L 63.8125 69.390625 
L 18.40625 6 
L 59.625 6 
L 59.625 16.21875 
L 65.578125 16.21875 
L 65.578125 0 
z
" id="DejaVuSerif-90"/>
      </defs>
      <use xlink:href="#DejaVuSerif-83"/>
      <use x="68.505859" xlink:href="#DejaVuSerif-116"/>
      <use x="108.691406" xlink:href="#DejaVuSerif-111"/>
      <use x="168.896484" xlink:href="#DejaVuSerif-112"/>
      <use x="232.910156" xlink:href="#DejaVuSerif-115"/>
      <use x="284.228516" xlink:href="#DejaVuSerif-32"/>
      <use x="316.015625" xlink:href="#DejaVuSerif-105"/>
      <use x="347.998047" xlink:href="#DejaVuSerif-110"/>
      <use x="412.402344" xlink:href="#DejaVuSerif-32"/>
      <use x="444.189453" xlink:href="#DejaVuSerif-67"/>
      <use x="520.703125" xlink:href="#DejaVuSerif-117"/>
      <use x="585.107422" xlink:href="#DejaVuSerif-101"/>
      <use x="644.287109" xlink:href="#DejaVuSerif-32"/>
      <use x="676.074219" xlink:href="#DejaVuSerif-90"/>
      <use x="745.556641" xlink:href="#DejaVuSerif-111"/>
      <use x="805.761719" xlink:href="#DejaVuSerif-110"/>
      <use x="870.166016" xlink:href="#DejaVuSerif-101"/>
     </g>
    </g>
   </g>
   <g id="PathCollection_3">
    <defs>
     <path d="M 0 1.5 
C 0.397805 1.5 0.77937 1.341951 1.06066 1.06066 
C 1.341951 0.77937 1.5 0.397805 1.5 -0 
C 1.5 -0.397805 1.341951 -0.77937 1.06066 -1.06066 
C 0.77937 -1.341951 0.397805 -1.5 0 -1.5 
C -0.397805 -1.5 -0.77937 -1.341951 -1.06066 -1.06066 
C -1.341951 -0.77937 -1.5 -0.397805 -1.5 0 
C -1.5 0.397805 -1.341951 0.77937 -1.06066 1.06066 
C -0.77937 1.341951 -0.397805 1.5 0 1.5 
z
" id="C2_0_c20eca78cc"/>
    </defs>
    <g clip-path="url(#p87d2f18050)">
     <use style="fill:#a2a3af;" x="217.185149" xlink:href="#C2_0_c20eca78cc" y="131.837361"/>
    </g>
    <g clip-path="url(#p87d2f18050)">
     <use style="fill:#a2a3af;" x="214.035149" xlink:href="#C2_0_c20eca78cc" y="131.837361"/>
    </g>
    <g clip-path="url(#p87d2f18050)">
     <use style="fill:#a2a3af;" x="220.335149" xlink:href="#C2_0_c20eca78cc" y="131.837361"/>
    </g>
    <g clip-path="url(#p87d2f18050)">
     <use style="fill:#a2a3af;" x="210.885149" xlink:href="#C2_0_c20eca78cc" y="131.837361"/>
    </g>
    <g clip-path="url(#p87d2f18050)">
     <use style="fill:#a2a3af;" x="223.485149" xlink:href="#C2_0_c20eca78cc" y="131.837361"/>
    </g>
    <g clip-path="url(#p87d2f18050)">
     <use style="fill:#a2a3af;" x="208.159024" xlink:href="#C2_0_c20eca78cc" y="130.334304"/>
    </g>
    <g clip-path="url(#p87d2f18050)">
     <use style="fill:#a2a3af;" x="217.185149" xlink:href="#C2_0_c20eca78cc" y="124.322076"/>
    </g>
    <g clip-path="url(#p87d2f18050)">
     <use style="fill:#a2a3af;" x="217.185149" xlink:href="#C2_0_c20eca78cc" y="112.297621"/>
    </g>
    <g clip-path="url(#p87d2f18050)">
     <use style="fill:#a2a3af;" x="217.185149" xlink:href="#C2_0_c20eca78cc" y="101.776222"/>
    </g>
    <g clip-path="url(#p87d2f18050)">
     <use style="fill:#a2a3af;" x="217.185149" xlink:href="#C2_0_c20eca78cc" y="97.267051"/>
    </g>
    <g clip-path="url(#p87d2f18050)">
     <use style="fill:#a2a3af;" x="217.185149" xlink:href="#C2_0_c20eca78cc" y="74.721197"/>
    </g>
    <g clip-path="url(#p87d2f18050)">
     <use style="fill:#a2a3af;" x="217.185149" xlink:href="#C2_0_c20eca78cc" y="56.684514"/>
    </g>
   </g>
   <g id="PathCollection_4">
    <defs>
     <path d="M 0 1.5 
C 0.397805 1.5 0.77937 1.341951 1.06066 1.06066 
C 1.341951 0.77937 1.5 0.397805 1.5 -0 
C 1.5 -0.397805 1.341951 -0.77937 1.06066 -1.06066 
C 0.77937 -1.341951 0.397805 -1.5 0 -1.5 
C -0.397805 -1.5 -0.77937 -1.341951 -1.06066 -1.06066 
C -1.341951 -0.77937 -1.5 -0.397805 -1.5 0 
C -1.5 0.397805 -1.341951 0.77937 -1.06066 1.06066 
C -0.77937 1.341951 -0.397805 1.5 0 1.5 
z
" id="C3_0_f3c9d63913"/>
    </defs>
    <g clip-path="url(#p87d2f18050)">
     <use style="fill:#4e2c43;" x="246.607253" xlink:href="#C3_0_f3c9d63913" y="131.837361"/>
    </g>
    <g clip-path="url(#p87d2f18050)">
     <use style="fill:#4e2c43;" x="243.457253" xlink:href="#C3_0_f3c9d63913" y="131.837361"/>
    </g>
    <g clip-path="url(#p87d2f18050)">
     <use style="fill:#4e2c43;" x="249.757253" xlink:href="#C3_0_f3c9d63913" y="131.837361"/>
    </g>
    <g clip-path="url(#p87d2f18050)">
     <use style="fill:#4e2c43;" x="240.307253" xlink:href="#C3_0_f3c9d63913" y="131.837361"/>
    </g>
    <g clip-path="url(#p87d2f18050)">
     <use style="fill:#4e2c43;" x="252.907253" xlink:href="#C3_0_f3c9d63913" y="131.837361"/>
    </g>
    <g clip-path="url(#p87d2f18050)">
     <use style="fill:#4e2c43;" x="237.157253" xlink:href="#C3_0_f3c9d63913" y="131.837361"/>
    </g>
    <g clip-path="url(#p87d2f18050)">
     <use style="fill:#4e2c43;" x="246.607253" xlink:href="#C3_0_f3c9d63913" y="128.831247"/>
    </g>
    <g clip-path="url(#p87d2f18050)">
     <use style="fill:#4e2c43;" x="243.881129" xlink:href="#C3_0_f3c9d63913" y="127.32819"/>
    </g>
    <g clip-path="url(#p87d2f18050)">
     <use style="fill:#4e2c43;" x="249.333377" xlink:href="#C3_0_f3c9d63913" y="127.32819"/>
    </g>
    <g clip-path="url(#p87d2f18050)">
     <use style="fill:#4e2c43;" x="246.607253" xlink:href="#C3_0_f3c9d63913" y="119.812905"/>
    </g>
    <g clip-path="url(#p87d2f18050)">
     <use style="fill:#4e2c43;" x="246.607253" xlink:href="#C3_0_f3c9d63913" y="112.297621"/>
    </g>
    <g clip-path="url(#p87d2f18050)">
     <use style="fill:#4e2c43;" x="246.607253" xlink:href="#C3_0_f3c9d63913" y="86.745653"/>
    </g>
   </g>
   <g id="LineCollection_9">
    <path clip-path="url(#p87d2f18050)" d="M 217.185149 127.32819 
L 261.318305 127.32819 
" style="fill:none;stroke:#262626;stroke-width:0.75;"/>
   </g>
   <g id="LineCollection_10">
    <path clip-path="url(#p87d2f18050)" d="M 246.607253 130.334304 
L 261.318305 130.334304 
" style="fill:none;stroke:#262626;stroke-width:0.75;"/>
   </g>
   <g id="axes_4">
    <g id="matplotlib.axis_7">
     <g id="xtick_6">
      <g id="line2d_19">
       <g>
        <use style="fill:#262626;stroke:#262626;stroke-width:0.8;" x="273.087147" xlink:href="#m1475e48b0e" y="135.595003"/>
       </g>
      </g>
      <g id="text_20">
       <!-- Tg -->
       <g style="fill:#262626;" transform="translate(267.858397 153.160003)scale(0.08 -0.08)">
        <use xlink:href="#DejaVuSerif-84"/>
        <use x="66.699219" xlink:href="#DejaVuSerif-103"/>
       </g>
       <!-- minus -->
       <g style="fill:#262626;" transform="translate(260.809647 162.232003)scale(0.08 -0.08)">
        <use xlink:href="#DejaVuSerif-109"/>
        <use x="94.824219" xlink:href="#DejaVuSerif-105"/>
        <use x="126.806641" xlink:href="#DejaVuSerif-110"/>
        <use x="191.210938" xlink:href="#DejaVuSerif-117"/>
        <use x="255.615234" xlink:href="#DejaVuSerif-115"/>
       </g>
       <!-- Wt -->
       <g style="fill:#262626;" transform="translate(267.368397 171.190253)scale(0.08 -0.08)">
        <use xlink:href="#DejaVuSerif-87"/>
        <use x="102.783203" xlink:href="#DejaVuSerif-116"/>
       </g>
      </g>
     </g>
    </g>
    <g id="matplotlib.axis_8">
     <g id="ytick_12">
      <g id="line2d_20">
       <g>
        <use style="fill:#262626;stroke:#262626;stroke-width:0.8;" x="284.855988" xlink:href="#md240944cf6" y="127.32819"/>
       </g>
      </g>
      <g id="text_21">
       <!-- 0 -->
       <g style="fill:#262626;" transform="translate(296.455988 130.367565)scale(0.08 -0.08)">
        <use xlink:href="#DejaVuSerif-48"/>
       </g>
      </g>
     </g>
     <g id="ytick_13">
      <g id="line2d_21">
       <g>
        <use style="fill:#262626;stroke:#262626;stroke-width:0.8;" x="284.855988" xlink:href="#md240944cf6" y="97.267051"/>
       </g>
      </g>
      <g id="text_22">
       <!-- 20 -->
       <g style="fill:#262626;" transform="translate(296.455988 100.306426)scale(0.08 -0.08)">
        <use xlink:href="#DejaVuSerif-50"/>
        <use x="63.623047" xlink:href="#DejaVuSerif-48"/>
       </g>
      </g>
     </g>
     <g id="ytick_14">
      <g id="line2d_22">
       <g>
        <use style="fill:#262626;stroke:#262626;stroke-width:0.8;" x="284.855988" xlink:href="#md240944cf6" y="67.205913"/>
       </g>
      </g>
      <g id="text_23">
       <!-- 40 -->
       <g style="fill:#262626;" transform="translate(296.455988 70.245288)scale(0.08 -0.08)">
        <use xlink:href="#DejaVuSerif-52"/>
        <use x="63.623047" xlink:href="#DejaVuSerif-48"/>
       </g>
      </g>
     </g>
     <g id="text_24">
      <!-- Median difference -->
      <g style="fill:#262626;" transform="translate(318.234426 140.720313)rotate(-90)scale(0.1 -0.1)">
       <use xlink:href="#DejaVuSerif-77"/>
       <use x="102.392578" xlink:href="#DejaVuSerif-101"/>
       <use x="161.572266" xlink:href="#DejaVuSerif-100"/>
       <use x="225.585938" xlink:href="#DejaVuSerif-105"/>
       <use x="257.568359" xlink:href="#DejaVuSerif-97"/>
       <use x="317.1875" xlink:href="#DejaVuSerif-110"/>
       <use x="381.591797" xlink:href="#DejaVuSerif-32"/>
       <use x="413.378906" xlink:href="#DejaVuSerif-100"/>
       <use x="477.392578" xlink:href="#DejaVuSerif-105"/>
       <use x="509.375" xlink:href="#DejaVuSerif-102"/>
       <use x="546.386719" xlink:href="#DejaVuSerif-102"/>
       <use x="583.398438" xlink:href="#DejaVuSerif-101"/>
       <use x="642.578125" xlink:href="#DejaVuSerif-114"/>
       <use x="690.380859" xlink:href="#DejaVuSerif-101"/>
       <use x="749.560547" xlink:href="#DejaVuSerif-110"/>
       <use x="813.964844" xlink:href="#DejaVuSerif-99"/>
       <use x="869.970703" xlink:href="#DejaVuSerif-101"/>
      </g>
     </g>
    </g>
    <g id="PolyCollection_2">
     <defs>
      <path d="M 273.090829 9.449991 
L 273.087203 9.449991 
L 273.087203 8.4935 
L 273.087203 7.537009 
L 273.087203 6.580518 
L 273.087203 5.624028 
L 273.087203 4.667537 
L 273.087203 3.711046 
L 273.087203 2.754555 
L 273.087203 1.798065 
L 273.087203 0.841574 
L 273.087203 -0.114917 
L 273.087203 -1.071408 
L 273.087203 -2.027899 
L 273.087203 -2.984389 
L 273.087203 -3.94088 
L 273.087203 -4.897371 
L 273.087203 -5.853862 
L 273.087203 -6.810352 
L 273.087203 -7.766843 
L 273.087203 -8.723334 
L 273.087203 -9.679825 
L 273.087203 -10.636316 
L 273.087203 -11.592806 
L 273.087203 -12.549297 
L 273.087203 -13.505788 
L 273.087203 -14.462279 
L 273.087203 -15.418769 
L 273.087203 -16.37526 
L 273.087203 -17.331751 
L 273.087203 -18.288242 
L 273.087203 -19.244732 
L 273.087203 -20.201223 
L 273.087203 -21.157714 
L 273.087203 -22.114205 
L 273.087203 -23.070696 
L 273.087203 -24.027186 
L 273.087203 -24.983677 
L 273.087203 -25.940168 
L 273.087203 -26.896659 
L 273.087203 -27.853149 
L 273.087203 -28.80964 
L 273.087203 -29.766131 
L 273.087203 -30.722622 
L 273.087203 -31.679113 
L 273.087203 -32.635603 
L 273.087203 -33.592094 
L 273.087203 -34.548585 
L 273.087203 -35.505076 
L 273.087203 -36.461566 
L 273.087203 -37.418057 
L 273.087203 -38.374548 
L 273.087203 -39.331039 
L 273.087203 -40.28753 
L 273.087203 -41.24402 
L 273.087203 -42.200511 
L 273.087203 -43.157002 
L 273.087203 -44.113493 
L 273.087203 -45.069983 
L 273.087203 -46.026474 
L 273.087203 -46.982965 
L 273.087203 -47.939456 
L 273.087203 -48.895946 
L 273.087203 -49.852437 
L 273.087203 -50.808928 
L 273.087203 -51.765419 
L 273.087203 -52.72191 
L 273.087203 -53.6784 
L 273.087203 -54.634891 
L 273.087203 -55.591382 
L 273.087203 -56.547873 
L 273.087203 -57.504363 
L 273.087203 -58.460854 
L 273.087203 -59.417345 
L 273.087203 -60.373836 
L 273.087203 -61.330327 
L 273.087203 -62.286817 
L 273.087203 -63.243308 
L 273.087203 -64.199799 
L 273.087203 -65.15629 
L 273.087203 -66.11278 
L 273.087203 -67.069271 
L 273.087203 -68.025762 
L 273.087203 -68.982253 
L 273.087203 -69.938744 
L 273.087203 -70.895234 
L 273.087203 -71.851725 
L 273.087203 -72.808216 
L 273.087203 -73.764707 
L 273.087203 -74.721197 
L 273.087203 -75.677688 
L 273.087203 -76.634179 
L 273.087203 -77.59067 
L 273.087203 -78.54716 
L 273.087203 -79.503651 
L 273.087203 -80.460142 
L 273.087203 -81.416633 
L 273.087203 -82.373124 
L 273.087203 -83.329614 
L 273.087203 -84.286105 
L 273.087203 -85.242596 
L 273.091156 -85.242596 
L 273.091156 -85.242596 
L 273.09143 -84.286105 
L 273.091981 -83.329614 
L 273.093581 -82.373124 
L 273.096181 -81.416633 
L 273.09885 -80.460142 
L 273.100843 -79.503651 
L 273.102706 -78.54716 
L 273.106535 -77.59067 
L 273.115874 -76.634179 
L 273.135104 -75.677688 
L 273.166574 -74.721197 
L 273.207274 -73.764707 
L 273.251672 -72.808216 
L 273.300475 -71.851725 
L 273.364491 -70.895234 
L 273.464515 -69.938744 
L 273.644417 -68.982253 
L 273.984937 -68.025762 
L 274.566158 -67.069271 
L 275.383027 -66.11278 
L 276.320798 -65.15629 
L 277.243734 -64.199799 
L 278.06842 -63.243308 
L 278.701577 -62.286817 
L 278.971568 -61.330327 
L 278.74419 -60.373836 
L 278.105784 -59.417345 
L 277.328435 -58.460854 
L 276.641087 -57.504363 
L 276.106764 -56.547873 
L 275.702717 -55.591382 
L 275.416032 -54.634891 
L 275.238026 -53.6784 
L 275.131983 -52.72191 
L 275.046206 -51.765419 
L 274.95121 -50.808928 
L 274.856444 -49.852437 
L 274.78717 -48.895946 
L 274.743994 -47.939456 
L 274.696368 -46.982965 
L 274.621533 -46.026474 
L 274.537049 -45.069983 
L 274.481659 -44.113493 
L 274.462831 -43.157002 
L 274.434412 -42.200511 
L 274.342079 -41.24402 
L 274.189914 -40.28753 
L 274.044755 -39.331039 
L 273.970342 -38.374548 
L 273.967576 -37.418057 
L 273.982447 -36.461566 
L 273.965025 -35.505076 
L 273.912616 -34.548585 
L 273.8556 -33.592094 
L 273.813295 -32.635603 
L 273.773722 -31.679113 
L 273.712479 -30.722622 
L 273.621151 -29.766131 
L 273.513273 -28.80964 
L 273.408586 -27.853149 
L 273.318878 -26.896659 
L 273.24721 -25.940168 
L 273.19354 -24.983677 
L 273.157503 -24.027186 
L 273.137382 -23.070696 
L 273.129497 -22.114205 
L 273.129386 -21.157714 
L 273.132777 -20.201223 
L 273.13608 -19.244732 
L 273.137222 -18.288242 
L 273.13576 -17.331751 
L 273.131645 -16.37526 
L 273.12456 -15.418769 
L 273.115081 -14.462279 
L 273.105597 -13.505788 
L 273.09896 -12.549297 
L 273.096377 -11.592806 
L 273.097055 -10.636316 
L 273.099402 -9.679825 
L 273.102048 -8.723334 
L 273.104109 -7.766843 
L 273.105121 -6.810352 
L 273.104849 -5.853862 
L 273.103133 -4.897371 
L 273.10002 -3.94088 
L 273.09608 -2.984389 
L 273.092321 -2.027899 
L 273.089587 -1.071408 
L 273.088068 -0.114917 
L 273.087422 0.841574 
L 273.087213 1.798065 
L 273.087203 2.754555 
L 273.087203 3.711046 
L 273.087303 4.667537 
L 273.087633 5.624028 
L 273.088326 6.580518 
L 273.089367 7.537009 
L 273.090392 8.4935 
L 273.090829 9.449991 
z
" id="m8511c2016c"/>
     </defs>
     <g clip-path="url(#p1f6c05fac2)">
      <use style="fill:#601a4a;fill-opacity:0.8;" x="0" xlink:href="#m8511c2016c" y="188.521875"/>
     </g>
    </g>
    <g id="LineCollection_11">
     <path clip-path="url(#p1f6c05fac2)" d="M 249.549463 127.32819 
L 284.855988 127.32819 
" style="fill:none;stroke:#262626;stroke-width:0.75;"/>
    </g>
    <g id="LineCollection_12">
     <path clip-path="url(#p1f6c05fac2)" d="M 258.964537 130.334304 
L 284.855988 130.334304 
" style="fill:none;stroke:#262626;stroke-width:0.75;"/>
    </g>
    <g id="line2d_23">
     <path clip-path="url(#p1f6c05fac2)" d="M 273.087147 130.334304 
" style="fill:none;stroke:#262626;stroke-linecap:round;stroke-width:1.4;"/>
     <g clip-path="url(#p1f6c05fac2)">
      <use style="fill:#262626;" x="273.087147" xlink:href="#m11ac91a035" y="130.334304"/>
     </g>
    </g>
    <g id="line2d_24">
     <path clip-path="url(#p1f6c05fac2)" d="M 273.087147 158.140857 
L 273.087147 122.819019 
" style="fill:none;stroke:#262626;stroke-linecap:round;stroke-width:2;"/>
    </g>
    <g id="LineCollection_13">
     <defs>
      <path d="M 266.025842 -52.926872 
L 284.855988 -52.926872 
" id="ma33220210d" style="stroke:#262626;"/>
     </defs>
     <g>
      <use style="fill:#262626;stroke:#262626;" x="0" xlink:href="#ma33220210d" y="188.521875"/>
     </g>
    </g>
    <g id="LineCollection_14">
     <defs>
      <path d="M 284.855988 -52.926872 
L 284.855988 -135.595003 
" id="m03ac29bc15" style="stroke:#262626;"/>
     </defs>
     <g>
      <use style="fill:#262626;stroke:#262626;" x="0" xlink:href="#m03ac29bc15" y="188.521875"/>
     </g>
    </g>
   </g>
   <g id="LineCollection_15">
    <defs>
     <path d="M 202.474096 -52.926872 
L 255.433884 -52.926872 
" id="m843abe9c54" style="stroke:#262626;"/>
    </defs>
    <g>
     <use style="fill:#262626;stroke:#262626;" x="0" xlink:href="#m843abe9c54" y="188.521875"/>
    </g>
   </g>
   <g id="LineCollection_16">
    <defs>
     <path d="M 202.474096 -52.926872 
L 202.474096 -135.595003 
" id="m4ab34b7f9b" style="stroke:#262626;"/>
    </defs>
    <g>
     <use style="fill:#262626;stroke:#262626;" x="0" xlink:href="#m4ab34b7f9b" y="188.521875"/>
    </g>
   </g>
  </g>
  <g id="axes_5">
   <g id="patch_2">
    <path d="M 367.23788 135.595003 
L 449.619772 135.595003 
L 449.619772 52.926872 
L 367.23788 52.926872 
z
" style="fill:#ffffff;"/>
   </g>
   <g id="matplotlib.axis_9">
    <g id="xtick_7">
     <g id="line2d_25">
      <g>
       <use style="fill:#262626;stroke:#262626;stroke-width:0.8;" x="367.23788" xlink:href="#m1475e48b0e" y="135.595003"/>
      </g>
     </g>
     <g id="text_25">
      <!-- 0.0 -->
      <g style="fill:#262626;" transform="translate(360.87663 153.273753)scale(0.08 -0.08)">
       <defs>
        <path d="M 9.421875 5.078125 
Q 9.421875 7.8125 11.28125 9.71875 
Q 13.140625 11.625 15.921875 11.625 
Q 18.609375 11.625 20.5 9.71875 
Q 22.40625 7.8125 22.40625 5.078125 
Q 22.40625 2.390625 20.5 0.484375 
Q 18.609375 -1.421875 15.921875 -1.421875 
Q 13.140625 -1.421875 11.28125 0.453125 
Q 9.421875 2.34375 9.421875 5.078125 
z
" id="DejaVuSerif-46"/>
       </defs>
       <use xlink:href="#DejaVuSerif-48"/>
       <use x="63.623047" xlink:href="#DejaVuSerif-46"/>
       <use x="95.410156" xlink:href="#DejaVuSerif-48"/>
      </g>
     </g>
    </g>
    <g id="xtick_8">
     <g id="line2d_26">
      <g>
       <use style="fill:#262626;stroke:#262626;stroke-width:0.8;" x="408.428826" xlink:href="#m1475e48b0e" y="135.595003"/>
      </g>
     </g>
     <g id="text_26">
      <!-- 0.5 -->
      <g style="fill:#262626;" transform="translate(402.067576 153.273753)scale(0.08 -0.08)">
       <defs>
        <path d="M 50.296875 72.90625 
L 50.296875 64.890625 
L 16.890625 64.890625 
L 16.890625 44 
Q 19.4375 45.75 22.828125 46.625 
Q 26.21875 47.515625 30.421875 47.515625 
Q 42.234375 47.515625 49.0625 40.96875 
Q 55.90625 34.421875 55.90625 23.09375 
Q 55.90625 11.53125 49 5.046875 
Q 42.09375 -1.421875 29.59375 -1.421875 
Q 24.5625 -1.421875 19.28125 -0.1875 
Q 14.015625 1.03125 8.5 3.515625 
L 8.5 17.671875 
L 14.015625 17.671875 
Q 14.453125 10.75 18.421875 7.078125 
Q 22.40625 3.421875 29.59375 3.421875 
Q 37.3125 3.421875 41.453125 8.5 
Q 45.609375 13.578125 45.609375 23.09375 
Q 45.609375 32.5625 41.484375 37.609375 
Q 37.359375 42.671875 29.59375 42.671875 
Q 25.203125 42.671875 21.84375 41.109375 
Q 18.5 39.546875 15.921875 36.28125 
L 11.71875 36.28125 
L 11.71875 72.90625 
z
" id="DejaVuSerif-53"/>
       </defs>
       <use xlink:href="#DejaVuSerif-48"/>
       <use x="63.623047" xlink:href="#DejaVuSerif-46"/>
       <use x="95.410156" xlink:href="#DejaVuSerif-53"/>
      </g>
     </g>
    </g>
    <g id="xtick_9">
     <g id="line2d_27">
      <g>
       <use style="fill:#262626;stroke:#262626;stroke-width:0.8;" x="449.619772" xlink:href="#m1475e48b0e" y="135.595003"/>
      </g>
     </g>
     <g id="text_27">
      <!-- 1.0 -->
      <g style="fill:#262626;" transform="translate(443.258522 153.273753)scale(0.08 -0.08)">
       <use xlink:href="#DejaVuSerif-49"/>
       <use x="63.623047" xlink:href="#DejaVuSerif-46"/>
       <use x="95.410156" xlink:href="#DejaVuSerif-48"/>
      </g>
     </g>
    </g>
   </g>
   <g id="matplotlib.axis_10">
    <g id="ytick_15">
     <g id="line2d_28">
      <g>
       <use style="fill:#262626;stroke:#262626;stroke-width:0.8;" x="367.23788" xlink:href="#m09201d7ee6" y="135.595003"/>
      </g>
     </g>
     <g id="text_28">
      <!-- 0.0 -->
      <g style="fill:#262626;" transform="translate(342.91538 138.634378)scale(0.08 -0.08)">
       <use xlink:href="#DejaVuSerif-48"/>
       <use x="63.623047" xlink:href="#DejaVuSerif-46"/>
       <use x="95.410156" xlink:href="#DejaVuSerif-48"/>
      </g>
     </g>
    </g>
    <g id="ytick_16">
     <g id="line2d_29">
      <g>
       <use style="fill:#262626;stroke:#262626;stroke-width:0.8;" x="367.23788" xlink:href="#m09201d7ee6" y="119.061377"/>
      </g>
     </g>
     <g id="text_29">
      <!-- 0.2 -->
      <g style="fill:#262626;" transform="translate(342.91538 122.100752)scale(0.08 -0.08)">
       <use xlink:href="#DejaVuSerif-48"/>
       <use x="63.623047" xlink:href="#DejaVuSerif-46"/>
       <use x="95.410156" xlink:href="#DejaVuSerif-50"/>
      </g>
     </g>
    </g>
    <g id="ytick_17">
     <g id="line2d_30">
      <g>
       <use style="fill:#262626;stroke:#262626;stroke-width:0.8;" x="367.23788" xlink:href="#m09201d7ee6" y="102.527751"/>
      </g>
     </g>
     <g id="text_30">
      <!-- 0.4 -->
      <g style="fill:#262626;" transform="translate(342.91538 105.567126)scale(0.08 -0.08)">
       <use xlink:href="#DejaVuSerif-48"/>
       <use x="63.623047" xlink:href="#DejaVuSerif-46"/>
       <use x="95.410156" xlink:href="#DejaVuSerif-52"/>
      </g>
     </g>
    </g>
    <g id="ytick_18">
     <g id="line2d_31">
      <g>
       <use style="fill:#262626;stroke:#262626;stroke-width:0.8;" x="367.23788" xlink:href="#m09201d7ee6" y="85.994124"/>
      </g>
     </g>
     <g id="text_31">
      <!-- 0.6 -->
      <g style="fill:#262626;" transform="translate(342.91538 89.033499)scale(0.08 -0.08)">
       <use xlink:href="#DejaVuSerif-48"/>
       <use x="63.623047" xlink:href="#DejaVuSerif-46"/>
       <use x="95.410156" xlink:href="#DejaVuSerif-54"/>
      </g>
     </g>
    </g>
    <g id="ytick_19">
     <g id="line2d_32">
      <g>
       <use style="fill:#262626;stroke:#262626;stroke-width:0.8;" x="367.23788" xlink:href="#m09201d7ee6" y="69.460498"/>
      </g>
     </g>
     <g id="text_32">
      <!-- 0.8 -->
      <g style="fill:#262626;" transform="translate(342.91538 72.499873)scale(0.08 -0.08)">
       <defs>
        <path d="M 46.578125 19.921875 
Q 46.578125 27.734375 42.6875 32.046875 
Q 38.8125 36.375 31.78125 36.375 
Q 24.75 36.375 20.875 32.046875 
Q 17 27.734375 17 19.921875 
Q 17 12.0625 20.875 7.734375 
Q 24.75 3.421875 31.78125 3.421875 
Q 38.8125 3.421875 42.6875 7.734375 
Q 46.578125 12.0625 46.578125 19.921875 
z
M 44.578125 55.328125 
Q 44.578125 61.96875 41.203125 65.671875 
Q 37.84375 69.390625 31.78125 69.390625 
Q 25.78125 69.390625 22.390625 65.671875 
Q 19 61.96875 19 55.328125 
Q 19 48.640625 22.390625 44.921875 
Q 25.78125 41.21875 31.78125 41.21875 
Q 37.84375 41.21875 41.203125 44.921875 
Q 44.578125 48.640625 44.578125 55.328125 
z
M 39.3125 38.8125 
Q 47.609375 37.703125 52.25 32.6875 
Q 56.890625 27.6875 56.890625 19.921875 
Q 56.890625 9.671875 50.390625 4.125 
Q 43.890625 -1.421875 31.78125 -1.421875 
Q 19.734375 -1.421875 13.203125 4.125 
Q 6.6875 9.671875 6.6875 19.921875 
Q 6.6875 27.6875 11.328125 32.6875 
Q 15.96875 37.703125 24.3125 38.8125 
Q 16.9375 40.140625 13 44.40625 
Q 9.078125 48.6875 9.078125 55.328125 
Q 9.078125 64.109375 15.125 69.15625 
Q 21.1875 74.21875 31.78125 74.21875 
Q 42.390625 74.21875 48.4375 69.15625 
Q 54.5 64.109375 54.5 55.328125 
Q 54.5 48.6875 50.5625 44.40625 
Q 46.625 40.140625 39.3125 38.8125 
z
" id="DejaVuSerif-56"/>
       </defs>
       <use xlink:href="#DejaVuSerif-48"/>
       <use x="63.623047" xlink:href="#DejaVuSerif-46"/>
       <use x="95.410156" xlink:href="#DejaVuSerif-56"/>
      </g>
     </g>
    </g>
    <g id="ytick_20">
     <g id="line2d_33">
      <g>
       <use style="fill:#262626;stroke:#262626;stroke-width:0.8;" x="367.23788" xlink:href="#m09201d7ee6" y="52.926872"/>
      </g>
     </g>
     <g id="text_33">
      <!-- 1.0 -->
      <g style="fill:#262626;" transform="translate(342.91538 55.966247)scale(0.08 -0.08)">
       <use xlink:href="#DejaVuSerif-49"/>
       <use x="63.623047" xlink:href="#DejaVuSerif-46"/>
       <use x="95.410156" xlink:href="#DejaVuSerif-48"/>
      </g>
     </g>
    </g>
   </g>
   <g id="patch_3">
    <path d="M 367.23788 135.595003 
L 367.23788 52.926872 
" style="fill:none;stroke:#262626;stroke-linecap:square;stroke-linejoin:miter;stroke-width:1.25;"/>
   </g>
   <g id="patch_4">
    <path d="M 449.619772 135.595003 
L 449.619772 52.926872 
" style="fill:none;stroke:#262626;stroke-linecap:square;stroke-linejoin:miter;stroke-width:1.25;"/>
   </g>
   <g id="patch_5">
    <path d="M 367.23788 135.595003 
L 449.619772 135.595003 
" style="fill:none;stroke:#262626;stroke-linecap:square;stroke-linejoin:miter;stroke-width:1.25;"/>
   </g>
   <g id="patch_6">
    <path d="M 367.23788 52.926872 
L 449.619772 52.926872 
" style="fill:none;stroke:#262626;stroke-linecap:square;stroke-linejoin:miter;stroke-width:1.25;"/>
   </g>
  </g>
 </g>
 <defs>
  <clipPath id="peeae01c3f3">
   <rect height="82.668131" width="58.844209" x="37.710313" y="52.926872"/>
  </clipPath>
  <clipPath id="pd0b75bcf35">
   <rect height="82.668131" width="23.537683" x="96.554521" y="52.926872"/>
  </clipPath>
  <clipPath id="p87d2f18050">
   <rect height="82.668131" width="58.844209" x="202.474096" y="52.926872"/>
  </clipPath>
  <clipPath id="p1f6c05fac2">
   <rect height="82.668131" width="23.537683" x="261.318305" y="52.926872"/>
  </clipPath>
 </defs>
</svg>
