<?xml version="1.0" encoding="utf-8" standalone="no"?>
<!DOCTYPE svg PUBLIC "-//W3C//DTD SVG 1.1//EN"
  "http://www.w3.org/Graphics/SVG/1.1/DTD/svg11.dtd">
<!-- Created with matplotlib (https://matplotlib.org/) -->
<svg height="331.194078pt" version="1.1" viewBox="0 0 473.218835 331.194078" width="473.218835pt" xmlns="http://www.w3.org/2000/svg" xmlns:xlink="http://www.w3.org/1999/xlink">
 <metadata>
  <rdf:RDF xmlns:cc="http://creativecommons.org/ns#" xmlns:dc="http://purl.org/dc/elements/1.1/" xmlns:rdf="http://www.w3.org/1999/02/22-rdf-syntax-ns#">
   <cc:Work>
    <dc:type rdf:resource="http://purl.org/dc/dcmitype/StillImage"/>
    <dc:date>2021-01-23T15:27:45.737997</dc:date>
    <dc:format>image/svg+xml</dc:format>
    <dc:creator>
     <cc:Agent>
      <dc:title>Matplotlib v3.3.2, https://matplotlib.org/</dc:title>
     </cc:Agent>
    </dc:creator>
   </cc:Work>
  </rdf:RDF>
 </metadata>
 <defs>
  <style type="text/css">*{stroke-linecap:butt;stroke-linejoin:round;}</style>
 </defs>
 <g id="figure_1">
  <g id="patch_1">
   <path d="M 0 331.194078 
L 473.218835 331.194078 
L 473.218835 0 
L 0 0 
z
" style="fill:#ffffff;"/>
  </g>
  <g id="axes_1">
   <g id="matplotlib.axis_1">
    <g id="xtick_1">
     <g id="line2d_1">
      <defs>
       <path d="M 0 0 
L 0 6 
" id="mdaf661402a" style="stroke:#262626;stroke-width:0.8;"/>
      </defs>
      <g>
       <use style="fill:#262626;stroke:#262626;stroke-width:0.8;" x="62.459177" xlink:href="#mdaf661402a" y="139.315316"/>
      </g>
     </g>
     <g id="text_1">
      <!-- Wt -->
      <g style="fill:#262626;" transform="translate(56.740427 156.994066)scale(0.08 -0.08)">
       <defs>
        <path d="M 76.21875 0 
L 68.21875 0 
L 51.515625 59.28125 
L 34.8125 0 
L 26.8125 0 
L 7.71875 67.671875 
L 0.484375 67.671875 
L 0.484375 72.90625 
L 27.09375 72.90625 
L 27.09375 67.671875 
L 18.015625 67.671875 
L 33.203125 13.8125 
L 49.8125 72.90625 
L 57.71875 72.90625 
L 74.609375 13.1875 
L 89.890625 67.671875 
L 81.5 67.671875 
L 81.5 72.90625 
L 102.484375 72.90625 
L 102.484375 67.671875 
L 95.3125 67.671875 
z
" id="DejaVuSerif-87"/>
        <path d="M 10.796875 46.6875 
L 2.875 46.6875 
L 2.875 51.90625 
L 10.796875 51.90625 
L 10.796875 68.015625 
L 19.828125 68.015625 
L 19.828125 51.90625 
L 36.71875 51.90625 
L 36.71875 46.6875 
L 19.828125 46.6875 
L 19.828125 13.71875 
Q 19.828125 7.125 21.09375 5.265625 
Q 22.359375 3.421875 25.78125 3.421875 
Q 29.296875 3.421875 30.90625 5.484375 
Q 32.515625 7.5625 32.625 12.203125 
L 39.40625 12.203125 
Q 39.015625 5.125 35.546875 1.84375 
Q 32.078125 -1.421875 25 -1.421875 
Q 17.234375 -1.421875 14.015625 2.015625 
Q 10.796875 5.46875 10.796875 13.71875 
z
" id="DejaVuSerif-116"/>
       </defs>
       <use xlink:href="#DejaVuSerif-87"/>
       <use x="102.783203" xlink:href="#DejaVuSerif-116"/>
      </g>
      <!-- N = 12 -->
      <g style="fill:#262626;" transform="translate(47.974802 165.952316)scale(0.08 -0.08)">
       <defs>
        <path d="M 4.890625 0 
L 4.890625 5.171875 
L 14.703125 5.171875 
L 14.703125 67.671875 
L 4.890625 67.671875 
L 4.890625 72.90625 
L 23.578125 72.90625 
L 67.28125 15.375 
L 67.28125 67.671875 
L 57.515625 67.671875 
L 57.515625 72.90625 
L 83.109375 72.90625 
L 83.109375 67.671875 
L 73.296875 67.671875 
L 73.296875 -1.421875 
L 67.390625 -1.421875 
L 20.703125 60.015625 
L 20.703125 5.171875 
L 30.515625 5.171875 
L 30.515625 0 
z
" id="DejaVuSerif-78"/>
        <path id="DejaVuSerif-32"/>
        <path d="M 10.59375 45.21875 
L 73.1875 45.21875 
L 73.1875 37.40625 
L 10.59375 37.40625 
z
M 10.59375 25.296875 
L 73.1875 25.296875 
L 73.1875 17.484375 
L 10.59375 17.484375 
z
" id="DejaVuSerif-61"/>
        <path d="M 14.203125 0 
L 14.203125 5.171875 
L 26.90625 5.171875 
L 26.90625 65.828125 
L 12.203125 56.296875 
L 12.203125 62.703125 
L 29.984375 74.21875 
L 36.71875 74.21875 
L 36.71875 5.171875 
L 49.421875 5.171875 
L 49.421875 0 
z
" id="DejaVuSerif-49"/>
        <path d="M 12.796875 55.515625 
L 7.328125 55.515625 
L 7.328125 68.5 
Q 12.546875 71.296875 17.84375 72.75 
Q 23.140625 74.21875 28.21875 74.21875 
Q 39.59375 74.21875 46.1875 68.703125 
Q 52.78125 63.1875 52.78125 53.71875 
Q 52.78125 43.015625 37.84375 28.125 
Q 36.671875 27 36.078125 26.421875 
L 17.671875 8.015625 
L 48.09375 8.015625 
L 48.09375 17 
L 53.8125 17 
L 53.8125 0 
L 6.78125 0 
L 6.78125 5.328125 
L 28.90625 27.390625 
Q 36.234375 34.71875 39.359375 40.84375 
Q 42.484375 46.96875 42.484375 53.71875 
Q 42.484375 61.078125 38.640625 65.234375 
Q 34.8125 69.390625 28.078125 69.390625 
Q 21.09375 69.390625 17.28125 65.921875 
Q 13.484375 62.453125 12.796875 55.515625 
z
" id="DejaVuSerif-50"/>
       </defs>
       <use xlink:href="#DejaVuSerif-78"/>
       <use x="87.5" xlink:href="#DejaVuSerif-32"/>
       <use x="119.287109" xlink:href="#DejaVuSerif-61"/>
       <use x="203.076172" xlink:href="#DejaVuSerif-32"/>
       <use x="234.863281" xlink:href="#DejaVuSerif-49"/>
       <use x="298.486328" xlink:href="#DejaVuSerif-50"/>
      </g>
     </g>
    </g>
    <g id="xtick_2">
     <g id="line2d_2">
      <g>
       <use style="fill:#262626;stroke:#262626;stroke-width:0.8;" x="91.881281" xlink:href="#mdaf661402a" y="139.315316"/>
      </g>
     </g>
     <g id="text_2">
      <!-- Tg -->
      <g style="fill:#262626;" transform="translate(86.652531 156.880316)scale(0.08 -0.08)">
       <defs>
        <path d="M 19.09375 0 
L 19.09375 5.171875 
L 28.421875 5.171875 
L 28.421875 67.09375 
L 6.984375 67.09375 
L 6.984375 55.71875 
L 0.984375 55.71875 
L 0.984375 72.90625 
L 65.71875 72.90625 
L 65.71875 55.71875 
L 59.71875 55.71875 
L 59.71875 67.09375 
L 38.28125 67.09375 
L 38.28125 5.171875 
L 47.609375 5.171875 
L 47.609375 0 
z
" id="DejaVuSerif-84"/>
        <path d="M 52.484375 46.6875 
L 52.484375 1.125 
Q 52.484375 -10.0625 46.328125 -16.140625 
Q 40.1875 -22.21875 28.8125 -22.21875 
Q 23.6875 -22.21875 19 -21.28125 
Q 14.3125 -20.359375 10.015625 -18.5 
L 10.015625 -7.625 
L 14.703125 -7.625 
Q 15.578125 -12.703125 18.84375 -15.046875 
Q 22.125 -17.390625 28.21875 -17.390625 
Q 36.140625 -17.390625 39.8125 -12.921875 
Q 43.5 -8.453125 43.5 1.125 
L 43.5 8.109375 
Q 40.875 3.21875 36.796875 0.890625 
Q 32.71875 -1.421875 26.703125 -1.421875 
Q 17.140625 -1.421875 11.0625 6.171875 
Q 4.984375 13.765625 4.984375 25.984375 
Q 4.984375 38.1875 11.03125 45.75 
Q 17.09375 53.328125 26.703125 53.328125 
Q 32.71875 53.328125 36.796875 51 
Q 40.875 48.6875 43.5 43.796875 
L 43.5 51.90625 
L 61.078125 51.90625 
L 61.078125 46.6875 
z
M 43.5 28.515625 
Q 43.5 37.84375 39.90625 42.765625 
Q 36.328125 47.703125 29.5 47.703125 
Q 22.5625 47.703125 19.015625 42.234375 
Q 15.484375 36.765625 15.484375 25.984375 
Q 15.484375 15.234375 19.015625 9.71875 
Q 22.5625 4.203125 29.5 4.203125 
Q 36.328125 4.203125 39.90625 9.109375 
Q 43.5 14.015625 43.5 23.390625 
z
" id="DejaVuSerif-103"/>
       </defs>
       <use xlink:href="#DejaVuSerif-84"/>
       <use x="66.699219" xlink:href="#DejaVuSerif-103"/>
      </g>
      <!-- N = 12 -->
      <g style="fill:#262626;" transform="translate(77.396906 165.952316)scale(0.08 -0.08)">
       <use xlink:href="#DejaVuSerif-78"/>
       <use x="87.5" xlink:href="#DejaVuSerif-32"/>
       <use x="119.287109" xlink:href="#DejaVuSerif-61"/>
       <use x="203.076172" xlink:href="#DejaVuSerif-32"/>
       <use x="234.863281" xlink:href="#DejaVuSerif-49"/>
       <use x="298.486328" xlink:href="#DejaVuSerif-50"/>
      </g>
     </g>
    </g>
   </g>
   <g id="matplotlib.axis_2">
    <g id="ytick_1">
     <g id="line2d_3">
      <defs>
       <path d="M 0 0 
L -6 0 
" id="m987972e045" style="stroke:#262626;stroke-width:0.8;"/>
      </defs>
      <g>
       <use style="fill:#262626;stroke:#262626;stroke-width:0.8;" x="47.748125" xlink:href="#m987972e045" y="136.008393"/>
      </g>
     </g>
     <g id="text_3">
      <!-- 0 -->
      <g style="fill:#262626;" transform="translate(31.058125 139.047768)scale(0.08 -0.08)">
       <defs>
        <path d="M 31.78125 3.421875 
Q 39.265625 3.421875 42.96875 11.625 
Q 46.6875 19.828125 46.6875 36.375 
Q 46.6875 52.984375 42.96875 61.1875 
Q 39.265625 69.390625 31.78125 69.390625 
Q 24.3125 69.390625 20.59375 61.1875 
Q 16.890625 52.984375 16.890625 36.375 
Q 16.890625 19.828125 20.59375 11.625 
Q 24.3125 3.421875 31.78125 3.421875 
z
M 31.78125 -1.421875 
Q 19.921875 -1.421875 13.25 8.53125 
Q 6.59375 18.5 6.59375 36.375 
Q 6.59375 54.296875 13.25 64.25 
Q 19.921875 74.21875 31.78125 74.21875 
Q 43.703125 74.21875 50.34375 64.25 
Q 56.984375 54.296875 56.984375 36.375 
Q 56.984375 18.5 50.34375 8.53125 
Q 43.703125 -1.421875 31.78125 -1.421875 
z
" id="DejaVuSerif-48"/>
       </defs>
       <use xlink:href="#DejaVuSerif-48"/>
      </g>
     </g>
    </g>
    <g id="ytick_2">
     <g id="line2d_4">
      <g>
       <use style="fill:#262626;stroke:#262626;stroke-width:0.8;" x="47.748125" xlink:href="#m987972e045" y="114.584995"/>
      </g>
     </g>
     <g id="text_4">
      <!-- 50 -->
      <g style="fill:#262626;" transform="translate(25.968125 117.62437)scale(0.08 -0.08)">
       <defs>
        <path d="M 50.296875 72.90625 
L 50.296875 64.890625 
L 16.890625 64.890625 
L 16.890625 44 
Q 19.4375 45.75 22.828125 46.625 
Q 26.21875 47.515625 30.421875 47.515625 
Q 42.234375 47.515625 49.0625 40.96875 
Q 55.90625 34.421875 55.90625 23.09375 
Q 55.90625 11.53125 49 5.046875 
Q 42.09375 -1.421875 29.59375 -1.421875 
Q 24.5625 -1.421875 19.28125 -0.1875 
Q 14.015625 1.03125 8.5 3.515625 
L 8.5 17.671875 
L 14.015625 17.671875 
Q 14.453125 10.75 18.421875 7.078125 
Q 22.40625 3.421875 29.59375 3.421875 
Q 37.3125 3.421875 41.453125 8.5 
Q 45.609375 13.578125 45.609375 23.09375 
Q 45.609375 32.5625 41.484375 37.609375 
Q 37.359375 42.671875 29.59375 42.671875 
Q 25.203125 42.671875 21.84375 41.109375 
Q 18.5 39.546875 15.921875 36.28125 
L 11.71875 36.28125 
L 11.71875 72.90625 
z
" id="DejaVuSerif-53"/>
       </defs>
       <use xlink:href="#DejaVuSerif-53"/>
       <use x="63.623047" xlink:href="#DejaVuSerif-48"/>
      </g>
     </g>
    </g>
    <g id="ytick_3">
     <g id="line2d_5">
      <g>
       <use style="fill:#262626;stroke:#262626;stroke-width:0.8;" x="47.748125" xlink:href="#m987972e045" y="93.161596"/>
      </g>
     </g>
     <g id="text_5">
      <!-- 100 -->
      <g style="fill:#262626;" transform="translate(20.878125 96.200971)scale(0.08 -0.08)">
       <use xlink:href="#DejaVuSerif-49"/>
       <use x="63.623047" xlink:href="#DejaVuSerif-48"/>
       <use x="127.246094" xlink:href="#DejaVuSerif-48"/>
      </g>
     </g>
    </g>
    <g id="ytick_4">
     <g id="line2d_6">
      <g>
       <use style="fill:#262626;stroke:#262626;stroke-width:0.8;" x="47.748125" xlink:href="#m987972e045" y="71.738198"/>
      </g>
     </g>
     <g id="text_6">
      <!-- 150 -->
      <g style="fill:#262626;" transform="translate(20.878125 74.777573)scale(0.08 -0.08)">
       <use xlink:href="#DejaVuSerif-49"/>
       <use x="63.623047" xlink:href="#DejaVuSerif-53"/>
       <use x="127.246094" xlink:href="#DejaVuSerif-48"/>
      </g>
     </g>
    </g>
    <g id="text_7">
     <!-- Home Base Distance from Cue (cm) -->
     <g style="fill:#262626;" transform="translate(14.798438 188.7625)rotate(-90)scale(0.1 -0.1)">
      <defs>
       <path d="M 5.515625 0 
L 5.515625 5.171875 
L 14.796875 5.171875 
L 14.796875 67.671875 
L 5.515625 67.671875 
L 5.515625 72.90625 
L 33.984375 72.90625 
L 33.984375 67.671875 
L 24.703125 67.671875 
L 24.703125 42.484375 
L 62.5 42.484375 
L 62.5 67.671875 
L 53.21875 67.671875 
L 53.21875 72.90625 
L 81.6875 72.90625 
L 81.6875 67.671875 
L 72.40625 67.671875 
L 72.40625 5.171875 
L 81.6875 5.171875 
L 81.6875 0 
L 53.21875 0 
L 53.21875 5.171875 
L 62.5 5.171875 
L 62.5 36.53125 
L 24.703125 36.53125 
L 24.703125 5.171875 
L 33.984375 5.171875 
L 33.984375 0 
z
" id="DejaVuSerif-72"/>
       <path d="M 30.078125 3.421875 
Q 37.3125 3.421875 40.984375 9.125 
Q 44.671875 14.84375 44.671875 25.984375 
Q 44.671875 37.109375 40.984375 42.796875 
Q 37.3125 48.484375 30.078125 48.484375 
Q 22.859375 48.484375 19.171875 42.796875 
Q 15.484375 37.109375 15.484375 25.984375 
Q 15.484375 14.84375 19.1875 9.125 
Q 22.90625 3.421875 30.078125 3.421875 
z
M 30.078125 -1.421875 
Q 18.75 -1.421875 11.859375 6.078125 
Q 4.984375 13.578125 4.984375 25.984375 
Q 4.984375 38.375 11.84375 45.84375 
Q 18.703125 53.328125 30.078125 53.328125 
Q 41.453125 53.328125 48.3125 45.84375 
Q 55.171875 38.375 55.171875 25.984375 
Q 55.171875 13.578125 48.3125 6.078125 
Q 41.453125 -1.421875 30.078125 -1.421875 
z
" id="DejaVuSerif-111"/>
       <path d="M 51.8125 41.796875 
Q 54.390625 47.515625 58.421875 50.421875 
Q 62.453125 53.328125 67.828125 53.328125 
Q 75.984375 53.328125 79.984375 48.265625 
Q 83.984375 43.21875 83.984375 33.015625 
L 83.984375 5.171875 
L 92.09375 5.171875 
L 92.09375 0 
L 67.1875 0 
L 67.1875 5.171875 
L 75 5.171875 
L 75 31.984375 
Q 75 39.9375 72.65625 43.3125 
Q 70.3125 46.6875 64.890625 46.6875 
Q 58.890625 46.6875 55.734375 42.140625 
Q 52.59375 37.59375 52.59375 28.90625 
L 52.59375 5.171875 
L 60.40625 5.171875 
L 60.40625 0 
L 35.796875 0 
L 35.796875 5.171875 
L 43.609375 5.171875 
L 43.609375 32.328125 
Q 43.609375 40.09375 41.265625 43.390625 
Q 38.921875 46.6875 33.5 46.6875 
Q 27.484375 46.6875 24.328125 42.140625 
Q 21.1875 37.59375 21.1875 28.90625 
L 21.1875 5.171875 
L 29 5.171875 
L 29 0 
L 4.109375 0 
L 4.109375 5.171875 
L 12.203125 5.171875 
L 12.203125 46.78125 
L 3.609375 46.78125 
L 3.609375 51.90625 
L 21.1875 51.90625 
L 21.1875 42.671875 
Q 23.6875 47.859375 27.53125 50.59375 
Q 31.390625 53.328125 36.28125 53.328125 
Q 42.328125 53.328125 46.375 50.3125 
Q 50.4375 47.3125 51.8125 41.796875 
z
" id="DejaVuSerif-109"/>
       <path d="M 54.203125 25 
L 15.484375 25 
L 15.484375 24.609375 
Q 15.484375 14.109375 19.4375 8.765625 
Q 23.390625 3.421875 31.109375 3.421875 
Q 37.015625 3.421875 40.796875 6.515625 
Q 44.578125 9.625 46.09375 15.71875 
L 53.328125 15.71875 
Q 51.171875 7.171875 45.375 2.875 
Q 39.59375 -1.421875 30.171875 -1.421875 
Q 18.796875 -1.421875 11.890625 6.078125 
Q 4.984375 13.578125 4.984375 25.984375 
Q 4.984375 38.28125 11.765625 45.796875 
Q 18.5625 53.328125 29.59375 53.328125 
Q 41.359375 53.328125 47.65625 46.0625 
Q 53.953125 38.8125 54.203125 25 
z
M 43.609375 30.171875 
Q 43.3125 39.265625 39.765625 43.875 
Q 36.234375 48.484375 29.59375 48.484375 
Q 23.390625 48.484375 19.828125 43.84375 
Q 16.265625 39.203125 15.484375 30.171875 
z
" id="DejaVuSerif-101"/>
       <path d="M 24.703125 5.171875 
L 39.3125 5.171875 
Q 48.09375 5.171875 52.140625 8.984375 
Q 56.203125 12.796875 56.203125 21.09375 
Q 56.203125 29.34375 52.171875 33.125 
Q 48.140625 36.921875 39.3125 36.921875 
L 24.703125 36.921875 
z
M 24.703125 42.09375 
L 37.109375 42.09375 
Q 45.125 42.09375 48.796875 45.171875 
Q 52.484375 48.25 52.484375 54.890625 
Q 52.484375 61.578125 48.796875 64.625 
Q 45.125 67.671875 37.109375 67.671875 
L 24.703125 67.671875 
z
M 5.515625 0 
L 5.515625 5.171875 
L 14.796875 5.171875 
L 14.796875 67.671875 
L 5.515625 67.671875 
L 5.515625 72.90625 
L 41.5 72.90625 
Q 52.546875 72.90625 58.125 68.390625 
Q 63.71875 63.875 63.71875 54.890625 
Q 63.71875 48.390625 59.828125 44.53125 
Q 55.953125 40.671875 48.484375 39.796875 
Q 57.765625 38.625 62.578125 33.859375 
Q 67.390625 29.109375 67.390625 21.09375 
Q 67.390625 10.25 60.546875 5.125 
Q 53.71875 0 39.203125 0 
z
" id="DejaVuSerif-66"/>
       <path d="M 39.796875 16.3125 
L 39.796875 27.296875 
L 28.21875 27.296875 
Q 21.53125 27.296875 18.25 24.40625 
Q 14.984375 21.53125 14.984375 15.578125 
Q 14.984375 10.15625 18.296875 6.984375 
Q 21.625 3.8125 27.296875 3.8125 
Q 32.90625 3.8125 36.34375 7.28125 
Q 39.796875 10.75 39.796875 16.3125 
z
M 48.78125 32.421875 
L 48.78125 5.171875 
L 56.78125 5.171875 
L 56.78125 0 
L 39.796875 0 
L 39.796875 5.609375 
Q 36.8125 2 32.90625 0.28125 
Q 29 -1.421875 23.78125 -1.421875 
Q 15.140625 -1.421875 10.0625 3.171875 
Q 4.984375 7.765625 4.984375 15.578125 
Q 4.984375 23.640625 10.796875 28.078125 
Q 16.609375 32.515625 27.203125 32.515625 
L 39.796875 32.515625 
L 39.796875 36.078125 
Q 39.796875 42 36.203125 45.234375 
Q 32.625 48.484375 26.125 48.484375 
Q 20.75 48.484375 17.578125 46.046875 
Q 14.40625 43.609375 13.625 38.8125 
L 8.984375 38.8125 
L 8.984375 49.3125 
Q 13.671875 51.3125 18.09375 52.3125 
Q 22.515625 53.328125 26.703125 53.328125 
Q 37.5 53.328125 43.140625 47.96875 
Q 48.78125 42.625 48.78125 32.421875 
z
" id="DejaVuSerif-97"/>
       <path d="M 5.609375 2.875 
L 5.609375 14.984375 
L 10.796875 14.984375 
Q 10.984375 9.1875 14.421875 6.296875 
Q 17.875 3.421875 24.609375 3.421875 
Q 30.671875 3.421875 33.84375 5.6875 
Q 37.015625 7.953125 37.015625 12.3125 
Q 37.015625 15.71875 34.6875 17.8125 
Q 32.375 19.921875 24.90625 22.3125 
L 18.40625 24.515625 
Q 11.71875 26.65625 8.71875 29.875 
Q 5.71875 33.109375 5.71875 38.09375 
Q 5.71875 45.21875 10.9375 49.265625 
Q 16.15625 53.328125 25.390625 53.328125 
Q 29.5 53.328125 34.03125 52.25 
Q 38.578125 51.171875 43.40625 49.125 
L 43.40625 37.796875 
L 38.234375 37.796875 
Q 38.03125 42.828125 34.703125 45.65625 
Q 31.390625 48.484375 25.6875 48.484375 
Q 20.015625 48.484375 17.109375 46.484375 
Q 14.203125 44.484375 14.203125 40.484375 
Q 14.203125 37.203125 16.40625 35.21875 
Q 18.609375 33.25 25.203125 31.203125 
L 32.328125 29 
Q 39.703125 26.703125 42.9375 23.265625 
Q 46.1875 19.828125 46.1875 14.40625 
Q 46.1875 7.03125 40.546875 2.796875 
Q 34.90625 -1.421875 25 -1.421875 
Q 19.96875 -1.421875 15.1875 -0.34375 
Q 10.40625 0.734375 5.609375 2.875 
z
" id="DejaVuSerif-115"/>
       <path d="M 24.703125 5.171875 
L 33.796875 5.171875 
Q 48 5.171875 55.59375 13.28125 
Q 63.1875 21.390625 63.1875 36.53125 
Q 63.1875 51.65625 55.609375 59.65625 
Q 48.046875 67.671875 33.796875 67.671875 
L 24.703125 67.671875 
z
M 5.515625 0 
L 5.515625 5.171875 
L 14.796875 5.171875 
L 14.796875 67.671875 
L 5.515625 67.671875 
L 5.515625 72.90625 
L 34.515625 72.90625 
Q 53.375 72.90625 63.890625 63.28125 
Q 74.421875 53.65625 74.421875 36.53125 
Q 74.421875 19.34375 63.875 9.671875 
Q 53.328125 0 34.515625 0 
z
" id="DejaVuSerif-68"/>
       <path d="M 9.71875 68.015625 
Q 9.71875 70.265625 11.34375 71.921875 
Q 12.984375 73.578125 15.28125 73.578125 
Q 17.53125 73.578125 19.15625 71.921875 
Q 20.796875 70.265625 20.796875 68.015625 
Q 20.796875 65.71875 19.1875 64.109375 
Q 17.578125 62.5 15.28125 62.5 
Q 12.984375 62.5 11.34375 64.109375 
Q 9.71875 65.71875 9.71875 68.015625 
z
M 21.1875 5.171875 
L 29.6875 5.171875 
L 29.6875 0 
L 3.609375 0 
L 3.609375 5.171875 
L 12.203125 5.171875 
L 12.203125 46.6875 
L 3.609375 46.6875 
L 3.609375 51.90625 
L 21.1875 51.90625 
z
" id="DejaVuSerif-105"/>
       <path d="M 4.109375 0 
L 4.109375 5.171875 
L 12.203125 5.171875 
L 12.203125 46.6875 
L 3.609375 46.6875 
L 3.609375 51.90625 
L 21.1875 51.90625 
L 21.1875 42.671875 
Q 23.6875 47.953125 27.65625 50.640625 
Q 31.640625 53.328125 36.921875 53.328125 
Q 45.515625 53.328125 49.5625 48.390625 
Q 53.609375 43.453125 53.609375 33.015625 
L 53.609375 5.171875 
L 61.625 5.171875 
L 61.625 0 
L 36.8125 0 
L 36.8125 5.171875 
L 44.578125 5.171875 
L 44.578125 30.171875 
Q 44.578125 39.703125 42.234375 43.234375 
Q 39.890625 46.78125 33.984375 46.78125 
Q 27.734375 46.78125 24.453125 42.203125 
Q 21.1875 37.640625 21.1875 28.90625 
L 21.1875 5.171875 
L 29 5.171875 
L 29 0 
z
" id="DejaVuSerif-110"/>
       <path d="M 51.421875 15.578125 
Q 49.515625 7.28125 44.09375 2.921875 
Q 38.671875 -1.421875 30.078125 -1.421875 
Q 18.75 -1.421875 11.859375 6.078125 
Q 4.984375 13.578125 4.984375 25.984375 
Q 4.984375 38.421875 11.859375 45.875 
Q 18.75 53.328125 30.078125 53.328125 
Q 35.015625 53.328125 39.890625 52.171875 
Q 44.78125 51.03125 49.703125 48.6875 
L 49.703125 35.40625 
L 44.484375 35.40625 
Q 43.453125 42.234375 40.015625 45.359375 
Q 36.578125 48.484375 30.171875 48.484375 
Q 22.90625 48.484375 19.1875 42.84375 
Q 15.484375 37.203125 15.484375 25.984375 
Q 15.484375 14.75 19.171875 9.078125 
Q 22.859375 3.421875 30.171875 3.421875 
Q 35.984375 3.421875 39.453125 6.4375 
Q 42.921875 9.46875 44.1875 15.578125 
z
" id="DejaVuSerif-99"/>
       <path d="M 43.015625 63.71875 
L 38.28125 63.71875 
Q 38.234375 67.390625 36.203125 69.28125 
Q 34.1875 71.1875 30.328125 71.1875 
Q 25.296875 71.1875 23.234375 68.421875 
Q 21.1875 65.671875 21.1875 58.59375 
L 21.1875 51.90625 
L 35.6875 51.90625 
L 35.6875 46.6875 
L 21.1875 46.6875 
L 21.1875 5.171875 
L 32.71875 5.171875 
L 32.71875 0 
L 3.609375 0 
L 3.609375 5.171875 
L 12.203125 5.171875 
L 12.203125 46.6875 
L 3.609375 46.6875 
L 3.609375 51.90625 
L 12.203125 51.90625 
L 12.203125 58.40625 
Q 12.203125 67.09375 16.71875 71.53125 
Q 21.234375 75.984375 29.984375 75.984375 
Q 33.25 75.984375 36.515625 75.390625 
Q 39.796875 74.8125 43.015625 73.578125 
z
" id="DejaVuSerif-102"/>
       <path d="M 47.796875 52 
L 47.796875 39.015625 
L 42.625 39.015625 
Q 42.390625 42.875 40.484375 44.78125 
Q 38.578125 46.6875 34.90625 46.6875 
Q 28.265625 46.6875 24.71875 42.09375 
Q 21.1875 37.5 21.1875 28.90625 
L 21.1875 5.171875 
L 31.59375 5.171875 
L 31.59375 0 
L 4.109375 0 
L 4.109375 5.171875 
L 12.203125 5.171875 
L 12.203125 46.78125 
L 3.609375 46.78125 
L 3.609375 51.90625 
L 21.1875 51.90625 
L 21.1875 42.671875 
Q 23.828125 48.09375 27.96875 50.703125 
Q 32.125 53.328125 38.09375 53.328125 
Q 40.28125 53.328125 42.703125 52.984375 
Q 45.125 52.640625 47.796875 52 
z
" id="DejaVuSerif-114"/>
       <path d="M 70.515625 19.28125 
Q 67.28125 9.078125 59.6875 3.828125 
Q 52.09375 -1.421875 40.484375 -1.421875 
Q 33.34375 -1.421875 27.234375 1.015625 
Q 21.140625 3.46875 16.40625 8.203125 
Q 10.9375 13.671875 8.265625 20.625 
Q 5.609375 27.59375 5.609375 36.375 
Q 5.609375 53.375 15.421875 63.796875 
Q 25.25 74.21875 41.3125 74.21875 
Q 47.265625 74.21875 54 72.65625 
Q 60.75 71.09375 68.5 67.921875 
L 68.5 51.125 
L 62.984375 51.125 
Q 61.1875 60.296875 55.734375 64.640625 
Q 50.296875 69 40.484375 69 
Q 28.8125 69 22.796875 60.71875 
Q 16.796875 52.4375 16.796875 36.375 
Q 16.796875 20.359375 22.796875 12.078125 
Q 28.8125 3.8125 40.484375 3.8125 
Q 48.640625 3.8125 53.90625 7.6875 
Q 59.1875 11.578125 61.53125 19.28125 
z
" id="DejaVuSerif-67"/>
       <path d="M 35.40625 51.90625 
L 52.203125 51.90625 
L 52.203125 5.171875 
L 60.6875 5.171875 
L 60.6875 0 
L 43.21875 0 
L 43.21875 9.1875 
Q 40.71875 4 36.765625 1.28125 
Q 32.8125 -1.421875 27.59375 -1.421875 
Q 18.953125 -1.421875 14.875 3.484375 
Q 10.796875 8.40625 10.796875 18.890625 
L 10.796875 46.6875 
L 2.6875 46.6875 
L 2.6875 51.90625 
L 19.828125 51.90625 
L 19.828125 21.6875 
Q 19.828125 12.203125 22.140625 8.6875 
Q 24.46875 5.171875 30.421875 5.171875 
Q 36.671875 5.171875 39.9375 9.765625 
Q 43.21875 14.359375 43.21875 23.09375 
L 43.21875 46.6875 
L 35.40625 46.6875 
z
" id="DejaVuSerif-117"/>
       <path d="M 31.890625 -15.578125 
Q 20.015625 -10.25 13.953125 1.296875 
Q 7.90625 12.84375 7.90625 30.171875 
Q 7.90625 47.5625 13.953125 59.109375 
Q 20.015625 70.65625 31.890625 75.984375 
L 31.890625 71.1875 
Q 24.359375 66.015625 21.09375 56.609375 
Q 17.828125 47.21875 17.828125 30.171875 
Q 17.828125 13.1875 21.09375 3.78125 
Q 24.359375 -5.609375 31.890625 -10.796875 
z
" id="DejaVuSerif-40"/>
       <path d="M 7.078125 -15.578125 
L 7.078125 -10.796875 
Q 14.59375 -5.609375 17.890625 3.78125 
Q 21.1875 13.1875 21.1875 30.171875 
Q 21.1875 47.21875 17.890625 56.609375 
Q 14.59375 66.015625 7.078125 71.1875 
L 7.078125 75.984375 
Q 19 70.65625 25.046875 59.109375 
Q 31.109375 47.5625 31.109375 30.171875 
Q 31.109375 12.84375 25.046875 1.296875 
Q 19 -10.25 7.078125 -15.578125 
z
" id="DejaVuSerif-41"/>
      </defs>
      <use xlink:href="#DejaVuSerif-72"/>
      <use x="87.207031" xlink:href="#DejaVuSerif-111"/>
      <use x="147.412109" xlink:href="#DejaVuSerif-109"/>
      <use x="242.236328" xlink:href="#DejaVuSerif-101"/>
      <use x="301.416016" xlink:href="#DejaVuSerif-32"/>
      <use x="333.203125" xlink:href="#DejaVuSerif-66"/>
      <use x="406.689453" xlink:href="#DejaVuSerif-97"/>
      <use x="466.308594" xlink:href="#DejaVuSerif-115"/>
      <use x="517.626953" xlink:href="#DejaVuSerif-101"/>
      <use x="576.806641" xlink:href="#DejaVuSerif-32"/>
      <use x="608.59375" xlink:href="#DejaVuSerif-68"/>
      <use x="688.769531" xlink:href="#DejaVuSerif-105"/>
      <use x="720.751953" xlink:href="#DejaVuSerif-115"/>
      <use x="772.070312" xlink:href="#DejaVuSerif-116"/>
      <use x="812.255859" xlink:href="#DejaVuSerif-97"/>
      <use x="871.875" xlink:href="#DejaVuSerif-110"/>
      <use x="936.279297" xlink:href="#DejaVuSerif-99"/>
      <use x="992.285156" xlink:href="#DejaVuSerif-101"/>
      <use x="1051.464844" xlink:href="#DejaVuSerif-32"/>
      <use x="1083.251953" xlink:href="#DejaVuSerif-102"/>
      <use x="1120.263672" xlink:href="#DejaVuSerif-114"/>
      <use x="1168.066406" xlink:href="#DejaVuSerif-111"/>
      <use x="1228.271484" xlink:href="#DejaVuSerif-109"/>
      <use x="1323.095703" xlink:href="#DejaVuSerif-32"/>
      <use x="1354.882812" xlink:href="#DejaVuSerif-67"/>
      <use x="1431.396484" xlink:href="#DejaVuSerif-117"/>
      <use x="1495.800781" xlink:href="#DejaVuSerif-101"/>
      <use x="1554.980469" xlink:href="#DejaVuSerif-32"/>
      <use x="1586.767578" xlink:href="#DejaVuSerif-40"/>
      <use x="1625.78125" xlink:href="#DejaVuSerif-99"/>
      <use x="1681.787109" xlink:href="#DejaVuSerif-109"/>
      <use x="1776.611328" xlink:href="#DejaVuSerif-41"/>
     </g>
    </g>
   </g>
   <g id="PathCollection_1">
    <defs>
     <path d="M 0 1.5 
C 0.397805 1.5 0.77937 1.341951 1.06066 1.06066 
C 1.341951 0.77937 1.5 0.397805 1.5 -0 
C 1.5 -0.397805 1.341951 -0.77937 1.06066 -1.06066 
C 0.77937 -1.341951 0.397805 -1.5 0 -1.5 
C -0.397805 -1.5 -0.77937 -1.341951 -1.06066 -1.06066 
C -1.341951 -0.77937 -1.5 -0.397805 -1.5 0 
C -1.5 0.397805 -1.341951 0.77937 -1.06066 1.06066 
C -0.77937 1.341951 -0.397805 1.5 0 1.5 
z
" id="C0_0_7057c312ea"/>
    </defs>
    <g clip-path="url(#p054fee41fa)">
     <use style="fill:#a2a3af;" x="62.459177" xlink:href="#C0_0_7057c312ea" y="134.092008"/>
    </g>
    <g clip-path="url(#p054fee41fa)">
     <use style="fill:#a2a3af;" x="59.464928" xlink:href="#C0_0_7057c312ea" y="133.160341"/>
    </g>
    <g clip-path="url(#p054fee41fa)">
     <use style="fill:#a2a3af;" x="65.39164" xlink:href="#C0_0_7057c312ea" y="132.996496"/>
    </g>
    <g clip-path="url(#p054fee41fa)">
     <use style="fill:#a2a3af;" x="68.537762" xlink:href="#C0_0_7057c312ea" y="132.847667"/>
    </g>
    <g clip-path="url(#p054fee41fa)">
     <use style="fill:#a2a3af;" x="56.487268" xlink:href="#C0_0_7057c312ea" y="132.181638"/>
    </g>
    <g clip-path="url(#p054fee41fa)">
     <use style="fill:#a2a3af;" x="71.244525" xlink:href="#C0_0_7057c312ea" y="131.313201"/>
    </g>
    <g clip-path="url(#p054fee41fa)">
     <use style="fill:#a2a3af;" x="53.508012" xlink:href="#C0_0_7057c312ea" y="131.207351"/>
    </g>
    <g clip-path="url(#p054fee41fa)">
     <use style="fill:#a2a3af;" x="74.228019" xlink:href="#C0_0_7057c312ea" y="131.184061"/>
    </g>
    <g clip-path="url(#p054fee41fa)">
     <use style="fill:#a2a3af;" x="62.459177" xlink:href="#C0_0_7057c312ea" y="130.881598"/>
    </g>
    <g clip-path="url(#p054fee41fa)">
     <use style="fill:#a2a3af;" x="62.459177" xlink:href="#C0_0_7057c312ea" y="66.382996"/>
    </g>
    <g clip-path="url(#p054fee41fa)">
     <use style="fill:#a2a3af;" x="62.459177" xlink:href="#C0_0_7057c312ea" y="61.239341"/>
    </g>
    <g clip-path="url(#p054fee41fa)">
     <use style="fill:#a2a3af;" x="59.433503" xlink:href="#C0_0_7057c312ea" y="60.404827"/>
    </g>
   </g>
   <g id="PathCollection_2">
    <defs>
     <path d="M 0 1.5 
C 0.397805 1.5 0.77937 1.341951 1.06066 1.06066 
C 1.341951 0.77937 1.5 0.397805 1.5 -0 
C 1.5 -0.397805 1.341951 -0.77937 1.06066 -1.06066 
C 0.77937 -1.341951 0.397805 -1.5 0 -1.5 
C -0.397805 -1.5 -0.77937 -1.341951 -1.06066 -1.06066 
C -1.341951 -0.77937 -1.5 -0.397805 -1.5 0 
C -1.5 0.397805 -1.341951 0.77937 -1.06066 1.06066 
C -0.77937 1.341951 -0.397805 1.5 0 1.5 
z
" id="C1_0_a8bc02f5fb"/>
    </defs>
    <g clip-path="url(#p054fee41fa)">
     <use style="fill:#4e2c43;" x="91.881281" xlink:href="#C1_0_a8bc02f5fb" y="135.557673"/>
    </g>
    <g clip-path="url(#p054fee41fa)">
     <use style="fill:#4e2c43;" x="90.027247" xlink:href="#C1_0_a8bc02f5fb" y="133.132361"/>
    </g>
    <g clip-path="url(#p054fee41fa)">
     <use style="fill:#4e2c43;" x="93.067495" xlink:href="#C1_0_a8bc02f5fb" y="132.347356"/>
    </g>
    <g clip-path="url(#p054fee41fa)">
     <use style="fill:#4e2c43;" x="96.138849" xlink:href="#C1_0_a8bc02f5fb" y="131.681177"/>
    </g>
    <g clip-path="url(#p054fee41fa)">
     <use style="fill:#4e2c43;" x="91.881281" xlink:href="#C1_0_a8bc02f5fb" y="93.943979"/>
    </g>
    <g clip-path="url(#p054fee41fa)">
     <use style="fill:#4e2c43;" x="88.747249" xlink:href="#C1_0_a8bc02f5fb" y="93.6423"/>
    </g>
    <g clip-path="url(#p054fee41fa)">
     <use style="fill:#4e2c43;" x="91.881281" xlink:href="#C1_0_a8bc02f5fb" y="74.677228"/>
    </g>
    <g clip-path="url(#p054fee41fa)">
     <use style="fill:#4e2c43;" x="88.774077" xlink:href="#C1_0_a8bc02f5fb" y="74.184394"/>
    </g>
    <g clip-path="url(#p054fee41fa)">
     <use style="fill:#4e2c43;" x="91.881281" xlink:href="#C1_0_a8bc02f5fb" y="70.265604"/>
    </g>
    <g clip-path="url(#p054fee41fa)">
     <use style="fill:#4e2c43;" x="89.103951" xlink:href="#C1_0_a8bc02f5fb" y="68.850129"/>
    </g>
    <g clip-path="url(#p054fee41fa)">
     <use style="fill:#4e2c43;" x="91.881281" xlink:href="#C1_0_a8bc02f5fb" y="61.740222"/>
    </g>
    <g clip-path="url(#p054fee41fa)">
     <use style="fill:#4e2c43;" x="88.808616" xlink:href="#C1_0_a8bc02f5fb" y="61.079548"/>
    </g>
   </g>
   <g id="LineCollection_1">
    <path clip-path="url(#p054fee41fa)" d="M 62.459177 131.260276 
L 106.592334 131.260276 
" style="fill:none;stroke:#262626;stroke-width:0.75;"/>
   </g>
   <g id="LineCollection_2">
    <path clip-path="url(#p054fee41fa)" d="M 91.881281 84.159764 
L 106.592334 84.159764 
" style="fill:none;stroke:#262626;stroke-width:0.75;"/>
   </g>
   <g id="axes_2">
    <g id="matplotlib.axis_3">
     <g id="xtick_3">
      <g id="line2d_7">
       <g>
        <use style="fill:#262626;stroke:#262626;stroke-width:0.8;" x="118.361175" xlink:href="#mdaf661402a" y="139.315316"/>
       </g>
      </g>
      <g id="text_8">
       <!-- Tg -->
       <g style="fill:#262626;" transform="translate(113.132425 156.880316)scale(0.08 -0.08)">
        <use xlink:href="#DejaVuSerif-84"/>
        <use x="66.699219" xlink:href="#DejaVuSerif-103"/>
       </g>
       <!-- minus -->
       <g style="fill:#262626;" transform="translate(106.083675 165.952316)scale(0.08 -0.08)">
        <use xlink:href="#DejaVuSerif-109"/>
        <use x="94.824219" xlink:href="#DejaVuSerif-105"/>
        <use x="126.806641" xlink:href="#DejaVuSerif-110"/>
        <use x="191.210938" xlink:href="#DejaVuSerif-117"/>
        <use x="255.615234" xlink:href="#DejaVuSerif-115"/>
       </g>
       <!-- Wt -->
       <g style="fill:#262626;" transform="translate(112.642425 174.910566)scale(0.08 -0.08)">
        <use xlink:href="#DejaVuSerif-87"/>
        <use x="102.783203" xlink:href="#DejaVuSerif-116"/>
       </g>
      </g>
     </g>
    </g>
    <g id="matplotlib.axis_4">
     <g id="ytick_5">
      <g id="line2d_8">
       <defs>
        <path d="M 0 0 
L 6 0 
" id="m1e01294ab3" style="stroke:#262626;stroke-width:0.8;"/>
       </defs>
       <g>
        <use style="fill:#262626;stroke:#262626;stroke-width:0.8;" x="130.130017" xlink:href="#m1e01294ab3" y="131.260276"/>
       </g>
      </g>
      <g id="text_9">
       <!-- 0 -->
       <g style="fill:#262626;" transform="translate(141.730017 134.299651)scale(0.08 -0.08)">
        <use xlink:href="#DejaVuSerif-48"/>
       </g>
      </g>
     </g>
     <g id="ytick_6">
      <g id="line2d_9">
       <g>
        <use style="fill:#262626;stroke:#262626;stroke-width:0.8;" x="130.130017" xlink:href="#m1e01294ab3" y="109.836877"/>
       </g>
      </g>
      <g id="text_10">
       <!-- 50 -->
       <g style="fill:#262626;" transform="translate(141.730017 112.876252)scale(0.08 -0.08)">
        <use xlink:href="#DejaVuSerif-53"/>
        <use x="63.623047" xlink:href="#DejaVuSerif-48"/>
       </g>
      </g>
     </g>
     <g id="ytick_7">
      <g id="line2d_10">
       <g>
        <use style="fill:#262626;stroke:#262626;stroke-width:0.8;" x="130.130017" xlink:href="#m1e01294ab3" y="88.413479"/>
       </g>
      </g>
      <g id="text_11">
       <!-- 100 -->
       <g style="fill:#262626;" transform="translate(141.730017 91.452854)scale(0.08 -0.08)">
        <use xlink:href="#DejaVuSerif-49"/>
        <use x="63.623047" xlink:href="#DejaVuSerif-48"/>
        <use x="127.246094" xlink:href="#DejaVuSerif-48"/>
       </g>
      </g>
     </g>
     <g id="ytick_8">
      <g id="line2d_11">
       <g>
        <use style="fill:#262626;stroke:#262626;stroke-width:0.8;" x="130.130017" xlink:href="#m1e01294ab3" y="66.990081"/>
       </g>
      </g>
      <g id="text_12">
       <!-- 150 -->
       <g style="fill:#262626;" transform="translate(141.730017 70.029456)scale(0.08 -0.08)">
        <use xlink:href="#DejaVuSerif-49"/>
        <use x="63.623047" xlink:href="#DejaVuSerif-53"/>
        <use x="127.246094" xlink:href="#DejaVuSerif-48"/>
       </g>
      </g>
     </g>
     <g id="text_13">
      <!-- Median difference -->
      <g style="fill:#262626;" transform="translate(168.598454 144.440625)rotate(-90)scale(0.1 -0.1)">
       <defs>
        <path d="M 5.515625 0 
L 5.515625 5.171875 
L 14.796875 5.171875 
L 14.796875 67.671875 
L 4.984375 67.671875 
L 4.984375 72.90625 
L 26.21875 72.90625 
L 51.8125 21 
L 77.390625 72.90625 
L 97.3125 72.90625 
L 97.3125 67.671875 
L 87.59375 67.671875 
L 87.59375 5.171875 
L 96.921875 5.171875 
L 96.921875 0 
L 68.40625 0 
L 68.40625 5.171875 
L 77.6875 5.171875 
L 77.6875 61.53125 
L 52.6875 10.6875 
L 45.796875 10.6875 
L 20.796875 61.53125 
L 20.796875 5.171875 
L 30.078125 5.171875 
L 30.078125 0 
z
" id="DejaVuSerif-77"/>
        <path d="M 52.484375 5.171875 
L 61.078125 5.171875 
L 61.078125 0 
L 43.5 0 
L 43.5 8.109375 
Q 40.875 3.21875 36.796875 0.890625 
Q 32.71875 -1.421875 26.703125 -1.421875 
Q 17.140625 -1.421875 11.0625 6.171875 
Q 4.984375 13.765625 4.984375 25.984375 
Q 4.984375 38.1875 11.03125 45.75 
Q 17.09375 53.328125 26.703125 53.328125 
Q 32.71875 53.328125 36.796875 51 
Q 40.875 48.6875 43.5 43.796875 
L 43.5 70.796875 
L 35.015625 70.796875 
L 35.015625 75.984375 
L 52.484375 75.984375 
z
M 43.5 23.390625 
L 43.5 28.515625 
Q 43.5 37.84375 39.90625 42.765625 
Q 36.328125 47.703125 29.5 47.703125 
Q 22.5625 47.703125 19.015625 42.234375 
Q 15.484375 36.765625 15.484375 25.984375 
Q 15.484375 15.234375 19.015625 9.71875 
Q 22.5625 4.203125 29.5 4.203125 
Q 36.328125 4.203125 39.90625 9.109375 
Q 43.5 14.015625 43.5 23.390625 
z
" id="DejaVuSerif-100"/>
       </defs>
       <use xlink:href="#DejaVuSerif-77"/>
       <use x="102.392578" xlink:href="#DejaVuSerif-101"/>
       <use x="161.572266" xlink:href="#DejaVuSerif-100"/>
       <use x="225.585938" xlink:href="#DejaVuSerif-105"/>
       <use x="257.568359" xlink:href="#DejaVuSerif-97"/>
       <use x="317.1875" xlink:href="#DejaVuSerif-110"/>
       <use x="381.591797" xlink:href="#DejaVuSerif-32"/>
       <use x="413.378906" xlink:href="#DejaVuSerif-100"/>
       <use x="477.392578" xlink:href="#DejaVuSerif-105"/>
       <use x="509.375" xlink:href="#DejaVuSerif-102"/>
       <use x="546.386719" xlink:href="#DejaVuSerif-102"/>
       <use x="583.398438" xlink:href="#DejaVuSerif-101"/>
       <use x="642.578125" xlink:href="#DejaVuSerif-114"/>
       <use x="690.380859" xlink:href="#DejaVuSerif-101"/>
       <use x="749.560547" xlink:href="#DejaVuSerif-110"/>
       <use x="813.964844" xlink:href="#DejaVuSerif-99"/>
       <use x="869.970703" xlink:href="#DejaVuSerif-101"/>
      </g>
     </g>
    </g>
    <g id="PolyCollection_1">
     <defs>
      <path d="M 118.370105 -129.158877 
L 118.361844 -129.158877 
L 118.361844 -130.588668 
L 118.361844 -132.018459 
L 118.361844 -133.448251 
L 118.361844 -134.878042 
L 118.361844 -136.307834 
L 118.361844 -137.737625 
L 118.361844 -139.167417 
L 118.361844 -140.597208 
L 118.361844 -142.027 
L 118.361844 -143.456791 
L 118.361844 -144.886583 
L 118.361844 -146.316374 
L 118.361844 -147.746166 
L 118.361844 -149.175957 
L 118.361844 -150.605749 
L 118.361844 -152.03554 
L 118.361844 -153.465332 
L 118.361844 -154.895123 
L 118.361844 -156.324915 
L 118.361844 -157.754706 
L 118.361844 -159.184498 
L 118.361844 -160.614289 
L 118.361844 -162.044081 
L 118.361844 -163.473872 
L 118.361844 -164.903664 
L 118.361844 -166.333455 
L 118.361844 -167.763247 
L 118.361844 -169.193038 
L 118.361844 -170.622829 
L 118.361844 -172.052621 
L 118.361844 -173.482412 
L 118.361844 -174.912204 
L 118.361844 -176.341995 
L 118.361844 -177.771787 
L 118.361844 -179.201578 
L 118.361844 -180.63137 
L 118.361844 -182.061161 
L 118.361844 -183.490953 
L 118.361844 -184.920744 
L 118.361844 -186.350536 
L 118.361844 -187.780327 
L 118.361844 -189.210119 
L 118.361844 -190.63991 
L 118.361844 -192.069702 
L 118.361844 -193.499493 
L 118.361844 -194.929285 
L 118.361844 -196.359076 
L 118.361844 -197.788868 
L 118.361844 -199.218659 
L 118.361844 -200.648451 
L 118.361844 -202.078242 
L 118.361844 -203.508034 
L 118.361844 -204.937825 
L 118.361844 -206.367616 
L 118.361844 -207.797408 
L 118.361844 -209.227199 
L 118.361844 -210.656991 
L 118.361844 -212.086782 
L 118.361844 -213.516574 
L 118.361844 -214.946365 
L 118.361844 -216.376157 
L 118.361844 -217.805948 
L 118.361844 -219.23574 
L 118.361844 -220.665531 
L 118.361844 -222.095323 
L 118.361844 -223.525114 
L 118.361844 -224.954906 
L 118.361844 -226.384697 
L 118.361844 -227.814489 
L 118.361844 -229.24428 
L 118.361844 -230.674072 
L 118.361844 -232.103863 
L 118.361844 -233.533655 
L 118.361844 -234.963446 
L 118.361844 -236.393238 
L 118.361844 -237.823029 
L 118.361844 -239.252821 
L 118.361844 -240.682612 
L 118.361844 -242.112403 
L 118.361844 -243.542195 
L 118.361844 -244.971986 
L 118.361844 -246.401778 
L 118.361844 -247.831569 
L 118.361844 -249.261361 
L 118.361844 -250.691152 
L 118.361844 -252.120944 
L 118.361844 -253.550735 
L 118.361844 -254.980527 
L 118.361844 -256.410318 
L 118.361844 -257.84011 
L 118.361844 -259.269901 
L 118.361844 -260.699693 
L 118.361844 -262.129484 
L 118.361844 -263.559276 
L 118.361844 -264.989067 
L 118.361844 -266.418859 
L 118.361844 -267.84865 
L 118.361844 -269.278442 
L 118.361844 -270.708233 
L 118.479018 -270.708233 
L 118.479018 -270.708233 
L 118.601548 -269.278442 
L 118.835755 -267.84865 
L 119.249586 -266.418859 
L 119.90997 -264.989067 
L 120.842399 -263.559276 
L 121.977587 -262.129484 
L 123.116701 -260.699693 
L 123.962969 -259.269901 
L 124.245596 -257.84011 
L 123.887526 -256.410318 
L 123.095724 -254.980527 
L 122.274537 -253.550735 
L 121.793225 -252.120944 
L 121.765524 -250.691152 
L 122.002104 -249.261361 
L 122.17284 -247.831569 
L 122.061946 -246.401778 
L 121.726965 -244.971986 
L 121.441411 -243.542195 
L 121.466371 -242.112403 
L 121.828777 -240.682612 
L 122.278502 -239.252821 
L 122.458749 -237.823029 
L 122.156877 -236.393238 
L 121.438599 -234.963446 
L 120.572691 -233.533655 
L 119.834526 -232.103863 
L 119.35809 -230.674072 
L 119.125266 -229.24428 
L 119.050828 -227.814489 
L 119.069751 -226.384697 
L 119.168777 -224.954906 
L 119.360073 -223.525114 
L 119.629321 -222.095323 
L 119.902696 -220.665531 
L 120.066231 -219.23574 
L 120.031071 -217.805948 
L 119.793109 -216.376157 
L 119.43502 -214.946365 
L 119.071618 -213.516574 
L 118.788681 -212.086782 
L 118.619256 -210.656991 
L 118.558574 -209.227199 
L 118.5909 -207.797408 
L 118.705715 -206.367616 
L 118.895696 -204.937825 
L 119.140072 -203.508034 
L 119.38746 -202.078242 
L 119.559994 -200.648451 
L 119.588581 -199.218659 
L 119.457167 -197.788868 
L 119.216204 -196.359076 
L 118.950533 -194.929285 
L 118.729863 -193.499493 
L 118.581604 -192.069702 
L 118.497634 -190.63991 
L 118.456452 -189.210119 
L 118.43924 -187.780327 
L 118.433916 -186.350536 
L 118.433015 -184.920744 
L 118.431645 -183.490953 
L 118.427288 -182.061161 
L 118.420272 -180.63137 
L 118.413485 -179.201578 
L 118.410753 -177.771787 
L 118.414537 -176.341995 
L 118.424361 -174.912204 
L 118.437103 -173.482412 
L 118.448883 -172.052621 
L 118.45684 -170.622829 
L 118.459413 -169.193038 
L 118.45564 -167.763247 
L 118.445121 -166.333455 
L 118.428975 -164.903664 
L 118.41033 -163.473872 
L 118.393237 -162.044081 
L 118.380838 -160.614289 
L 118.374303 -159.184498 
L 118.372998 -157.754706 
L 118.375197 -156.324915 
L 118.378759 -154.895123 
L 118.381711 -153.465332 
L 118.382778 -152.03554 
L 118.381634 -150.605749 
L 118.378729 -149.175957 
L 118.374869 -147.746166 
L 118.370885 -146.316374 
L 118.367478 -144.886583 
L 118.365168 -143.456791 
L 118.364293 -142.027 
L 118.365024 -140.597208 
L 118.367306 -139.167417 
L 118.370684 -137.737625 
L 118.374207 -136.307834 
L 118.376678 -134.878042 
L 118.377241 -133.448251 
L 118.375846 -132.018459 
L 118.373169 -130.588668 
L 118.370105 -129.158877 
z
" id="m2b9f35b521"/>
     </defs>
     <g clip-path="url(#p3b231d8b0b)">
      <use style="fill:#601a4a;fill-opacity:0.8;" x="0" xlink:href="#m2b9f35b521" y="331.194078"/>
     </g>
    </g>
    <g id="LineCollection_3">
     <path clip-path="url(#p3b231d8b0b)" d="M 94.823492 131.260276 
L 130.130017 131.260276 
" style="fill:none;stroke:#262626;stroke-width:0.75;"/>
    </g>
    <g id="LineCollection_4">
     <path clip-path="url(#p3b231d8b0b)" d="M 104.238565 84.159764 
L 130.130017 84.159764 
" style="fill:none;stroke:#262626;stroke-width:0.75;"/>
    </g>
    <g id="line2d_12">
     <path clip-path="url(#p3b231d8b0b)" d="M 118.361175 84.159764 
" style="fill:none;stroke:#262626;stroke-linecap:round;stroke-width:1.4;"/>
     <defs>
      <path d="M 0 2 
C 0.530406 2 1.03916 1.789267 1.414214 1.414214 
C 1.789267 1.03916 2 0.530406 2 0 
C 2 -0.530406 1.789267 -1.03916 1.414214 -1.414214 
C 1.03916 -1.789267 0.530406 -2 0 -2 
C -0.530406 -2 -1.03916 -1.789267 -1.414214 -1.414214 
C -1.789267 -1.03916 -2 -0.530406 -2 0 
C -2 0.530406 -1.789267 1.03916 -1.414214 1.414214 
C -1.03916 1.789267 -0.530406 2 0 2 
z
" id="mebfb242b1e"/>
     </defs>
     <g clip-path="url(#p3b231d8b0b)">
      <use style="fill:#262626;" x="118.361175" xlink:href="#mebfb242b1e" y="84.159764"/>
     </g>
    </g>
    <g id="line2d_13">
     <path clip-path="url(#p3b231d8b0b)" d="M 118.361175 132.359001 
L 118.361175 69.123648 
" style="fill:none;stroke:#262626;stroke-linecap:round;stroke-width:2;"/>
    </g>
    <g id="LineCollection_5">
     <defs>
      <path d="M 111.29987 -191.878762 
L 130.130017 -191.878762 
" id="m2103e2b48a" style="stroke:#262626;"/>
     </defs>
     <g>
      <use style="fill:#262626;stroke:#262626;" x="0" xlink:href="#m2103e2b48a" y="331.194078"/>
     </g>
    </g>
    <g id="LineCollection_6">
     <defs>
      <path d="M 130.130017 -191.878762 
L 130.130017 -274.546894 
" id="m9b6a6b582e" style="stroke:#262626;"/>
     </defs>
     <g>
      <use style="fill:#262626;stroke:#262626;" x="0" xlink:href="#m9b6a6b582e" y="331.194078"/>
     </g>
    </g>
   </g>
   <g id="LineCollection_7">
    <defs>
     <path d="M 47.748125 -191.878762 
L 100.707913 -191.878762 
" id="m8b37b5f44c" style="stroke:#262626;"/>
    </defs>
    <g>
     <use style="fill:#262626;stroke:#262626;" x="0" xlink:href="#m8b37b5f44c" y="331.194078"/>
    </g>
   </g>
   <g id="LineCollection_8">
    <defs>
     <path d="M 47.748125 -191.878762 
L 47.748125 -274.546894 
" id="m094b852909" style="stroke:#262626;"/>
    </defs>
    <g>
     <use style="fill:#262626;stroke:#262626;" x="0" xlink:href="#m094b852909" y="331.194078"/>
    </g>
   </g>
  </g>
  <g id="axes_3">
   <g id="patch_2">
    <path d="M 212.511909 139.315316 
L 294.893801 139.315316 
L 294.893801 56.647184 
L 212.511909 56.647184 
z
" style="fill:#ffffff;"/>
   </g>
   <g id="matplotlib.axis_5">
    <g id="xtick_4">
     <g id="line2d_14">
      <g>
       <use style="fill:#262626;stroke:#262626;stroke-width:0.8;" x="212.511909" xlink:href="#mdaf661402a" y="139.315316"/>
      </g>
     </g>
     <g id="text_14">
      <!-- 0.0 -->
      <g style="fill:#262626;" transform="translate(206.150659 156.994066)scale(0.08 -0.08)">
       <defs>
        <path d="M 9.421875 5.078125 
Q 9.421875 7.8125 11.28125 9.71875 
Q 13.140625 11.625 15.921875 11.625 
Q 18.609375 11.625 20.5 9.71875 
Q 22.40625 7.8125 22.40625 5.078125 
Q 22.40625 2.390625 20.5 0.484375 
Q 18.609375 -1.421875 15.921875 -1.421875 
Q 13.140625 -1.421875 11.28125 0.453125 
Q 9.421875 2.34375 9.421875 5.078125 
z
" id="DejaVuSerif-46"/>
       </defs>
       <use xlink:href="#DejaVuSerif-48"/>
       <use x="63.623047" xlink:href="#DejaVuSerif-46"/>
       <use x="95.410156" xlink:href="#DejaVuSerif-48"/>
      </g>
     </g>
    </g>
    <g id="xtick_5">
     <g id="line2d_15">
      <g>
       <use style="fill:#262626;stroke:#262626;stroke-width:0.8;" x="253.702855" xlink:href="#mdaf661402a" y="139.315316"/>
      </g>
     </g>
     <g id="text_15">
      <!-- 0.5 -->
      <g style="fill:#262626;" transform="translate(247.341605 156.994066)scale(0.08 -0.08)">
       <use xlink:href="#DejaVuSerif-48"/>
       <use x="63.623047" xlink:href="#DejaVuSerif-46"/>
       <use x="95.410156" xlink:href="#DejaVuSerif-53"/>
      </g>
     </g>
    </g>
    <g id="xtick_6">
     <g id="line2d_16">
      <g>
       <use style="fill:#262626;stroke:#262626;stroke-width:0.8;" x="294.893801" xlink:href="#mdaf661402a" y="139.315316"/>
      </g>
     </g>
     <g id="text_16">
      <!-- 1.0 -->
      <g style="fill:#262626;" transform="translate(288.532551 156.994066)scale(0.08 -0.08)">
       <use xlink:href="#DejaVuSerif-49"/>
       <use x="63.623047" xlink:href="#DejaVuSerif-46"/>
       <use x="95.410156" xlink:href="#DejaVuSerif-48"/>
      </g>
     </g>
    </g>
   </g>
   <g id="matplotlib.axis_6">
    <g id="ytick_9">
     <g id="line2d_17">
      <g>
       <use style="fill:#262626;stroke:#262626;stroke-width:0.8;" x="212.511909" xlink:href="#m987972e045" y="139.315316"/>
      </g>
     </g>
     <g id="text_17">
      <!-- 0.0 -->
      <g style="fill:#262626;" transform="translate(188.189409 142.354691)scale(0.08 -0.08)">
       <use xlink:href="#DejaVuSerif-48"/>
       <use x="63.623047" xlink:href="#DejaVuSerif-46"/>
       <use x="95.410156" xlink:href="#DejaVuSerif-48"/>
      </g>
     </g>
    </g>
    <g id="ytick_10">
     <g id="line2d_18">
      <g>
       <use style="fill:#262626;stroke:#262626;stroke-width:0.8;" x="212.511909" xlink:href="#m987972e045" y="122.781689"/>
      </g>
     </g>
     <g id="text_18">
      <!-- 0.2 -->
      <g style="fill:#262626;" transform="translate(188.189409 125.821064)scale(0.08 -0.08)">
       <use xlink:href="#DejaVuSerif-48"/>
       <use x="63.623047" xlink:href="#DejaVuSerif-46"/>
       <use x="95.410156" xlink:href="#DejaVuSerif-50"/>
      </g>
     </g>
    </g>
    <g id="ytick_11">
     <g id="line2d_19">
      <g>
       <use style="fill:#262626;stroke:#262626;stroke-width:0.8;" x="212.511909" xlink:href="#m987972e045" y="106.248063"/>
      </g>
     </g>
     <g id="text_19">
      <!-- 0.4 -->
      <g style="fill:#262626;" transform="translate(188.189409 109.287438)scale(0.08 -0.08)">
       <defs>
        <path d="M 34.90625 24.703125 
L 34.90625 63.484375 
L 10.015625 24.703125 
z
M 56.390625 0 
L 23.1875 0 
L 23.1875 5.171875 
L 34.90625 5.171875 
L 34.90625 19.484375 
L 3.078125 19.484375 
L 3.078125 24.8125 
L 35.015625 74.21875 
L 44.671875 74.21875 
L 44.671875 24.703125 
L 58.59375 24.703125 
L 58.59375 19.484375 
L 44.671875 19.484375 
L 44.671875 5.171875 
L 56.390625 5.171875 
z
" id="DejaVuSerif-52"/>
       </defs>
       <use xlink:href="#DejaVuSerif-48"/>
       <use x="63.623047" xlink:href="#DejaVuSerif-46"/>
       <use x="95.410156" xlink:href="#DejaVuSerif-52"/>
      </g>
     </g>
    </g>
    <g id="ytick_12">
     <g id="line2d_20">
      <g>
       <use style="fill:#262626;stroke:#262626;stroke-width:0.8;" x="212.511909" xlink:href="#m987972e045" y="89.714437"/>
      </g>
     </g>
     <g id="text_20">
      <!-- 0.6 -->
      <g style="fill:#262626;" transform="translate(188.189409 92.753812)scale(0.08 -0.08)">
       <defs>
        <path d="M 32.71875 3.421875 
Q 39.59375 3.421875 43.296875 8.46875 
Q 47.015625 13.53125 47.015625 23 
Q 47.015625 32.46875 43.296875 37.515625 
Q 39.59375 42.578125 32.71875 42.578125 
Q 25.734375 42.578125 22.0625 37.6875 
Q 18.40625 32.8125 18.40625 23.578125 
Q 18.40625 13.875 22.109375 8.640625 
Q 25.828125 3.421875 32.71875 3.421875 
z
M 16.796875 40.140625 
Q 20.125 43.796875 24.3125 45.59375 
Q 28.515625 47.40625 33.796875 47.40625 
Q 44.671875 47.40625 51 40.859375 
Q 57.328125 34.328125 57.328125 23 
Q 57.328125 11.921875 50.515625 5.25 
Q 43.703125 -1.421875 32.328125 -1.421875 
Q 19.96875 -1.421875 13.328125 7.78125 
Q 6.6875 17 6.6875 34.078125 
Q 6.6875 53.21875 14.546875 63.71875 
Q 22.40625 74.21875 36.71875 74.21875 
Q 40.578125 74.21875 44.828125 73.484375 
Q 49.078125 72.75 53.515625 71.296875 
L 53.515625 59.28125 
L 48 59.28125 
Q 47.40625 64.203125 44.234375 66.796875 
Q 41.0625 69.390625 35.6875 69.390625 
Q 26.21875 69.390625 21.578125 62.203125 
Q 16.9375 55.03125 16.796875 40.140625 
z
" id="DejaVuSerif-54"/>
       </defs>
       <use xlink:href="#DejaVuSerif-48"/>
       <use x="63.623047" xlink:href="#DejaVuSerif-46"/>
       <use x="95.410156" xlink:href="#DejaVuSerif-54"/>
      </g>
     </g>
    </g>
    <g id="ytick_13">
     <g id="line2d_21">
      <g>
       <use style="fill:#262626;stroke:#262626;stroke-width:0.8;" x="212.511909" xlink:href="#m987972e045" y="73.180811"/>
      </g>
     </g>
     <g id="text_21">
      <!-- 0.8 -->
      <g style="fill:#262626;" transform="translate(188.189409 76.220186)scale(0.08 -0.08)">
       <defs>
        <path d="M 46.578125 19.921875 
Q 46.578125 27.734375 42.6875 32.046875 
Q 38.8125 36.375 31.78125 36.375 
Q 24.75 36.375 20.875 32.046875 
Q 17 27.734375 17 19.921875 
Q 17 12.0625 20.875 7.734375 
Q 24.75 3.421875 31.78125 3.421875 
Q 38.8125 3.421875 42.6875 7.734375 
Q 46.578125 12.0625 46.578125 19.921875 
z
M 44.578125 55.328125 
Q 44.578125 61.96875 41.203125 65.671875 
Q 37.84375 69.390625 31.78125 69.390625 
Q 25.78125 69.390625 22.390625 65.671875 
Q 19 61.96875 19 55.328125 
Q 19 48.640625 22.390625 44.921875 
Q 25.78125 41.21875 31.78125 41.21875 
Q 37.84375 41.21875 41.203125 44.921875 
Q 44.578125 48.640625 44.578125 55.328125 
z
M 39.3125 38.8125 
Q 47.609375 37.703125 52.25 32.6875 
Q 56.890625 27.6875 56.890625 19.921875 
Q 56.890625 9.671875 50.390625 4.125 
Q 43.890625 -1.421875 31.78125 -1.421875 
Q 19.734375 -1.421875 13.203125 4.125 
Q 6.6875 9.671875 6.6875 19.921875 
Q 6.6875 27.6875 11.328125 32.6875 
Q 15.96875 37.703125 24.3125 38.8125 
Q 16.9375 40.140625 13 44.40625 
Q 9.078125 48.6875 9.078125 55.328125 
Q 9.078125 64.109375 15.125 69.15625 
Q 21.1875 74.21875 31.78125 74.21875 
Q 42.390625 74.21875 48.4375 69.15625 
Q 54.5 64.109375 54.5 55.328125 
Q 54.5 48.6875 50.5625 44.40625 
Q 46.625 40.140625 39.3125 38.8125 
z
" id="DejaVuSerif-56"/>
       </defs>
       <use xlink:href="#DejaVuSerif-48"/>
       <use x="63.623047" xlink:href="#DejaVuSerif-46"/>
       <use x="95.410156" xlink:href="#DejaVuSerif-56"/>
      </g>
     </g>
    </g>
    <g id="ytick_14">
     <g id="line2d_22">
      <g>
       <use style="fill:#262626;stroke:#262626;stroke-width:0.8;" x="212.511909" xlink:href="#m987972e045" y="56.647184"/>
      </g>
     </g>
     <g id="text_22">
      <!-- 1.0 -->
      <g style="fill:#262626;" transform="translate(188.189409 59.686559)scale(0.08 -0.08)">
       <use xlink:href="#DejaVuSerif-49"/>
       <use x="63.623047" xlink:href="#DejaVuSerif-46"/>
       <use x="95.410156" xlink:href="#DejaVuSerif-48"/>
      </g>
     </g>
    </g>
   </g>
   <g id="patch_3">
    <path d="M 212.511909 139.315316 
L 212.511909 56.647184 
" style="fill:none;stroke:#262626;stroke-linecap:square;stroke-linejoin:miter;stroke-width:1.25;"/>
   </g>
   <g id="patch_4">
    <path d="M 294.893801 139.315316 
L 294.893801 56.647184 
" style="fill:none;stroke:#262626;stroke-linecap:square;stroke-linejoin:miter;stroke-width:1.25;"/>
   </g>
   <g id="patch_5">
    <path d="M 212.511909 139.315316 
L 294.893801 139.315316 
" style="fill:none;stroke:#262626;stroke-linecap:square;stroke-linejoin:miter;stroke-width:1.25;"/>
   </g>
   <g id="patch_6">
    <path d="M 212.511909 56.647184 
L 294.893801 56.647184 
" style="fill:none;stroke:#262626;stroke-linecap:square;stroke-linejoin:miter;stroke-width:1.25;"/>
   </g>
  </g>
  <g id="axes_4">
   <g id="patch_7">
    <path d="M 377.275693 139.315316 
L 459.657585 139.315316 
L 459.657585 56.647184 
L 377.275693 56.647184 
z
" style="fill:#ffffff;"/>
   </g>
   <g id="matplotlib.axis_7">
    <g id="xtick_7">
     <g id="line2d_23">
      <g>
       <use style="fill:#262626;stroke:#262626;stroke-width:0.8;" x="377.275693" xlink:href="#mdaf661402a" y="139.315316"/>
      </g>
     </g>
     <g id="text_23">
      <!-- 0.0 -->
      <g style="fill:#262626;" transform="translate(370.914443 156.994066)scale(0.08 -0.08)">
       <use xlink:href="#DejaVuSerif-48"/>
       <use x="63.623047" xlink:href="#DejaVuSerif-46"/>
       <use x="95.410156" xlink:href="#DejaVuSerif-48"/>
      </g>
     </g>
    </g>
    <g id="xtick_8">
     <g id="line2d_24">
      <g>
       <use style="fill:#262626;stroke:#262626;stroke-width:0.8;" x="418.466639" xlink:href="#mdaf661402a" y="139.315316"/>
      </g>
     </g>
     <g id="text_24">
      <!-- 0.5 -->
      <g style="fill:#262626;" transform="translate(412.105389 156.994066)scale(0.08 -0.08)">
       <use xlink:href="#DejaVuSerif-48"/>
       <use x="63.623047" xlink:href="#DejaVuSerif-46"/>
       <use x="95.410156" xlink:href="#DejaVuSerif-53"/>
      </g>
     </g>
    </g>
    <g id="xtick_9">
     <g id="line2d_25">
      <g>
       <use style="fill:#262626;stroke:#262626;stroke-width:0.8;" x="459.657585" xlink:href="#mdaf661402a" y="139.315316"/>
      </g>
     </g>
     <g id="text_25">
      <!-- 1.0 -->
      <g style="fill:#262626;" transform="translate(453.296335 156.994066)scale(0.08 -0.08)">
       <use xlink:href="#DejaVuSerif-49"/>
       <use x="63.623047" xlink:href="#DejaVuSerif-46"/>
       <use x="95.410156" xlink:href="#DejaVuSerif-48"/>
      </g>
     </g>
    </g>
   </g>
   <g id="matplotlib.axis_8">
    <g id="ytick_15">
     <g id="line2d_26">
      <g>
       <use style="fill:#262626;stroke:#262626;stroke-width:0.8;" x="377.275693" xlink:href="#m987972e045" y="139.315316"/>
      </g>
     </g>
     <g id="text_26">
      <!-- 0.0 -->
      <g style="fill:#262626;" transform="translate(352.953193 142.354691)scale(0.08 -0.08)">
       <use xlink:href="#DejaVuSerif-48"/>
       <use x="63.623047" xlink:href="#DejaVuSerif-46"/>
       <use x="95.410156" xlink:href="#DejaVuSerif-48"/>
      </g>
     </g>
    </g>
    <g id="ytick_16">
     <g id="line2d_27">
      <g>
       <use style="fill:#262626;stroke:#262626;stroke-width:0.8;" x="377.275693" xlink:href="#m987972e045" y="122.781689"/>
      </g>
     </g>
     <g id="text_27">
      <!-- 0.2 -->
      <g style="fill:#262626;" transform="translate(352.953193 125.821064)scale(0.08 -0.08)">
       <use xlink:href="#DejaVuSerif-48"/>
       <use x="63.623047" xlink:href="#DejaVuSerif-46"/>
       <use x="95.410156" xlink:href="#DejaVuSerif-50"/>
      </g>
     </g>
    </g>
    <g id="ytick_17">
     <g id="line2d_28">
      <g>
       <use style="fill:#262626;stroke:#262626;stroke-width:0.8;" x="377.275693" xlink:href="#m987972e045" y="106.248063"/>
      </g>
     </g>
     <g id="text_28">
      <!-- 0.4 -->
      <g style="fill:#262626;" transform="translate(352.953193 109.287438)scale(0.08 -0.08)">
       <use xlink:href="#DejaVuSerif-48"/>
       <use x="63.623047" xlink:href="#DejaVuSerif-46"/>
       <use x="95.410156" xlink:href="#DejaVuSerif-52"/>
      </g>
     </g>
    </g>
    <g id="ytick_18">
     <g id="line2d_29">
      <g>
       <use style="fill:#262626;stroke:#262626;stroke-width:0.8;" x="377.275693" xlink:href="#m987972e045" y="89.714437"/>
      </g>
     </g>
     <g id="text_29">
      <!-- 0.6 -->
      <g style="fill:#262626;" transform="translate(352.953193 92.753812)scale(0.08 -0.08)">
       <use xlink:href="#DejaVuSerif-48"/>
       <use x="63.623047" xlink:href="#DejaVuSerif-46"/>
       <use x="95.410156" xlink:href="#DejaVuSerif-54"/>
      </g>
     </g>
    </g>
    <g id="ytick_19">
     <g id="line2d_30">
      <g>
       <use style="fill:#262626;stroke:#262626;stroke-width:0.8;" x="377.275693" xlink:href="#m987972e045" y="73.180811"/>
      </g>
     </g>
     <g id="text_30">
      <!-- 0.8 -->
      <g style="fill:#262626;" transform="translate(352.953193 76.220186)scale(0.08 -0.08)">
       <use xlink:href="#DejaVuSerif-48"/>
       <use x="63.623047" xlink:href="#DejaVuSerif-46"/>
       <use x="95.410156" xlink:href="#DejaVuSerif-56"/>
      </g>
     </g>
    </g>
    <g id="ytick_20">
     <g id="line2d_31">
      <g>
       <use style="fill:#262626;stroke:#262626;stroke-width:0.8;" x="377.275693" xlink:href="#m987972e045" y="56.647184"/>
      </g>
     </g>
     <g id="text_31">
      <!-- 1.0 -->
      <g style="fill:#262626;" transform="translate(352.953193 59.686559)scale(0.08 -0.08)">
       <use xlink:href="#DejaVuSerif-49"/>
       <use x="63.623047" xlink:href="#DejaVuSerif-46"/>
       <use x="95.410156" xlink:href="#DejaVuSerif-48"/>
      </g>
     </g>
    </g>
   </g>
   <g id="patch_8">
    <path d="M 377.275693 139.315316 
L 377.275693 56.647184 
" style="fill:none;stroke:#262626;stroke-linecap:square;stroke-linejoin:miter;stroke-width:1.25;"/>
   </g>
   <g id="patch_9">
    <path d="M 459.657585 139.315316 
L 459.657585 56.647184 
" style="fill:none;stroke:#262626;stroke-linecap:square;stroke-linejoin:miter;stroke-width:1.25;"/>
   </g>
   <g id="patch_10">
    <path d="M 377.275693 139.315316 
L 459.657585 139.315316 
" style="fill:none;stroke:#262626;stroke-linecap:square;stroke-linejoin:miter;stroke-width:1.25;"/>
   </g>
   <g id="patch_11">
    <path d="M 377.275693 56.647184 
L 459.657585 56.647184 
" style="fill:none;stroke:#262626;stroke-linecap:square;stroke-linejoin:miter;stroke-width:1.25;"/>
   </g>
  </g>
  <g id="axes_5">
   <g id="patch_12">
    <path d="M 47.748125 304.651578 
L 130.130017 304.651578 
L 130.130017 221.983447 
L 47.748125 221.983447 
z
" style="fill:#ffffff;"/>
   </g>
   <g id="matplotlib.axis_9">
    <g id="xtick_10">
     <g id="line2d_32">
      <g>
       <use style="fill:#262626;stroke:#262626;stroke-width:0.8;" x="47.748125" xlink:href="#mdaf661402a" y="304.651578"/>
      </g>
     </g>
     <g id="text_32">
      <!-- 0.0 -->
      <g style="fill:#262626;" transform="translate(41.386875 322.330328)scale(0.08 -0.08)">
       <use xlink:href="#DejaVuSerif-48"/>
       <use x="63.623047" xlink:href="#DejaVuSerif-46"/>
       <use x="95.410156" xlink:href="#DejaVuSerif-48"/>
      </g>
     </g>
    </g>
    <g id="xtick_11">
     <g id="line2d_33">
      <g>
       <use style="fill:#262626;stroke:#262626;stroke-width:0.8;" x="88.939071" xlink:href="#mdaf661402a" y="304.651578"/>
      </g>
     </g>
     <g id="text_33">
      <!-- 0.5 -->
      <g style="fill:#262626;" transform="translate(82.577821 322.330328)scale(0.08 -0.08)">
       <use xlink:href="#DejaVuSerif-48"/>
       <use x="63.623047" xlink:href="#DejaVuSerif-46"/>
       <use x="95.410156" xlink:href="#DejaVuSerif-53"/>
      </g>
     </g>
    </g>
    <g id="xtick_12">
     <g id="line2d_34">
      <g>
       <use style="fill:#262626;stroke:#262626;stroke-width:0.8;" x="130.130017" xlink:href="#mdaf661402a" y="304.651578"/>
      </g>
     </g>
     <g id="text_34">
      <!-- 1.0 -->
      <g style="fill:#262626;" transform="translate(123.768767 322.330328)scale(0.08 -0.08)">
       <use xlink:href="#DejaVuSerif-49"/>
       <use x="63.623047" xlink:href="#DejaVuSerif-46"/>
       <use x="95.410156" xlink:href="#DejaVuSerif-48"/>
      </g>
     </g>
    </g>
   </g>
   <g id="matplotlib.axis_10">
    <g id="ytick_21">
     <g id="line2d_35">
      <g>
       <use style="fill:#262626;stroke:#262626;stroke-width:0.8;" x="47.748125" xlink:href="#m987972e045" y="304.651578"/>
      </g>
     </g>
     <g id="text_35">
      <!-- 0.0 -->
      <g style="fill:#262626;" transform="translate(23.425625 307.690953)scale(0.08 -0.08)">
       <use xlink:href="#DejaVuSerif-48"/>
       <use x="63.623047" xlink:href="#DejaVuSerif-46"/>
       <use x="95.410156" xlink:href="#DejaVuSerif-48"/>
      </g>
     </g>
    </g>
    <g id="ytick_22">
     <g id="line2d_36">
      <g>
       <use style="fill:#262626;stroke:#262626;stroke-width:0.8;" x="47.748125" xlink:href="#m987972e045" y="288.117952"/>
      </g>
     </g>
     <g id="text_36">
      <!-- 0.2 -->
      <g style="fill:#262626;" transform="translate(23.425625 291.157327)scale(0.08 -0.08)">
       <use xlink:href="#DejaVuSerif-48"/>
       <use x="63.623047" xlink:href="#DejaVuSerif-46"/>
       <use x="95.410156" xlink:href="#DejaVuSerif-50"/>
      </g>
     </g>
    </g>
    <g id="ytick_23">
     <g id="line2d_37">
      <g>
       <use style="fill:#262626;stroke:#262626;stroke-width:0.8;" x="47.748125" xlink:href="#m987972e045" y="271.584326"/>
      </g>
     </g>
     <g id="text_37">
      <!-- 0.4 -->
      <g style="fill:#262626;" transform="translate(23.425625 274.623701)scale(0.08 -0.08)">
       <use xlink:href="#DejaVuSerif-48"/>
       <use x="63.623047" xlink:href="#DejaVuSerif-46"/>
       <use x="95.410156" xlink:href="#DejaVuSerif-52"/>
      </g>
     </g>
    </g>
    <g id="ytick_24">
     <g id="line2d_38">
      <g>
       <use style="fill:#262626;stroke:#262626;stroke-width:0.8;" x="47.748125" xlink:href="#m987972e045" y="255.050699"/>
      </g>
     </g>
     <g id="text_38">
      <!-- 0.6 -->
      <g style="fill:#262626;" transform="translate(23.425625 258.090074)scale(0.08 -0.08)">
       <use xlink:href="#DejaVuSerif-48"/>
       <use x="63.623047" xlink:href="#DejaVuSerif-46"/>
       <use x="95.410156" xlink:href="#DejaVuSerif-54"/>
      </g>
     </g>
    </g>
    <g id="ytick_25">
     <g id="line2d_39">
      <g>
       <use style="fill:#262626;stroke:#262626;stroke-width:0.8;" x="47.748125" xlink:href="#m987972e045" y="238.517073"/>
      </g>
     </g>
     <g id="text_39">
      <!-- 0.8 -->
      <g style="fill:#262626;" transform="translate(23.425625 241.556448)scale(0.08 -0.08)">
       <use xlink:href="#DejaVuSerif-48"/>
       <use x="63.623047" xlink:href="#DejaVuSerif-46"/>
       <use x="95.410156" xlink:href="#DejaVuSerif-56"/>
      </g>
     </g>
    </g>
    <g id="ytick_26">
     <g id="line2d_40">
      <g>
       <use style="fill:#262626;stroke:#262626;stroke-width:0.8;" x="47.748125" xlink:href="#m987972e045" y="221.983447"/>
      </g>
     </g>
     <g id="text_40">
      <!-- 1.0 -->
      <g style="fill:#262626;" transform="translate(23.425625 225.022822)scale(0.08 -0.08)">
       <use xlink:href="#DejaVuSerif-49"/>
       <use x="63.623047" xlink:href="#DejaVuSerif-46"/>
       <use x="95.410156" xlink:href="#DejaVuSerif-48"/>
      </g>
     </g>
    </g>
   </g>
   <g id="patch_13">
    <path d="M 47.748125 304.651578 
L 47.748125 221.983447 
" style="fill:none;stroke:#262626;stroke-linecap:square;stroke-linejoin:miter;stroke-width:1.25;"/>
   </g>
   <g id="patch_14">
    <path d="M 130.130017 304.651578 
L 130.130017 221.983447 
" style="fill:none;stroke:#262626;stroke-linecap:square;stroke-linejoin:miter;stroke-width:1.25;"/>
   </g>
   <g id="patch_15">
    <path d="M 47.748125 304.651578 
L 130.130017 304.651578 
" style="fill:none;stroke:#262626;stroke-linecap:square;stroke-linejoin:miter;stroke-width:1.25;"/>
   </g>
   <g id="patch_16">
    <path d="M 47.748125 221.983447 
L 130.130017 221.983447 
" style="fill:none;stroke:#262626;stroke-linecap:square;stroke-linejoin:miter;stroke-width:1.25;"/>
   </g>
  </g>
  <g id="axes_6">
   <g id="patch_17">
    <path d="M 212.511909 304.651578 
L 294.893801 304.651578 
L 294.893801 221.983447 
L 212.511909 221.983447 
z
" style="fill:#ffffff;"/>
   </g>
   <g id="matplotlib.axis_11">
    <g id="xtick_13">
     <g id="line2d_41">
      <g>
       <use style="fill:#262626;stroke:#262626;stroke-width:0.8;" x="212.511909" xlink:href="#mdaf661402a" y="304.651578"/>
      </g>
     </g>
     <g id="text_41">
      <!-- 0.0 -->
      <g style="fill:#262626;" transform="translate(206.150659 322.330328)scale(0.08 -0.08)">
       <use xlink:href="#DejaVuSerif-48"/>
       <use x="63.623047" xlink:href="#DejaVuSerif-46"/>
       <use x="95.410156" xlink:href="#DejaVuSerif-48"/>
      </g>
     </g>
    </g>
    <g id="xtick_14">
     <g id="line2d_42">
      <g>
       <use style="fill:#262626;stroke:#262626;stroke-width:0.8;" x="253.702855" xlink:href="#mdaf661402a" y="304.651578"/>
      </g>
     </g>
     <g id="text_42">
      <!-- 0.5 -->
      <g style="fill:#262626;" transform="translate(247.341605 322.330328)scale(0.08 -0.08)">
       <use xlink:href="#DejaVuSerif-48"/>
       <use x="63.623047" xlink:href="#DejaVuSerif-46"/>
       <use x="95.410156" xlink:href="#DejaVuSerif-53"/>
      </g>
     </g>
    </g>
    <g id="xtick_15">
     <g id="line2d_43">
      <g>
       <use style="fill:#262626;stroke:#262626;stroke-width:0.8;" x="294.893801" xlink:href="#mdaf661402a" y="304.651578"/>
      </g>
     </g>
     <g id="text_43">
      <!-- 1.0 -->
      <g style="fill:#262626;" transform="translate(288.532551 322.330328)scale(0.08 -0.08)">
       <use xlink:href="#DejaVuSerif-49"/>
       <use x="63.623047" xlink:href="#DejaVuSerif-46"/>
       <use x="95.410156" xlink:href="#DejaVuSerif-48"/>
      </g>
     </g>
    </g>
   </g>
   <g id="matplotlib.axis_12">
    <g id="ytick_27">
     <g id="line2d_44">
      <g>
       <use style="fill:#262626;stroke:#262626;stroke-width:0.8;" x="212.511909" xlink:href="#m987972e045" y="304.651578"/>
      </g>
     </g>
     <g id="text_44">
      <!-- 0.0 -->
      <g style="fill:#262626;" transform="translate(188.189409 307.690953)scale(0.08 -0.08)">
       <use xlink:href="#DejaVuSerif-48"/>
       <use x="63.623047" xlink:href="#DejaVuSerif-46"/>
       <use x="95.410156" xlink:href="#DejaVuSerif-48"/>
      </g>
     </g>
    </g>
    <g id="ytick_28">
     <g id="line2d_45">
      <g>
       <use style="fill:#262626;stroke:#262626;stroke-width:0.8;" x="212.511909" xlink:href="#m987972e045" y="288.117952"/>
      </g>
     </g>
     <g id="text_45">
      <!-- 0.2 -->
      <g style="fill:#262626;" transform="translate(188.189409 291.157327)scale(0.08 -0.08)">
       <use xlink:href="#DejaVuSerif-48"/>
       <use x="63.623047" xlink:href="#DejaVuSerif-46"/>
       <use x="95.410156" xlink:href="#DejaVuSerif-50"/>
      </g>
     </g>
    </g>
    <g id="ytick_29">
     <g id="line2d_46">
      <g>
       <use style="fill:#262626;stroke:#262626;stroke-width:0.8;" x="212.511909" xlink:href="#m987972e045" y="271.584326"/>
      </g>
     </g>
     <g id="text_46">
      <!-- 0.4 -->
      <g style="fill:#262626;" transform="translate(188.189409 274.623701)scale(0.08 -0.08)">
       <use xlink:href="#DejaVuSerif-48"/>
       <use x="63.623047" xlink:href="#DejaVuSerif-46"/>
       <use x="95.410156" xlink:href="#DejaVuSerif-52"/>
      </g>
     </g>
    </g>
    <g id="ytick_30">
     <g id="line2d_47">
      <g>
       <use style="fill:#262626;stroke:#262626;stroke-width:0.8;" x="212.511909" xlink:href="#m987972e045" y="255.050699"/>
      </g>
     </g>
     <g id="text_47">
      <!-- 0.6 -->
      <g style="fill:#262626;" transform="translate(188.189409 258.090074)scale(0.08 -0.08)">
       <use xlink:href="#DejaVuSerif-48"/>
       <use x="63.623047" xlink:href="#DejaVuSerif-46"/>
       <use x="95.410156" xlink:href="#DejaVuSerif-54"/>
      </g>
     </g>
    </g>
    <g id="ytick_31">
     <g id="line2d_48">
      <g>
       <use style="fill:#262626;stroke:#262626;stroke-width:0.8;" x="212.511909" xlink:href="#m987972e045" y="238.517073"/>
      </g>
     </g>
     <g id="text_48">
      <!-- 0.8 -->
      <g style="fill:#262626;" transform="translate(188.189409 241.556448)scale(0.08 -0.08)">
       <use xlink:href="#DejaVuSerif-48"/>
       <use x="63.623047" xlink:href="#DejaVuSerif-46"/>
       <use x="95.410156" xlink:href="#DejaVuSerif-56"/>
      </g>
     </g>
    </g>
    <g id="ytick_32">
     <g id="line2d_49">
      <g>
       <use style="fill:#262626;stroke:#262626;stroke-width:0.8;" x="212.511909" xlink:href="#m987972e045" y="221.983447"/>
      </g>
     </g>
     <g id="text_49">
      <!-- 1.0 -->
      <g style="fill:#262626;" transform="translate(188.189409 225.022822)scale(0.08 -0.08)">
       <use xlink:href="#DejaVuSerif-49"/>
       <use x="63.623047" xlink:href="#DejaVuSerif-46"/>
       <use x="95.410156" xlink:href="#DejaVuSerif-48"/>
      </g>
     </g>
    </g>
   </g>
   <g id="patch_18">
    <path d="M 212.511909 304.651578 
L 212.511909 221.983447 
" style="fill:none;stroke:#262626;stroke-linecap:square;stroke-linejoin:miter;stroke-width:1.25;"/>
   </g>
   <g id="patch_19">
    <path d="M 294.893801 304.651578 
L 294.893801 221.983447 
" style="fill:none;stroke:#262626;stroke-linecap:square;stroke-linejoin:miter;stroke-width:1.25;"/>
   </g>
   <g id="patch_20">
    <path d="M 212.511909 304.651578 
L 294.893801 304.651578 
" style="fill:none;stroke:#262626;stroke-linecap:square;stroke-linejoin:miter;stroke-width:1.25;"/>
   </g>
   <g id="patch_21">
    <path d="M 212.511909 221.983447 
L 294.893801 221.983447 
" style="fill:none;stroke:#262626;stroke-linecap:square;stroke-linejoin:miter;stroke-width:1.25;"/>
   </g>
  </g>
  <g id="axes_7">
   <g id="patch_22">
    <path d="M 377.275693 304.651578 
L 459.657585 304.651578 
L 459.657585 221.983447 
L 377.275693 221.983447 
z
" style="fill:#ffffff;"/>
   </g>
   <g id="matplotlib.axis_13">
    <g id="xtick_16">
     <g id="line2d_50">
      <g>
       <use style="fill:#262626;stroke:#262626;stroke-width:0.8;" x="377.275693" xlink:href="#mdaf661402a" y="304.651578"/>
      </g>
     </g>
     <g id="text_50">
      <!-- 0.0 -->
      <g style="fill:#262626;" transform="translate(370.914443 322.330328)scale(0.08 -0.08)">
       <use xlink:href="#DejaVuSerif-48"/>
       <use x="63.623047" xlink:href="#DejaVuSerif-46"/>
       <use x="95.410156" xlink:href="#DejaVuSerif-48"/>
      </g>
     </g>
    </g>
    <g id="xtick_17">
     <g id="line2d_51">
      <g>
       <use style="fill:#262626;stroke:#262626;stroke-width:0.8;" x="418.466639" xlink:href="#mdaf661402a" y="304.651578"/>
      </g>
     </g>
     <g id="text_51">
      <!-- 0.5 -->
      <g style="fill:#262626;" transform="translate(412.105389 322.330328)scale(0.08 -0.08)">
       <use xlink:href="#DejaVuSerif-48"/>
       <use x="63.623047" xlink:href="#DejaVuSerif-46"/>
       <use x="95.410156" xlink:href="#DejaVuSerif-53"/>
      </g>
     </g>
    </g>
    <g id="xtick_18">
     <g id="line2d_52">
      <g>
       <use style="fill:#262626;stroke:#262626;stroke-width:0.8;" x="459.657585" xlink:href="#mdaf661402a" y="304.651578"/>
      </g>
     </g>
     <g id="text_52">
      <!-- 1.0 -->
      <g style="fill:#262626;" transform="translate(453.296335 322.330328)scale(0.08 -0.08)">
       <use xlink:href="#DejaVuSerif-49"/>
       <use x="63.623047" xlink:href="#DejaVuSerif-46"/>
       <use x="95.410156" xlink:href="#DejaVuSerif-48"/>
      </g>
     </g>
    </g>
   </g>
   <g id="matplotlib.axis_14">
    <g id="ytick_33">
     <g id="line2d_53">
      <g>
       <use style="fill:#262626;stroke:#262626;stroke-width:0.8;" x="377.275693" xlink:href="#m987972e045" y="304.651578"/>
      </g>
     </g>
     <g id="text_53">
      <!-- 0.0 -->
      <g style="fill:#262626;" transform="translate(352.953193 307.690953)scale(0.08 -0.08)">
       <use xlink:href="#DejaVuSerif-48"/>
       <use x="63.623047" xlink:href="#DejaVuSerif-46"/>
       <use x="95.410156" xlink:href="#DejaVuSerif-48"/>
      </g>
     </g>
    </g>
    <g id="ytick_34">
     <g id="line2d_54">
      <g>
       <use style="fill:#262626;stroke:#262626;stroke-width:0.8;" x="377.275693" xlink:href="#m987972e045" y="288.117952"/>
      </g>
     </g>
     <g id="text_54">
      <!-- 0.2 -->
      <g style="fill:#262626;" transform="translate(352.953193 291.157327)scale(0.08 -0.08)">
       <use xlink:href="#DejaVuSerif-48"/>
       <use x="63.623047" xlink:href="#DejaVuSerif-46"/>
       <use x="95.410156" xlink:href="#DejaVuSerif-50"/>
      </g>
     </g>
    </g>
    <g id="ytick_35">
     <g id="line2d_55">
      <g>
       <use style="fill:#262626;stroke:#262626;stroke-width:0.8;" x="377.275693" xlink:href="#m987972e045" y="271.584326"/>
      </g>
     </g>
     <g id="text_55">
      <!-- 0.4 -->
      <g style="fill:#262626;" transform="translate(352.953193 274.623701)scale(0.08 -0.08)">
       <use xlink:href="#DejaVuSerif-48"/>
       <use x="63.623047" xlink:href="#DejaVuSerif-46"/>
       <use x="95.410156" xlink:href="#DejaVuSerif-52"/>
      </g>
     </g>
    </g>
    <g id="ytick_36">
     <g id="line2d_56">
      <g>
       <use style="fill:#262626;stroke:#262626;stroke-width:0.8;" x="377.275693" xlink:href="#m987972e045" y="255.050699"/>
      </g>
     </g>
     <g id="text_56">
      <!-- 0.6 -->
      <g style="fill:#262626;" transform="translate(352.953193 258.090074)scale(0.08 -0.08)">
       <use xlink:href="#DejaVuSerif-48"/>
       <use x="63.623047" xlink:href="#DejaVuSerif-46"/>
       <use x="95.410156" xlink:href="#DejaVuSerif-54"/>
      </g>
     </g>
    </g>
    <g id="ytick_37">
     <g id="line2d_57">
      <g>
       <use style="fill:#262626;stroke:#262626;stroke-width:0.8;" x="377.275693" xlink:href="#m987972e045" y="238.517073"/>
      </g>
     </g>
     <g id="text_57">
      <!-- 0.8 -->
      <g style="fill:#262626;" transform="translate(352.953193 241.556448)scale(0.08 -0.08)">
       <use xlink:href="#DejaVuSerif-48"/>
       <use x="63.623047" xlink:href="#DejaVuSerif-46"/>
       <use x="95.410156" xlink:href="#DejaVuSerif-56"/>
      </g>
     </g>
    </g>
    <g id="ytick_38">
     <g id="line2d_58">
      <g>
       <use style="fill:#262626;stroke:#262626;stroke-width:0.8;" x="377.275693" xlink:href="#m987972e045" y="221.983447"/>
      </g>
     </g>
     <g id="text_58">
      <!-- 1.0 -->
      <g style="fill:#262626;" transform="translate(352.953193 225.022822)scale(0.08 -0.08)">
       <use xlink:href="#DejaVuSerif-49"/>
       <use x="63.623047" xlink:href="#DejaVuSerif-46"/>
       <use x="95.410156" xlink:href="#DejaVuSerif-48"/>
      </g>
     </g>
    </g>
   </g>
   <g id="patch_23">
    <path d="M 377.275693 304.651578 
L 377.275693 221.983447 
" style="fill:none;stroke:#262626;stroke-linecap:square;stroke-linejoin:miter;stroke-width:1.25;"/>
   </g>
   <g id="patch_24">
    <path d="M 459.657585 304.651578 
L 459.657585 221.983447 
" style="fill:none;stroke:#262626;stroke-linecap:square;stroke-linejoin:miter;stroke-width:1.25;"/>
   </g>
   <g id="patch_25">
    <path d="M 377.275693 304.651578 
L 459.657585 304.651578 
" style="fill:none;stroke:#262626;stroke-linecap:square;stroke-linejoin:miter;stroke-width:1.25;"/>
   </g>
   <g id="patch_26">
    <path d="M 377.275693 221.983447 
L 459.657585 221.983447 
" style="fill:none;stroke:#262626;stroke-linecap:square;stroke-linejoin:miter;stroke-width:1.25;"/>
   </g>
  </g>
 </g>
 <defs>
  <clipPath id="p054fee41fa">
   <rect height="82.668131" width="58.844209" x="47.748125" y="56.647184"/>
  </clipPath>
  <clipPath id="p3b231d8b0b">
   <rect height="82.668131" width="23.537683" x="106.592334" y="56.647184"/>
  </clipPath>
 </defs>
</svg>
