<?xml version="1.0" encoding="utf-8" standalone="no"?>
<!DOCTYPE svg PUBLIC "-//W3C//DTD SVG 1.1//EN"
  "http://www.w3.org/Graphics/SVG/1.1/DTD/svg11.dtd">
<!-- Created with matplotlib (https://matplotlib.org/) -->
<svg height="139.452441pt" version="1.1" viewBox="0 0 473.218835 139.452441" width="473.218835pt" xmlns="http://www.w3.org/2000/svg" xmlns:xlink="http://www.w3.org/1999/xlink">
 <metadata>
  <rdf:RDF xmlns:cc="http://creativecommons.org/ns#" xmlns:dc="http://purl.org/dc/elements/1.1/" xmlns:rdf="http://www.w3.org/1999/02/22-rdf-syntax-ns#">
   <cc:Work>
    <dc:type rdf:resource="http://purl.org/dc/dcmitype/StillImage"/>
    <dc:date>2021-01-23T15:31:42.716355</dc:date>
    <dc:format>image/svg+xml</dc:format>
    <dc:creator>
     <cc:Agent>
      <dc:title>Matplotlib v3.3.2, https://matplotlib.org/</dc:title>
     </cc:Agent>
    </dc:creator>
   </cc:Work>
  </rdf:RDF>
 </metadata>
 <defs>
  <style type="text/css">*{stroke-linecap:butt;stroke-linejoin:round;}</style>
 </defs>
 <g id="figure_1">
  <g id="patch_1">
   <path d="M 0 139.452441 
L 473.218835 139.452441 
L 473.218835 0 
L 0 0 
z
" style="fill:#ffffff;"/>
  </g>
  <g id="axes_1">
   <g id="matplotlib.axis_1">
    <g id="xtick_1">
     <g id="line2d_1">
      <defs>
       <path d="M 0 0 
L 0 6 
" id="mdb55994ccf" style="stroke:#262626;stroke-width:0.8;"/>
      </defs>
      <g>
       <use style="fill:#262626;stroke:#262626;stroke-width:0.8;" x="62.459177" xlink:href="#mdb55994ccf" y="94.993441"/>
      </g>
     </g>
     <g id="text_1">
      <!-- Wt -->
      <g style="fill:#262626;" transform="translate(56.740427 112.672191)scale(0.08 -0.08)">
       <defs>
        <path d="M 76.21875 0 
L 68.21875 0 
L 51.515625 59.28125 
L 34.8125 0 
L 26.8125 0 
L 7.71875 67.671875 
L 0.484375 67.671875 
L 0.484375 72.90625 
L 27.09375 72.90625 
L 27.09375 67.671875 
L 18.015625 67.671875 
L 33.203125 13.8125 
L 49.8125 72.90625 
L 57.71875 72.90625 
L 74.609375 13.1875 
L 89.890625 67.671875 
L 81.5 67.671875 
L 81.5 72.90625 
L 102.484375 72.90625 
L 102.484375 67.671875 
L 95.3125 67.671875 
z
" id="DejaVuSerif-87"/>
        <path d="M 10.796875 46.6875 
L 2.875 46.6875 
L 2.875 51.90625 
L 10.796875 51.90625 
L 10.796875 68.015625 
L 19.828125 68.015625 
L 19.828125 51.90625 
L 36.71875 51.90625 
L 36.71875 46.6875 
L 19.828125 46.6875 
L 19.828125 13.71875 
Q 19.828125 7.125 21.09375 5.265625 
Q 22.359375 3.421875 25.78125 3.421875 
Q 29.296875 3.421875 30.90625 5.484375 
Q 32.515625 7.5625 32.625 12.203125 
L 39.40625 12.203125 
Q 39.015625 5.125 35.546875 1.84375 
Q 32.078125 -1.421875 25 -1.421875 
Q 17.234375 -1.421875 14.015625 2.015625 
Q 10.796875 5.46875 10.796875 13.71875 
z
" id="DejaVuSerif-116"/>
       </defs>
       <use xlink:href="#DejaVuSerif-87"/>
       <use x="102.783203" xlink:href="#DejaVuSerif-116"/>
      </g>
      <!-- N = 12 -->
      <g style="fill:#262626;" transform="translate(47.974802 121.630441)scale(0.08 -0.08)">
       <defs>
        <path d="M 4.890625 0 
L 4.890625 5.171875 
L 14.703125 5.171875 
L 14.703125 67.671875 
L 4.890625 67.671875 
L 4.890625 72.90625 
L 23.578125 72.90625 
L 67.28125 15.375 
L 67.28125 67.671875 
L 57.515625 67.671875 
L 57.515625 72.90625 
L 83.109375 72.90625 
L 83.109375 67.671875 
L 73.296875 67.671875 
L 73.296875 -1.421875 
L 67.390625 -1.421875 
L 20.703125 60.015625 
L 20.703125 5.171875 
L 30.515625 5.171875 
L 30.515625 0 
z
" id="DejaVuSerif-78"/>
        <path id="DejaVuSerif-32"/>
        <path d="M 10.59375 45.21875 
L 73.1875 45.21875 
L 73.1875 37.40625 
L 10.59375 37.40625 
z
M 10.59375 25.296875 
L 73.1875 25.296875 
L 73.1875 17.484375 
L 10.59375 17.484375 
z
" id="DejaVuSerif-61"/>
        <path d="M 14.203125 0 
L 14.203125 5.171875 
L 26.90625 5.171875 
L 26.90625 65.828125 
L 12.203125 56.296875 
L 12.203125 62.703125 
L 29.984375 74.21875 
L 36.71875 74.21875 
L 36.71875 5.171875 
L 49.421875 5.171875 
L 49.421875 0 
z
" id="DejaVuSerif-49"/>
        <path d="M 12.796875 55.515625 
L 7.328125 55.515625 
L 7.328125 68.5 
Q 12.546875 71.296875 17.84375 72.75 
Q 23.140625 74.21875 28.21875 74.21875 
Q 39.59375 74.21875 46.1875 68.703125 
Q 52.78125 63.1875 52.78125 53.71875 
Q 52.78125 43.015625 37.84375 28.125 
Q 36.671875 27 36.078125 26.421875 
L 17.671875 8.015625 
L 48.09375 8.015625 
L 48.09375 17 
L 53.8125 17 
L 53.8125 0 
L 6.78125 0 
L 6.78125 5.328125 
L 28.90625 27.390625 
Q 36.234375 34.71875 39.359375 40.84375 
Q 42.484375 46.96875 42.484375 53.71875 
Q 42.484375 61.078125 38.640625 65.234375 
Q 34.8125 69.390625 28.078125 69.390625 
Q 21.09375 69.390625 17.28125 65.921875 
Q 13.484375 62.453125 12.796875 55.515625 
z
" id="DejaVuSerif-50"/>
       </defs>
       <use xlink:href="#DejaVuSerif-78"/>
       <use x="87.5" xlink:href="#DejaVuSerif-32"/>
       <use x="119.287109" xlink:href="#DejaVuSerif-61"/>
       <use x="203.076172" xlink:href="#DejaVuSerif-32"/>
       <use x="234.863281" xlink:href="#DejaVuSerif-49"/>
       <use x="298.486328" xlink:href="#DejaVuSerif-50"/>
      </g>
     </g>
    </g>
    <g id="xtick_2">
     <g id="line2d_2">
      <g>
       <use style="fill:#262626;stroke:#262626;stroke-width:0.8;" x="91.881281" xlink:href="#mdb55994ccf" y="94.993441"/>
      </g>
     </g>
     <g id="text_2">
      <!-- Tg -->
      <g style="fill:#262626;" transform="translate(86.652531 112.558441)scale(0.08 -0.08)">
       <defs>
        <path d="M 19.09375 0 
L 19.09375 5.171875 
L 28.421875 5.171875 
L 28.421875 67.09375 
L 6.984375 67.09375 
L 6.984375 55.71875 
L 0.984375 55.71875 
L 0.984375 72.90625 
L 65.71875 72.90625 
L 65.71875 55.71875 
L 59.71875 55.71875 
L 59.71875 67.09375 
L 38.28125 67.09375 
L 38.28125 5.171875 
L 47.609375 5.171875 
L 47.609375 0 
z
" id="DejaVuSerif-84"/>
        <path d="M 52.484375 46.6875 
L 52.484375 1.125 
Q 52.484375 -10.0625 46.328125 -16.140625 
Q 40.1875 -22.21875 28.8125 -22.21875 
Q 23.6875 -22.21875 19 -21.28125 
Q 14.3125 -20.359375 10.015625 -18.5 
L 10.015625 -7.625 
L 14.703125 -7.625 
Q 15.578125 -12.703125 18.84375 -15.046875 
Q 22.125 -17.390625 28.21875 -17.390625 
Q 36.140625 -17.390625 39.8125 -12.921875 
Q 43.5 -8.453125 43.5 1.125 
L 43.5 8.109375 
Q 40.875 3.21875 36.796875 0.890625 
Q 32.71875 -1.421875 26.703125 -1.421875 
Q 17.140625 -1.421875 11.0625 6.171875 
Q 4.984375 13.765625 4.984375 25.984375 
Q 4.984375 38.1875 11.03125 45.75 
Q 17.09375 53.328125 26.703125 53.328125 
Q 32.71875 53.328125 36.796875 51 
Q 40.875 48.6875 43.5 43.796875 
L 43.5 51.90625 
L 61.078125 51.90625 
L 61.078125 46.6875 
z
M 43.5 28.515625 
Q 43.5 37.84375 39.90625 42.765625 
Q 36.328125 47.703125 29.5 47.703125 
Q 22.5625 47.703125 19.015625 42.234375 
Q 15.484375 36.765625 15.484375 25.984375 
Q 15.484375 15.234375 19.015625 9.71875 
Q 22.5625 4.203125 29.5 4.203125 
Q 36.328125 4.203125 39.90625 9.109375 
Q 43.5 14.015625 43.5 23.390625 
z
" id="DejaVuSerif-103"/>
       </defs>
       <use xlink:href="#DejaVuSerif-84"/>
       <use x="66.699219" xlink:href="#DejaVuSerif-103"/>
      </g>
      <!-- N = 12 -->
      <g style="fill:#262626;" transform="translate(77.396906 121.630441)scale(0.08 -0.08)">
       <use xlink:href="#DejaVuSerif-78"/>
       <use x="87.5" xlink:href="#DejaVuSerif-32"/>
       <use x="119.287109" xlink:href="#DejaVuSerif-61"/>
       <use x="203.076172" xlink:href="#DejaVuSerif-32"/>
       <use x="234.863281" xlink:href="#DejaVuSerif-49"/>
       <use x="298.486328" xlink:href="#DejaVuSerif-50"/>
      </g>
     </g>
    </g>
   </g>
   <g id="matplotlib.axis_2">
    <g id="ytick_1">
     <g id="line2d_3">
      <defs>
       <path d="M 0 0 
L -6 0 
" id="m0337516d9e" style="stroke:#262626;stroke-width:0.8;"/>
      </defs>
      <g>
       <use style="fill:#262626;stroke:#262626;stroke-width:0.8;" x="47.748125" xlink:href="#m0337516d9e" y="93.666031"/>
      </g>
     </g>
     <g id="text_3">
      <!-- 0 -->
      <g style="fill:#262626;" transform="translate(31.058125 96.705406)scale(0.08 -0.08)">
       <defs>
        <path d="M 31.78125 3.421875 
Q 39.265625 3.421875 42.96875 11.625 
Q 46.6875 19.828125 46.6875 36.375 
Q 46.6875 52.984375 42.96875 61.1875 
Q 39.265625 69.390625 31.78125 69.390625 
Q 24.3125 69.390625 20.59375 61.1875 
Q 16.890625 52.984375 16.890625 36.375 
Q 16.890625 19.828125 20.59375 11.625 
Q 24.3125 3.421875 31.78125 3.421875 
z
M 31.78125 -1.421875 
Q 19.921875 -1.421875 13.25 8.53125 
Q 6.59375 18.5 6.59375 36.375 
Q 6.59375 54.296875 13.25 64.25 
Q 19.921875 74.21875 31.78125 74.21875 
Q 43.703125 74.21875 50.34375 64.25 
Q 56.984375 54.296875 56.984375 36.375 
Q 56.984375 18.5 50.34375 8.53125 
Q 43.703125 -1.421875 31.78125 -1.421875 
z
" id="DejaVuSerif-48"/>
       </defs>
       <use xlink:href="#DejaVuSerif-48"/>
      </g>
     </g>
    </g>
    <g id="ytick_2">
     <g id="line2d_4">
      <g>
       <use style="fill:#262626;stroke:#262626;stroke-width:0.8;" x="47.748125" xlink:href="#m0337516d9e" y="72.688478"/>
      </g>
     </g>
     <g id="text_4">
      <!-- 50 -->
      <g style="fill:#262626;" transform="translate(25.968125 75.727853)scale(0.08 -0.08)">
       <defs>
        <path d="M 50.296875 72.90625 
L 50.296875 64.890625 
L 16.890625 64.890625 
L 16.890625 44 
Q 19.4375 45.75 22.828125 46.625 
Q 26.21875 47.515625 30.421875 47.515625 
Q 42.234375 47.515625 49.0625 40.96875 
Q 55.90625 34.421875 55.90625 23.09375 
Q 55.90625 11.53125 49 5.046875 
Q 42.09375 -1.421875 29.59375 -1.421875 
Q 24.5625 -1.421875 19.28125 -0.1875 
Q 14.015625 1.03125 8.5 3.515625 
L 8.5 17.671875 
L 14.015625 17.671875 
Q 14.453125 10.75 18.421875 7.078125 
Q 22.40625 3.421875 29.59375 3.421875 
Q 37.3125 3.421875 41.453125 8.5 
Q 45.609375 13.578125 45.609375 23.09375 
Q 45.609375 32.5625 41.484375 37.609375 
Q 37.359375 42.671875 29.59375 42.671875 
Q 25.203125 42.671875 21.84375 41.109375 
Q 18.5 39.546875 15.921875 36.28125 
L 11.71875 36.28125 
L 11.71875 72.90625 
z
" id="DejaVuSerif-53"/>
       </defs>
       <use xlink:href="#DejaVuSerif-53"/>
       <use x="63.623047" xlink:href="#DejaVuSerif-48"/>
      </g>
     </g>
    </g>
    <g id="ytick_3">
     <g id="line2d_5">
      <g>
       <use style="fill:#262626;stroke:#262626;stroke-width:0.8;" x="47.748125" xlink:href="#m0337516d9e" y="51.710925"/>
      </g>
     </g>
     <g id="text_5">
      <!-- 100 -->
      <g style="fill:#262626;" transform="translate(20.878125 54.7503)scale(0.08 -0.08)">
       <use xlink:href="#DejaVuSerif-49"/>
       <use x="63.623047" xlink:href="#DejaVuSerif-48"/>
       <use x="127.246094" xlink:href="#DejaVuSerif-48"/>
      </g>
     </g>
    </g>
    <g id="ytick_4">
     <g id="line2d_6">
      <g>
       <use style="fill:#262626;stroke:#262626;stroke-width:0.8;" x="47.748125" xlink:href="#m0337516d9e" y="30.733372"/>
      </g>
     </g>
     <g id="text_6">
      <!-- 150 -->
      <g style="fill:#262626;" transform="translate(20.878125 33.772747)scale(0.08 -0.08)">
       <use xlink:href="#DejaVuSerif-49"/>
       <use x="63.623047" xlink:href="#DejaVuSerif-53"/>
       <use x="127.246094" xlink:href="#DejaVuSerif-48"/>
      </g>
     </g>
    </g>
    <g id="text_7">
     <!-- Distance (cm) -->
     <g style="fill:#262626;" transform="translate(14.798438 88.835156)rotate(-90)scale(0.1 -0.1)">
      <defs>
       <path d="M 24.703125 5.171875 
L 33.796875 5.171875 
Q 48 5.171875 55.59375 13.28125 
Q 63.1875 21.390625 63.1875 36.53125 
Q 63.1875 51.65625 55.609375 59.65625 
Q 48.046875 67.671875 33.796875 67.671875 
L 24.703125 67.671875 
z
M 5.515625 0 
L 5.515625 5.171875 
L 14.796875 5.171875 
L 14.796875 67.671875 
L 5.515625 67.671875 
L 5.515625 72.90625 
L 34.515625 72.90625 
Q 53.375 72.90625 63.890625 63.28125 
Q 74.421875 53.65625 74.421875 36.53125 
Q 74.421875 19.34375 63.875 9.671875 
Q 53.328125 0 34.515625 0 
z
" id="DejaVuSerif-68"/>
       <path d="M 9.71875 68.015625 
Q 9.71875 70.265625 11.34375 71.921875 
Q 12.984375 73.578125 15.28125 73.578125 
Q 17.53125 73.578125 19.15625 71.921875 
Q 20.796875 70.265625 20.796875 68.015625 
Q 20.796875 65.71875 19.1875 64.109375 
Q 17.578125 62.5 15.28125 62.5 
Q 12.984375 62.5 11.34375 64.109375 
Q 9.71875 65.71875 9.71875 68.015625 
z
M 21.1875 5.171875 
L 29.6875 5.171875 
L 29.6875 0 
L 3.609375 0 
L 3.609375 5.171875 
L 12.203125 5.171875 
L 12.203125 46.6875 
L 3.609375 46.6875 
L 3.609375 51.90625 
L 21.1875 51.90625 
z
" id="DejaVuSerif-105"/>
       <path d="M 5.609375 2.875 
L 5.609375 14.984375 
L 10.796875 14.984375 
Q 10.984375 9.1875 14.421875 6.296875 
Q 17.875 3.421875 24.609375 3.421875 
Q 30.671875 3.421875 33.84375 5.6875 
Q 37.015625 7.953125 37.015625 12.3125 
Q 37.015625 15.71875 34.6875 17.8125 
Q 32.375 19.921875 24.90625 22.3125 
L 18.40625 24.515625 
Q 11.71875 26.65625 8.71875 29.875 
Q 5.71875 33.109375 5.71875 38.09375 
Q 5.71875 45.21875 10.9375 49.265625 
Q 16.15625 53.328125 25.390625 53.328125 
Q 29.5 53.328125 34.03125 52.25 
Q 38.578125 51.171875 43.40625 49.125 
L 43.40625 37.796875 
L 38.234375 37.796875 
Q 38.03125 42.828125 34.703125 45.65625 
Q 31.390625 48.484375 25.6875 48.484375 
Q 20.015625 48.484375 17.109375 46.484375 
Q 14.203125 44.484375 14.203125 40.484375 
Q 14.203125 37.203125 16.40625 35.21875 
Q 18.609375 33.25 25.203125 31.203125 
L 32.328125 29 
Q 39.703125 26.703125 42.9375 23.265625 
Q 46.1875 19.828125 46.1875 14.40625 
Q 46.1875 7.03125 40.546875 2.796875 
Q 34.90625 -1.421875 25 -1.421875 
Q 19.96875 -1.421875 15.1875 -0.34375 
Q 10.40625 0.734375 5.609375 2.875 
z
" id="DejaVuSerif-115"/>
       <path d="M 39.796875 16.3125 
L 39.796875 27.296875 
L 28.21875 27.296875 
Q 21.53125 27.296875 18.25 24.40625 
Q 14.984375 21.53125 14.984375 15.578125 
Q 14.984375 10.15625 18.296875 6.984375 
Q 21.625 3.8125 27.296875 3.8125 
Q 32.90625 3.8125 36.34375 7.28125 
Q 39.796875 10.75 39.796875 16.3125 
z
M 48.78125 32.421875 
L 48.78125 5.171875 
L 56.78125 5.171875 
L 56.78125 0 
L 39.796875 0 
L 39.796875 5.609375 
Q 36.8125 2 32.90625 0.28125 
Q 29 -1.421875 23.78125 -1.421875 
Q 15.140625 -1.421875 10.0625 3.171875 
Q 4.984375 7.765625 4.984375 15.578125 
Q 4.984375 23.640625 10.796875 28.078125 
Q 16.609375 32.515625 27.203125 32.515625 
L 39.796875 32.515625 
L 39.796875 36.078125 
Q 39.796875 42 36.203125 45.234375 
Q 32.625 48.484375 26.125 48.484375 
Q 20.75 48.484375 17.578125 46.046875 
Q 14.40625 43.609375 13.625 38.8125 
L 8.984375 38.8125 
L 8.984375 49.3125 
Q 13.671875 51.3125 18.09375 52.3125 
Q 22.515625 53.328125 26.703125 53.328125 
Q 37.5 53.328125 43.140625 47.96875 
Q 48.78125 42.625 48.78125 32.421875 
z
" id="DejaVuSerif-97"/>
       <path d="M 4.109375 0 
L 4.109375 5.171875 
L 12.203125 5.171875 
L 12.203125 46.6875 
L 3.609375 46.6875 
L 3.609375 51.90625 
L 21.1875 51.90625 
L 21.1875 42.671875 
Q 23.6875 47.953125 27.65625 50.640625 
Q 31.640625 53.328125 36.921875 53.328125 
Q 45.515625 53.328125 49.5625 48.390625 
Q 53.609375 43.453125 53.609375 33.015625 
L 53.609375 5.171875 
L 61.625 5.171875 
L 61.625 0 
L 36.8125 0 
L 36.8125 5.171875 
L 44.578125 5.171875 
L 44.578125 30.171875 
Q 44.578125 39.703125 42.234375 43.234375 
Q 39.890625 46.78125 33.984375 46.78125 
Q 27.734375 46.78125 24.453125 42.203125 
Q 21.1875 37.640625 21.1875 28.90625 
L 21.1875 5.171875 
L 29 5.171875 
L 29 0 
z
" id="DejaVuSerif-110"/>
       <path d="M 51.421875 15.578125 
Q 49.515625 7.28125 44.09375 2.921875 
Q 38.671875 -1.421875 30.078125 -1.421875 
Q 18.75 -1.421875 11.859375 6.078125 
Q 4.984375 13.578125 4.984375 25.984375 
Q 4.984375 38.421875 11.859375 45.875 
Q 18.75 53.328125 30.078125 53.328125 
Q 35.015625 53.328125 39.890625 52.171875 
Q 44.78125 51.03125 49.703125 48.6875 
L 49.703125 35.40625 
L 44.484375 35.40625 
Q 43.453125 42.234375 40.015625 45.359375 
Q 36.578125 48.484375 30.171875 48.484375 
Q 22.90625 48.484375 19.1875 42.84375 
Q 15.484375 37.203125 15.484375 25.984375 
Q 15.484375 14.75 19.171875 9.078125 
Q 22.859375 3.421875 30.171875 3.421875 
Q 35.984375 3.421875 39.453125 6.4375 
Q 42.921875 9.46875 44.1875 15.578125 
z
" id="DejaVuSerif-99"/>
       <path d="M 54.203125 25 
L 15.484375 25 
L 15.484375 24.609375 
Q 15.484375 14.109375 19.4375 8.765625 
Q 23.390625 3.421875 31.109375 3.421875 
Q 37.015625 3.421875 40.796875 6.515625 
Q 44.578125 9.625 46.09375 15.71875 
L 53.328125 15.71875 
Q 51.171875 7.171875 45.375 2.875 
Q 39.59375 -1.421875 30.171875 -1.421875 
Q 18.796875 -1.421875 11.890625 6.078125 
Q 4.984375 13.578125 4.984375 25.984375 
Q 4.984375 38.28125 11.765625 45.796875 
Q 18.5625 53.328125 29.59375 53.328125 
Q 41.359375 53.328125 47.65625 46.0625 
Q 53.953125 38.8125 54.203125 25 
z
M 43.609375 30.171875 
Q 43.3125 39.265625 39.765625 43.875 
Q 36.234375 48.484375 29.59375 48.484375 
Q 23.390625 48.484375 19.828125 43.84375 
Q 16.265625 39.203125 15.484375 30.171875 
z
" id="DejaVuSerif-101"/>
       <path d="M 31.890625 -15.578125 
Q 20.015625 -10.25 13.953125 1.296875 
Q 7.90625 12.84375 7.90625 30.171875 
Q 7.90625 47.5625 13.953125 59.109375 
Q 20.015625 70.65625 31.890625 75.984375 
L 31.890625 71.1875 
Q 24.359375 66.015625 21.09375 56.609375 
Q 17.828125 47.21875 17.828125 30.171875 
Q 17.828125 13.1875 21.09375 3.78125 
Q 24.359375 -5.609375 31.890625 -10.796875 
z
" id="DejaVuSerif-40"/>
       <path d="M 51.8125 41.796875 
Q 54.390625 47.515625 58.421875 50.421875 
Q 62.453125 53.328125 67.828125 53.328125 
Q 75.984375 53.328125 79.984375 48.265625 
Q 83.984375 43.21875 83.984375 33.015625 
L 83.984375 5.171875 
L 92.09375 5.171875 
L 92.09375 0 
L 67.1875 0 
L 67.1875 5.171875 
L 75 5.171875 
L 75 31.984375 
Q 75 39.9375 72.65625 43.3125 
Q 70.3125 46.6875 64.890625 46.6875 
Q 58.890625 46.6875 55.734375 42.140625 
Q 52.59375 37.59375 52.59375 28.90625 
L 52.59375 5.171875 
L 60.40625 5.171875 
L 60.40625 0 
L 35.796875 0 
L 35.796875 5.171875 
L 43.609375 5.171875 
L 43.609375 32.328125 
Q 43.609375 40.09375 41.265625 43.390625 
Q 38.921875 46.6875 33.5 46.6875 
Q 27.484375 46.6875 24.328125 42.140625 
Q 21.1875 37.59375 21.1875 28.90625 
L 21.1875 5.171875 
L 29 5.171875 
L 29 0 
L 4.109375 0 
L 4.109375 5.171875 
L 12.203125 5.171875 
L 12.203125 46.78125 
L 3.609375 46.78125 
L 3.609375 51.90625 
L 21.1875 51.90625 
L 21.1875 42.671875 
Q 23.6875 47.859375 27.53125 50.59375 
Q 31.390625 53.328125 36.28125 53.328125 
Q 42.328125 53.328125 46.375 50.3125 
Q 50.4375 47.3125 51.8125 41.796875 
z
" id="DejaVuSerif-109"/>
       <path d="M 7.078125 -15.578125 
L 7.078125 -10.796875 
Q 14.59375 -5.609375 17.890625 3.78125 
Q 21.1875 13.1875 21.1875 30.171875 
Q 21.1875 47.21875 17.890625 56.609375 
Q 14.59375 66.015625 7.078125 71.1875 
L 7.078125 75.984375 
Q 19 70.65625 25.046875 59.109375 
Q 31.109375 47.5625 31.109375 30.171875 
Q 31.109375 12.84375 25.046875 1.296875 
Q 19 -10.25 7.078125 -15.578125 
z
" id="DejaVuSerif-41"/>
      </defs>
      <use xlink:href="#DejaVuSerif-68"/>
      <use x="80.175781" xlink:href="#DejaVuSerif-105"/>
      <use x="112.158203" xlink:href="#DejaVuSerif-115"/>
      <use x="163.476562" xlink:href="#DejaVuSerif-116"/>
      <use x="203.662109" xlink:href="#DejaVuSerif-97"/>
      <use x="263.28125" xlink:href="#DejaVuSerif-110"/>
      <use x="327.685547" xlink:href="#DejaVuSerif-99"/>
      <use x="383.691406" xlink:href="#DejaVuSerif-101"/>
      <use x="442.871094" xlink:href="#DejaVuSerif-32"/>
      <use x="474.658203" xlink:href="#DejaVuSerif-40"/>
      <use x="513.671875" xlink:href="#DejaVuSerif-99"/>
      <use x="569.677734" xlink:href="#DejaVuSerif-109"/>
      <use x="664.501953" xlink:href="#DejaVuSerif-41"/>
     </g>
    </g>
   </g>
   <g id="PathCollection_1">
    <defs>
     <path d="M 0 1.5 
C 0.397805 1.5 0.77937 1.341951 1.06066 1.06066 
C 1.341951 0.77937 1.5 0.397805 1.5 -0 
C 1.5 -0.397805 1.341951 -0.77937 1.06066 -1.06066 
C 0.77937 -1.341951 0.397805 -1.5 0 -1.5 
C -0.397805 -1.5 -0.77937 -1.341951 -1.06066 -1.06066 
C -1.341951 -0.77937 -1.5 -0.397805 -1.5 0 
C -1.5 0.397805 -1.341951 0.77937 -1.06066 1.06066 
C -0.77937 1.341951 -0.397805 1.5 0 1.5 
z
" id="C0_0_7d833c444c"/>
    </defs>
    <g clip-path="url(#p9842a8c1b4)">
     <use style="fill:#a2a3af;" x="62.459177" xlink:href="#C0_0_7d833c444c" y="86.478368"/>
    </g>
    <g clip-path="url(#p9842a8c1b4)">
     <use style="fill:#a2a3af;" x="60.070877" xlink:href="#C0_0_7d833c444c" y="84.522269"/>
    </g>
    <g clip-path="url(#p9842a8c1b4)">
     <use style="fill:#a2a3af;" x="62.459177" xlink:href="#C0_0_7d833c444c" y="81.028521"/>
    </g>
    <g clip-path="url(#p9842a8c1b4)">
     <use style="fill:#a2a3af;" x="59.330584" xlink:href="#C0_0_7d833c444c" y="80.679362"/>
    </g>
    <g clip-path="url(#p9842a8c1b4)">
     <use style="fill:#a2a3af;" x="62.459177" xlink:href="#C0_0_7d833c444c" y="71.521285"/>
    </g>
    <g clip-path="url(#p9842a8c1b4)">
     <use style="fill:#a2a3af;" x="62.459177" xlink:href="#C0_0_7d833c444c" y="65.630749"/>
    </g>
    <g clip-path="url(#p9842a8c1b4)">
     <use style="fill:#a2a3af;" x="62.459177" xlink:href="#C0_0_7d833c444c" y="24.123473"/>
    </g>
    <g clip-path="url(#p9842a8c1b4)">
     <use style="fill:#a2a3af;" x="60.240689" xlink:href="#C0_0_7d833c444c" y="21.993712"/>
    </g>
    <g clip-path="url(#p9842a8c1b4)">
     <use style="fill:#a2a3af;" x="63.908385" xlink:href="#C0_0_7d833c444c" y="21.459819"/>
    </g>
    <g clip-path="url(#p9842a8c1b4)">
     <use style="fill:#a2a3af;" x="62.459177" xlink:href="#C0_0_7d833c444c" y="17.096081"/>
    </g>
    <g clip-path="url(#p9842a8c1b4)">
     <use style="fill:#a2a3af;" x="59.320728" xlink:href="#C0_0_7d833c444c" y="16.839398"/>
    </g>
    <g clip-path="url(#p9842a8c1b4)">
     <use style="fill:#a2a3af;" x="65.424116" xlink:href="#C0_0_7d833c444c" y="16.082952"/>
    </g>
   </g>
   <g id="PathCollection_2">
    <defs>
     <path d="M 0 1.5 
C 0.397805 1.5 0.77937 1.341951 1.06066 1.06066 
C 1.341951 0.77937 1.5 0.397805 1.5 -0 
C 1.5 -0.397805 1.341951 -0.77937 1.06066 -1.06066 
C 0.77937 -1.341951 0.397805 -1.5 0 -1.5 
C -0.397805 -1.5 -0.77937 -1.341951 -1.06066 -1.06066 
C -1.341951 -0.77937 -1.5 -0.397805 -1.5 0 
C -1.5 0.397805 -1.341951 0.77937 -1.06066 1.06066 
C -0.77937 1.341951 -0.397805 1.5 0 1.5 
z
" id="C1_0_e353b44c8c"/>
    </defs>
    <g clip-path="url(#p9842a8c1b4)">
     <use style="fill:#4e2c43;" x="91.881281" xlink:href="#C1_0_e353b44c8c" y="91.235798"/>
    </g>
    <g clip-path="url(#p9842a8c1b4)">
     <use style="fill:#4e2c43;" x="88.914322" xlink:href="#C1_0_e353b44c8c" y="90.22805"/>
    </g>
    <g clip-path="url(#p9842a8c1b4)">
     <use style="fill:#4e2c43;" x="91.881281" xlink:href="#C1_0_e353b44c8c" y="88.029077"/>
    </g>
    <g clip-path="url(#p9842a8c1b4)">
     <use style="fill:#4e2c43;" x="91.881281" xlink:href="#C1_0_e353b44c8c" y="81.316486"/>
    </g>
    <g clip-path="url(#p9842a8c1b4)">
     <use style="fill:#4e2c43;" x="90.168332" xlink:href="#C1_0_e353b44c8c" y="78.798829"/>
    </g>
    <g clip-path="url(#p9842a8c1b4)">
     <use style="fill:#4e2c43;" x="91.881281" xlink:href="#C1_0_e353b44c8c" y="75.185893"/>
    </g>
    <g clip-path="url(#p9842a8c1b4)">
     <use style="fill:#4e2c43;" x="90.326628" xlink:href="#C1_0_e353b44c8c" y="72.576725"/>
    </g>
    <g clip-path="url(#p9842a8c1b4)">
     <use style="fill:#4e2c43;" x="91.881281" xlink:href="#C1_0_e353b44c8c" y="60.129893"/>
    </g>
    <g clip-path="url(#p9842a8c1b4)">
     <use style="fill:#4e2c43;" x="91.881281" xlink:href="#C1_0_e353b44c8c" y="44.038049"/>
    </g>
    <g clip-path="url(#p9842a8c1b4)">
     <use style="fill:#4e2c43;" x="91.881281" xlink:href="#C1_0_e353b44c8c" y="28.070203"/>
    </g>
    <g clip-path="url(#p9842a8c1b4)">
     <use style="fill:#4e2c43;" x="91.881281" xlink:href="#C1_0_e353b44c8c" y="22.465671"/>
    </g>
    <g clip-path="url(#p9842a8c1b4)">
     <use style="fill:#4e2c43;" x="89.244091" xlink:href="#C1_0_e353b44c8c" y="20.824996"/>
    </g>
   </g>
   <g id="LineCollection_1">
    <path clip-path="url(#p9842a8c1b4)" d="M 62.459177 44.877111 
L 106.592334 44.877111 
" style="fill:none;stroke:#262626;stroke-width:0.75;"/>
   </g>
   <g id="LineCollection_2">
    <path clip-path="url(#p9842a8c1b4)" d="M 91.881281 73.881309 
L 106.592334 73.881309 
" style="fill:none;stroke:#262626;stroke-width:0.75;"/>
   </g>
   <g id="axes_2">
    <g id="matplotlib.axis_3">
     <g id="xtick_3">
      <g id="line2d_7">
       <g>
        <use style="fill:#262626;stroke:#262626;stroke-width:0.8;" x="118.361175" xlink:href="#mdb55994ccf" y="94.993441"/>
       </g>
      </g>
      <g id="text_8">
       <!-- Tg -->
       <g style="fill:#262626;" transform="translate(113.132425 112.558441)scale(0.08 -0.08)">
        <use xlink:href="#DejaVuSerif-84"/>
        <use x="66.699219" xlink:href="#DejaVuSerif-103"/>
       </g>
       <!-- minus -->
       <g style="fill:#262626;" transform="translate(106.083675 121.630441)scale(0.08 -0.08)">
        <defs>
         <path d="M 35.40625 51.90625 
L 52.203125 51.90625 
L 52.203125 5.171875 
L 60.6875 5.171875 
L 60.6875 0 
L 43.21875 0 
L 43.21875 9.1875 
Q 40.71875 4 36.765625 1.28125 
Q 32.8125 -1.421875 27.59375 -1.421875 
Q 18.953125 -1.421875 14.875 3.484375 
Q 10.796875 8.40625 10.796875 18.890625 
L 10.796875 46.6875 
L 2.6875 46.6875 
L 2.6875 51.90625 
L 19.828125 51.90625 
L 19.828125 21.6875 
Q 19.828125 12.203125 22.140625 8.6875 
Q 24.46875 5.171875 30.421875 5.171875 
Q 36.671875 5.171875 39.9375 9.765625 
Q 43.21875 14.359375 43.21875 23.09375 
L 43.21875 46.6875 
L 35.40625 46.6875 
z
" id="DejaVuSerif-117"/>
        </defs>
        <use xlink:href="#DejaVuSerif-109"/>
        <use x="94.824219" xlink:href="#DejaVuSerif-105"/>
        <use x="126.806641" xlink:href="#DejaVuSerif-110"/>
        <use x="191.210938" xlink:href="#DejaVuSerif-117"/>
        <use x="255.615234" xlink:href="#DejaVuSerif-115"/>
       </g>
       <!-- Wt -->
       <g style="fill:#262626;" transform="translate(112.642425 130.588691)scale(0.08 -0.08)">
        <use xlink:href="#DejaVuSerif-87"/>
        <use x="102.783203" xlink:href="#DejaVuSerif-116"/>
       </g>
      </g>
     </g>
    </g>
    <g id="matplotlib.axis_4">
     <g id="ytick_5">
      <g id="line2d_8">
       <defs>
        <path d="M 0 0 
L 6 0 
" id="m833b743a70" style="stroke:#262626;stroke-width:0.8;"/>
       </defs>
       <g>
        <use style="fill:#262626;stroke:#262626;stroke-width:0.8;" x="130.130017" xlink:href="#m833b743a70" y="86.832217"/>
       </g>
      </g>
      <g id="text_9">
       <!-- −100 -->
       <g style="fill:#262626;" transform="translate(141.730017 89.871592)scale(0.08 -0.08)">
        <defs>
         <path d="M 10.59375 35.296875 
L 73.1875 35.296875 
L 73.1875 27.390625 
L 10.59375 27.390625 
z
" id="DejaVuSerif-8722"/>
        </defs>
        <use xlink:href="#DejaVuSerif-8722"/>
        <use x="83.789062" xlink:href="#DejaVuSerif-49"/>
        <use x="147.412109" xlink:href="#DejaVuSerif-48"/>
        <use x="211.035156" xlink:href="#DejaVuSerif-48"/>
       </g>
      </g>
     </g>
     <g id="ytick_6">
      <g id="line2d_9">
       <g>
        <use style="fill:#262626;stroke:#262626;stroke-width:0.8;" x="130.130017" xlink:href="#m833b743a70" y="65.854664"/>
       </g>
      </g>
      <g id="text_10">
       <!-- −50 -->
       <g style="fill:#262626;" transform="translate(141.730017 68.894039)scale(0.08 -0.08)">
        <use xlink:href="#DejaVuSerif-8722"/>
        <use x="83.789062" xlink:href="#DejaVuSerif-53"/>
        <use x="147.412109" xlink:href="#DejaVuSerif-48"/>
       </g>
      </g>
     </g>
     <g id="ytick_7">
      <g id="line2d_10">
       <g>
        <use style="fill:#262626;stroke:#262626;stroke-width:0.8;" x="130.130017" xlink:href="#m833b743a70" y="44.877111"/>
       </g>
      </g>
      <g id="text_11">
       <!-- 0 -->
       <g style="fill:#262626;" transform="translate(141.730017 47.916486)scale(0.08 -0.08)">
        <use xlink:href="#DejaVuSerif-48"/>
       </g>
      </g>
     </g>
     <g id="ytick_8">
      <g id="line2d_11">
       <g>
        <use style="fill:#262626;stroke:#262626;stroke-width:0.8;" x="130.130017" xlink:href="#m833b743a70" y="23.899558"/>
       </g>
      </g>
      <g id="text_12">
       <!-- 50 -->
       <g style="fill:#262626;" transform="translate(141.730017 26.938933)scale(0.08 -0.08)">
        <use xlink:href="#DejaVuSerif-53"/>
        <use x="63.623047" xlink:href="#DejaVuSerif-48"/>
       </g>
      </g>
     </g>
     <g id="text_13">
      <!-- Median difference -->
      <g style="fill:#262626;" transform="translate(175.302204 100.11875)rotate(-90)scale(0.1 -0.1)">
       <defs>
        <path d="M 5.515625 0 
L 5.515625 5.171875 
L 14.796875 5.171875 
L 14.796875 67.671875 
L 4.984375 67.671875 
L 4.984375 72.90625 
L 26.21875 72.90625 
L 51.8125 21 
L 77.390625 72.90625 
L 97.3125 72.90625 
L 97.3125 67.671875 
L 87.59375 67.671875 
L 87.59375 5.171875 
L 96.921875 5.171875 
L 96.921875 0 
L 68.40625 0 
L 68.40625 5.171875 
L 77.6875 5.171875 
L 77.6875 61.53125 
L 52.6875 10.6875 
L 45.796875 10.6875 
L 20.796875 61.53125 
L 20.796875 5.171875 
L 30.078125 5.171875 
L 30.078125 0 
z
" id="DejaVuSerif-77"/>
        <path d="M 52.484375 5.171875 
L 61.078125 5.171875 
L 61.078125 0 
L 43.5 0 
L 43.5 8.109375 
Q 40.875 3.21875 36.796875 0.890625 
Q 32.71875 -1.421875 26.703125 -1.421875 
Q 17.140625 -1.421875 11.0625 6.171875 
Q 4.984375 13.765625 4.984375 25.984375 
Q 4.984375 38.1875 11.03125 45.75 
Q 17.09375 53.328125 26.703125 53.328125 
Q 32.71875 53.328125 36.796875 51 
Q 40.875 48.6875 43.5 43.796875 
L 43.5 70.796875 
L 35.015625 70.796875 
L 35.015625 75.984375 
L 52.484375 75.984375 
z
M 43.5 23.390625 
L 43.5 28.515625 
Q 43.5 37.84375 39.90625 42.765625 
Q 36.328125 47.703125 29.5 47.703125 
Q 22.5625 47.703125 19.015625 42.234375 
Q 15.484375 36.765625 15.484375 25.984375 
Q 15.484375 15.234375 19.015625 9.71875 
Q 22.5625 4.203125 29.5 4.203125 
Q 36.328125 4.203125 39.90625 9.109375 
Q 43.5 14.015625 43.5 23.390625 
z
" id="DejaVuSerif-100"/>
        <path d="M 43.015625 63.71875 
L 38.28125 63.71875 
Q 38.234375 67.390625 36.203125 69.28125 
Q 34.1875 71.1875 30.328125 71.1875 
Q 25.296875 71.1875 23.234375 68.421875 
Q 21.1875 65.671875 21.1875 58.59375 
L 21.1875 51.90625 
L 35.6875 51.90625 
L 35.6875 46.6875 
L 21.1875 46.6875 
L 21.1875 5.171875 
L 32.71875 5.171875 
L 32.71875 0 
L 3.609375 0 
L 3.609375 5.171875 
L 12.203125 5.171875 
L 12.203125 46.6875 
L 3.609375 46.6875 
L 3.609375 51.90625 
L 12.203125 51.90625 
L 12.203125 58.40625 
Q 12.203125 67.09375 16.71875 71.53125 
Q 21.234375 75.984375 29.984375 75.984375 
Q 33.25 75.984375 36.515625 75.390625 
Q 39.796875 74.8125 43.015625 73.578125 
z
" id="DejaVuSerif-102"/>
        <path d="M 47.796875 52 
L 47.796875 39.015625 
L 42.625 39.015625 
Q 42.390625 42.875 40.484375 44.78125 
Q 38.578125 46.6875 34.90625 46.6875 
Q 28.265625 46.6875 24.71875 42.09375 
Q 21.1875 37.5 21.1875 28.90625 
L 21.1875 5.171875 
L 31.59375 5.171875 
L 31.59375 0 
L 4.109375 0 
L 4.109375 5.171875 
L 12.203125 5.171875 
L 12.203125 46.78125 
L 3.609375 46.78125 
L 3.609375 51.90625 
L 21.1875 51.90625 
L 21.1875 42.671875 
Q 23.828125 48.09375 27.96875 50.703125 
Q 32.125 53.328125 38.09375 53.328125 
Q 40.28125 53.328125 42.703125 52.984375 
Q 45.125 52.640625 47.796875 52 
z
" id="DejaVuSerif-114"/>
       </defs>
       <use xlink:href="#DejaVuSerif-77"/>
       <use x="102.392578" xlink:href="#DejaVuSerif-101"/>
       <use x="161.572266" xlink:href="#DejaVuSerif-100"/>
       <use x="225.585938" xlink:href="#DejaVuSerif-105"/>
       <use x="257.568359" xlink:href="#DejaVuSerif-97"/>
       <use x="317.1875" xlink:href="#DejaVuSerif-110"/>
       <use x="381.591797" xlink:href="#DejaVuSerif-32"/>
       <use x="413.378906" xlink:href="#DejaVuSerif-100"/>
       <use x="477.392578" xlink:href="#DejaVuSerif-105"/>
       <use x="509.375" xlink:href="#DejaVuSerif-102"/>
       <use x="546.386719" xlink:href="#DejaVuSerif-102"/>
       <use x="583.398438" xlink:href="#DejaVuSerif-101"/>
       <use x="642.578125" xlink:href="#DejaVuSerif-114"/>
       <use x="690.380859" xlink:href="#DejaVuSerif-101"/>
       <use x="749.560547" xlink:href="#DejaVuSerif-110"/>
       <use x="813.964844" xlink:href="#DejaVuSerif-99"/>
       <use x="869.970703" xlink:href="#DejaVuSerif-101"/>
      </g>
     </g>
    </g>
    <g id="PolyCollection_1">
     <defs>
      <path d="M 118.547146 -22.542847 
L 118.363064 -22.542847 
L 118.363064 -23.861992 
L 118.363064 -25.181136 
L 118.363064 -26.500281 
L 118.363064 -27.819426 
L 118.363064 -29.138571 
L 118.363064 -30.457715 
L 118.363064 -31.77686 
L 118.363064 -33.096005 
L 118.363064 -34.41515 
L 118.363064 -35.734295 
L 118.363064 -37.053439 
L 118.363064 -38.372584 
L 118.363064 -39.691729 
L 118.363064 -41.010874 
L 118.363064 -42.330018 
L 118.363064 -43.649163 
L 118.363064 -44.968308 
L 118.363064 -46.287453 
L 118.363064 -47.606598 
L 118.363064 -48.925742 
L 118.363064 -50.244887 
L 118.363064 -51.564032 
L 118.363064 -52.883177 
L 118.363064 -54.202321 
L 118.363064 -55.521466 
L 118.363064 -56.840611 
L 118.363064 -58.159756 
L 118.363064 -59.478901 
L 118.363064 -60.798045 
L 118.363064 -62.11719 
L 118.363064 -63.436335 
L 118.363064 -64.75548 
L 118.363064 -66.074625 
L 118.363064 -67.393769 
L 118.363064 -68.712914 
L 118.363064 -70.032059 
L 118.363064 -71.351204 
L 118.363064 -72.670348 
L 118.363064 -73.989493 
L 118.363064 -75.308638 
L 118.363064 -76.627783 
L 118.363064 -77.946928 
L 118.363064 -79.266072 
L 118.363064 -80.585217 
L 118.363064 -81.904362 
L 118.363064 -83.223507 
L 118.363064 -84.542651 
L 118.363064 -85.861796 
L 118.363064 -87.180941 
L 118.363064 -88.500086 
L 118.363064 -89.819231 
L 118.363064 -91.138375 
L 118.363064 -92.45752 
L 118.363064 -93.776665 
L 118.363064 -95.09581 
L 118.363064 -96.414954 
L 118.363064 -97.734099 
L 118.363064 -99.053244 
L 118.363064 -100.372389 
L 118.363064 -101.691534 
L 118.363064 -103.010678 
L 118.363064 -104.329823 
L 118.363064 -105.648968 
L 118.363064 -106.968113 
L 118.363064 -108.287257 
L 118.363064 -109.606402 
L 118.363064 -110.925547 
L 118.363064 -112.244692 
L 118.363064 -113.563837 
L 118.363064 -114.882981 
L 118.363064 -116.202126 
L 118.363064 -117.521271 
L 118.363064 -118.840416 
L 118.363064 -120.15956 
L 118.363064 -121.478705 
L 118.363064 -122.79785 
L 118.363064 -124.116995 
L 118.363064 -125.43614 
L 118.363064 -126.755284 
L 118.363064 -128.074429 
L 118.363064 -129.393574 
L 118.363064 -130.712719 
L 118.363064 -132.031863 
L 118.363064 -133.351008 
L 118.363064 -134.670153 
L 118.363064 -135.989298 
L 118.363064 -137.308443 
L 118.363064 -138.627587 
L 118.363064 -139.946732 
L 118.363064 -141.265877 
L 118.363064 -142.585022 
L 118.363064 -143.904166 
L 118.363064 -145.223311 
L 118.363064 -146.542456 
L 118.363064 -147.861601 
L 118.363064 -149.180746 
L 118.363064 -150.49989 
L 118.363064 -151.819035 
L 118.363064 -153.13818 
L 118.372562 -153.13818 
L 118.372562 -153.13818 
L 118.37554 -151.819035 
L 118.37942 -150.49989 
L 118.384698 -149.180746 
L 118.391967 -147.861601 
L 118.40182 -146.542456 
L 118.414724 -145.223311 
L 118.430904 -143.904166 
L 118.450292 -142.585022 
L 118.472612 -141.265877 
L 118.49753 -139.946732 
L 118.524804 -138.627587 
L 118.554294 -137.308443 
L 118.585829 -135.989298 
L 118.619101 -134.670153 
L 118.65374 -133.351008 
L 118.689658 -132.031863 
L 118.72745 -130.712719 
L 118.76857 -129.393574 
L 118.815084 -128.074429 
L 118.869101 -126.755284 
L 118.932158 -125.43614 
L 119.004826 -124.116995 
L 119.086604 -122.79785 
L 119.176052 -121.478705 
L 119.271136 -120.15956 
L 119.369748 -118.840416 
L 119.470378 -117.521271 
L 119.572732 -116.202126 
L 119.678131 -114.882981 
L 119.789627 -113.563837 
L 119.911947 -112.244692 
L 120.051318 -110.925547 
L 120.214933 -109.606402 
L 120.409666 -108.287257 
L 120.640002 -106.968113 
L 120.905848 -105.648968 
L 121.20139 -104.329823 
L 121.515885 -103.010678 
L 121.836256 -101.691534 
L 122.150306 -100.372389 
L 122.449028 -99.053244 
L 122.727112 -97.734099 
L 122.981666 -96.414954 
L 123.209891 -95.09581 
L 123.406673 -93.776665 
L 123.563031 -92.45752 
L 123.66622 -91.138375 
L 123.70194 -89.819231 
L 123.658298 -88.500086 
L 123.530168 -87.180941 
L 123.322117 -85.861796 
L 123.048648 -84.542651 
L 122.731875 -83.223507 
L 122.397941 -81.904362 
L 122.0736 -80.585217 
L 121.783587 -79.266072 
L 121.54866 -77.946928 
L 121.384171 -76.627783 
L 121.299479 -75.308638 
L 121.298418 -73.989493 
L 121.380173 -72.670348 
L 121.539124 -71.351204 
L 121.762795 -70.032059 
L 122.029013 -68.712914 
L 122.305097 -67.393769 
L 122.551481 -66.074625 
L 122.729609 -64.75548 
L 122.811044 -63.436335 
L 122.783953 -62.11719 
L 122.654843 -60.798045 
L 122.446086 -59.478901 
L 122.191237 -58.159756 
L 121.929817 -56.840611 
L 121.702234 -55.521466 
L 121.54511 -54.202321 
L 121.487593 -52.883177 
L 121.549168 -51.564032 
L 121.738496 -50.244887 
L 122.051801 -48.925742 
L 122.469711 -47.606598 
L 122.953634 -46.287453 
L 123.44503 -44.968308 
L 123.871096 -43.649163 
L 124.157613 -42.330018 
L 124.245596 -41.010874 
L 124.105759 -39.691729 
L 123.745288 -38.372584 
L 123.20474 -37.053439 
L 122.546802 -35.734295 
L 121.841343 -34.41515 
L 121.151586 -33.096005 
L 120.524815 -31.77686 
L 119.988815 -30.457715 
L 119.553266 -29.138571 
L 119.214197 -27.819426 
L 118.959414 -26.500281 
L 118.773337 -25.181136 
L 118.640432 -23.861992 
L 118.547146 -22.542847 
z
" id="me08c464aa5"/>
     </defs>
     <g clip-path="url(#p8562a98eab)">
      <use style="fill:#601a4a;fill-opacity:0.8;" x="0" xlink:href="#me08c464aa5" y="139.452441"/>
     </g>
    </g>
    <g id="LineCollection_3">
     <path clip-path="url(#p8562a98eab)" d="M 94.823492 44.877111 
L 130.130017 44.877111 
" style="fill:none;stroke:#262626;stroke-width:0.75;"/>
    </g>
    <g id="LineCollection_4">
     <path clip-path="url(#p8562a98eab)" d="M 104.238565 73.881309 
L 130.130017 73.881309 
" style="fill:none;stroke:#262626;stroke-width:0.75;"/>
    </g>
    <g id="line2d_12">
     <path clip-path="url(#p8562a98eab)" d="M 118.361175 73.881309 
" style="fill:none;stroke:#262626;stroke-linecap:round;stroke-width:1.4;"/>
     <defs>
      <path d="M 0 2 
C 0.530406 2 1.03916 1.789267 1.414214 1.414214 
C 1.789267 1.03916 2 0.530406 2 0 
C 2 -0.530406 1.789267 -1.03916 1.414214 -1.414214 
C 1.03916 -1.789267 0.530406 -2 0 -2 
C -0.530406 -2 -1.03916 -1.789267 -1.414214 -1.414214 
C -1.789267 -1.03916 -2 -0.530406 -2 0 
C -2 0.530406 -1.789267 1.03916 -1.414214 1.414214 
C -1.03916 1.789267 -0.530406 2 0 2 
z
" id="m931898ed7d"/>
     </defs>
     <g clip-path="url(#p8562a98eab)">
      <use style="fill:#262626;" x="118.361175" xlink:href="#m931898ed7d" y="73.881309"/>
     </g>
    </g>
    <g id="line2d_13">
     <path clip-path="url(#p8562a98eab)" d="M 118.361175 106.915647 
L 118.361175 25.439797 
" style="fill:none;stroke:#262626;stroke-linecap:round;stroke-width:2;"/>
    </g>
    <g id="LineCollection_5">
     <defs>
      <path d="M 111.29987 -44.459 
L 130.130017 -44.459 
" id="mf45acec1b7" style="stroke:#262626;"/>
     </defs>
     <g>
      <use style="fill:#262626;stroke:#262626;" x="0" xlink:href="#mf45acec1b7" y="139.452441"/>
     </g>
    </g>
    <g id="LineCollection_6">
     <defs>
      <path d="M 130.130017 -44.459 
L 130.130017 -127.127131 
" id="mc31bc5275f" style="stroke:#262626;"/>
     </defs>
     <g>
      <use style="fill:#262626;stroke:#262626;" x="0" xlink:href="#mc31bc5275f" y="139.452441"/>
     </g>
    </g>
   </g>
   <g id="LineCollection_7">
    <defs>
     <path d="M 47.748125 -44.459 
L 100.707913 -44.459 
" id="m40e279de32" style="stroke:#262626;"/>
    </defs>
    <g>
     <use style="fill:#262626;stroke:#262626;" x="0" xlink:href="#m40e279de32" y="139.452441"/>
    </g>
   </g>
   <g id="LineCollection_8">
    <defs>
     <path d="M 47.748125 -44.459 
L 47.748125 -127.127131 
" id="mccbde883ec" style="stroke:#262626;"/>
    </defs>
    <g>
     <use style="fill:#262626;stroke:#262626;" x="0" xlink:href="#mccbde883ec" y="139.452441"/>
    </g>
   </g>
  </g>
  <g id="axes_3">
   <g id="patch_2">
    <path d="M 212.511909 94.993441 
L 294.893801 94.993441 
L 294.893801 12.325309 
L 212.511909 12.325309 
z
" style="fill:#ffffff;"/>
   </g>
   <g id="matplotlib.axis_5">
    <g id="xtick_4">
     <g id="line2d_14">
      <g>
       <use style="fill:#262626;stroke:#262626;stroke-width:0.8;" x="212.511909" xlink:href="#mdb55994ccf" y="94.993441"/>
      </g>
     </g>
     <g id="text_14">
      <!-- 0.0 -->
      <g style="fill:#262626;" transform="translate(206.150659 112.672191)scale(0.08 -0.08)">
       <defs>
        <path d="M 9.421875 5.078125 
Q 9.421875 7.8125 11.28125 9.71875 
Q 13.140625 11.625 15.921875 11.625 
Q 18.609375 11.625 20.5 9.71875 
Q 22.40625 7.8125 22.40625 5.078125 
Q 22.40625 2.390625 20.5 0.484375 
Q 18.609375 -1.421875 15.921875 -1.421875 
Q 13.140625 -1.421875 11.28125 0.453125 
Q 9.421875 2.34375 9.421875 5.078125 
z
" id="DejaVuSerif-46"/>
       </defs>
       <use xlink:href="#DejaVuSerif-48"/>
       <use x="63.623047" xlink:href="#DejaVuSerif-46"/>
       <use x="95.410156" xlink:href="#DejaVuSerif-48"/>
      </g>
     </g>
    </g>
    <g id="xtick_5">
     <g id="line2d_15">
      <g>
       <use style="fill:#262626;stroke:#262626;stroke-width:0.8;" x="253.702855" xlink:href="#mdb55994ccf" y="94.993441"/>
      </g>
     </g>
     <g id="text_15">
      <!-- 0.5 -->
      <g style="fill:#262626;" transform="translate(247.341605 112.672191)scale(0.08 -0.08)">
       <use xlink:href="#DejaVuSerif-48"/>
       <use x="63.623047" xlink:href="#DejaVuSerif-46"/>
       <use x="95.410156" xlink:href="#DejaVuSerif-53"/>
      </g>
     </g>
    </g>
    <g id="xtick_6">
     <g id="line2d_16">
      <g>
       <use style="fill:#262626;stroke:#262626;stroke-width:0.8;" x="294.893801" xlink:href="#mdb55994ccf" y="94.993441"/>
      </g>
     </g>
     <g id="text_16">
      <!-- 1.0 -->
      <g style="fill:#262626;" transform="translate(288.532551 112.672191)scale(0.08 -0.08)">
       <use xlink:href="#DejaVuSerif-49"/>
       <use x="63.623047" xlink:href="#DejaVuSerif-46"/>
       <use x="95.410156" xlink:href="#DejaVuSerif-48"/>
      </g>
     </g>
    </g>
   </g>
   <g id="matplotlib.axis_6">
    <g id="ytick_9">
     <g id="line2d_17">
      <g>
       <use style="fill:#262626;stroke:#262626;stroke-width:0.8;" x="212.511909" xlink:href="#m0337516d9e" y="94.993441"/>
      </g>
     </g>
     <g id="text_17">
      <!-- 0.0 -->
      <g style="fill:#262626;" transform="translate(188.189409 98.032816)scale(0.08 -0.08)">
       <use xlink:href="#DejaVuSerif-48"/>
       <use x="63.623047" xlink:href="#DejaVuSerif-46"/>
       <use x="95.410156" xlink:href="#DejaVuSerif-48"/>
      </g>
     </g>
    </g>
    <g id="ytick_10">
     <g id="line2d_18">
      <g>
       <use style="fill:#262626;stroke:#262626;stroke-width:0.8;" x="212.511909" xlink:href="#m0337516d9e" y="78.459814"/>
      </g>
     </g>
     <g id="text_18">
      <!-- 0.2 -->
      <g style="fill:#262626;" transform="translate(188.189409 81.499189)scale(0.08 -0.08)">
       <use xlink:href="#DejaVuSerif-48"/>
       <use x="63.623047" xlink:href="#DejaVuSerif-46"/>
       <use x="95.410156" xlink:href="#DejaVuSerif-50"/>
      </g>
     </g>
    </g>
    <g id="ytick_11">
     <g id="line2d_19">
      <g>
       <use style="fill:#262626;stroke:#262626;stroke-width:0.8;" x="212.511909" xlink:href="#m0337516d9e" y="61.926188"/>
      </g>
     </g>
     <g id="text_19">
      <!-- 0.4 -->
      <g style="fill:#262626;" transform="translate(188.189409 64.965563)scale(0.08 -0.08)">
       <defs>
        <path d="M 34.90625 24.703125 
L 34.90625 63.484375 
L 10.015625 24.703125 
z
M 56.390625 0 
L 23.1875 0 
L 23.1875 5.171875 
L 34.90625 5.171875 
L 34.90625 19.484375 
L 3.078125 19.484375 
L 3.078125 24.8125 
L 35.015625 74.21875 
L 44.671875 74.21875 
L 44.671875 24.703125 
L 58.59375 24.703125 
L 58.59375 19.484375 
L 44.671875 19.484375 
L 44.671875 5.171875 
L 56.390625 5.171875 
z
" id="DejaVuSerif-52"/>
       </defs>
       <use xlink:href="#DejaVuSerif-48"/>
       <use x="63.623047" xlink:href="#DejaVuSerif-46"/>
       <use x="95.410156" xlink:href="#DejaVuSerif-52"/>
      </g>
     </g>
    </g>
    <g id="ytick_12">
     <g id="line2d_20">
      <g>
       <use style="fill:#262626;stroke:#262626;stroke-width:0.8;" x="212.511909" xlink:href="#m0337516d9e" y="45.392562"/>
      </g>
     </g>
     <g id="text_20">
      <!-- 0.6 -->
      <g style="fill:#262626;" transform="translate(188.189409 48.431937)scale(0.08 -0.08)">
       <defs>
        <path d="M 32.71875 3.421875 
Q 39.59375 3.421875 43.296875 8.46875 
Q 47.015625 13.53125 47.015625 23 
Q 47.015625 32.46875 43.296875 37.515625 
Q 39.59375 42.578125 32.71875 42.578125 
Q 25.734375 42.578125 22.0625 37.6875 
Q 18.40625 32.8125 18.40625 23.578125 
Q 18.40625 13.875 22.109375 8.640625 
Q 25.828125 3.421875 32.71875 3.421875 
z
M 16.796875 40.140625 
Q 20.125 43.796875 24.3125 45.59375 
Q 28.515625 47.40625 33.796875 47.40625 
Q 44.671875 47.40625 51 40.859375 
Q 57.328125 34.328125 57.328125 23 
Q 57.328125 11.921875 50.515625 5.25 
Q 43.703125 -1.421875 32.328125 -1.421875 
Q 19.96875 -1.421875 13.328125 7.78125 
Q 6.6875 17 6.6875 34.078125 
Q 6.6875 53.21875 14.546875 63.71875 
Q 22.40625 74.21875 36.71875 74.21875 
Q 40.578125 74.21875 44.828125 73.484375 
Q 49.078125 72.75 53.515625 71.296875 
L 53.515625 59.28125 
L 48 59.28125 
Q 47.40625 64.203125 44.234375 66.796875 
Q 41.0625 69.390625 35.6875 69.390625 
Q 26.21875 69.390625 21.578125 62.203125 
Q 16.9375 55.03125 16.796875 40.140625 
z
" id="DejaVuSerif-54"/>
       </defs>
       <use xlink:href="#DejaVuSerif-48"/>
       <use x="63.623047" xlink:href="#DejaVuSerif-46"/>
       <use x="95.410156" xlink:href="#DejaVuSerif-54"/>
      </g>
     </g>
    </g>
    <g id="ytick_13">
     <g id="line2d_21">
      <g>
       <use style="fill:#262626;stroke:#262626;stroke-width:0.8;" x="212.511909" xlink:href="#m0337516d9e" y="28.858936"/>
      </g>
     </g>
     <g id="text_21">
      <!-- 0.8 -->
      <g style="fill:#262626;" transform="translate(188.189409 31.898311)scale(0.08 -0.08)">
       <defs>
        <path d="M 46.578125 19.921875 
Q 46.578125 27.734375 42.6875 32.046875 
Q 38.8125 36.375 31.78125 36.375 
Q 24.75 36.375 20.875 32.046875 
Q 17 27.734375 17 19.921875 
Q 17 12.0625 20.875 7.734375 
Q 24.75 3.421875 31.78125 3.421875 
Q 38.8125 3.421875 42.6875 7.734375 
Q 46.578125 12.0625 46.578125 19.921875 
z
M 44.578125 55.328125 
Q 44.578125 61.96875 41.203125 65.671875 
Q 37.84375 69.390625 31.78125 69.390625 
Q 25.78125 69.390625 22.390625 65.671875 
Q 19 61.96875 19 55.328125 
Q 19 48.640625 22.390625 44.921875 
Q 25.78125 41.21875 31.78125 41.21875 
Q 37.84375 41.21875 41.203125 44.921875 
Q 44.578125 48.640625 44.578125 55.328125 
z
M 39.3125 38.8125 
Q 47.609375 37.703125 52.25 32.6875 
Q 56.890625 27.6875 56.890625 19.921875 
Q 56.890625 9.671875 50.390625 4.125 
Q 43.890625 -1.421875 31.78125 -1.421875 
Q 19.734375 -1.421875 13.203125 4.125 
Q 6.6875 9.671875 6.6875 19.921875 
Q 6.6875 27.6875 11.328125 32.6875 
Q 15.96875 37.703125 24.3125 38.8125 
Q 16.9375 40.140625 13 44.40625 
Q 9.078125 48.6875 9.078125 55.328125 
Q 9.078125 64.109375 15.125 69.15625 
Q 21.1875 74.21875 31.78125 74.21875 
Q 42.390625 74.21875 48.4375 69.15625 
Q 54.5 64.109375 54.5 55.328125 
Q 54.5 48.6875 50.5625 44.40625 
Q 46.625 40.140625 39.3125 38.8125 
z
" id="DejaVuSerif-56"/>
       </defs>
       <use xlink:href="#DejaVuSerif-48"/>
       <use x="63.623047" xlink:href="#DejaVuSerif-46"/>
       <use x="95.410156" xlink:href="#DejaVuSerif-56"/>
      </g>
     </g>
    </g>
    <g id="ytick_14">
     <g id="line2d_22">
      <g>
       <use style="fill:#262626;stroke:#262626;stroke-width:0.8;" x="212.511909" xlink:href="#m0337516d9e" y="12.325309"/>
      </g>
     </g>
     <g id="text_22">
      <!-- 1.0 -->
      <g style="fill:#262626;" transform="translate(188.189409 15.364684)scale(0.08 -0.08)">
       <use xlink:href="#DejaVuSerif-49"/>
       <use x="63.623047" xlink:href="#DejaVuSerif-46"/>
       <use x="95.410156" xlink:href="#DejaVuSerif-48"/>
      </g>
     </g>
    </g>
   </g>
   <g id="patch_3">
    <path d="M 212.511909 94.993441 
L 212.511909 12.325309 
" style="fill:none;stroke:#262626;stroke-linecap:square;stroke-linejoin:miter;stroke-width:1.25;"/>
   </g>
   <g id="patch_4">
    <path d="M 294.893801 94.993441 
L 294.893801 12.325309 
" style="fill:none;stroke:#262626;stroke-linecap:square;stroke-linejoin:miter;stroke-width:1.25;"/>
   </g>
   <g id="patch_5">
    <path d="M 212.511909 94.993441 
L 294.893801 94.993441 
" style="fill:none;stroke:#262626;stroke-linecap:square;stroke-linejoin:miter;stroke-width:1.25;"/>
   </g>
   <g id="patch_6">
    <path d="M 212.511909 12.325309 
L 294.893801 12.325309 
" style="fill:none;stroke:#262626;stroke-linecap:square;stroke-linejoin:miter;stroke-width:1.25;"/>
   </g>
  </g>
  <g id="axes_4">
   <g id="patch_7">
    <path d="M 377.275693 94.993441 
L 459.657585 94.993441 
L 459.657585 12.325309 
L 377.275693 12.325309 
z
" style="fill:#ffffff;"/>
   </g>
   <g id="matplotlib.axis_7">
    <g id="xtick_7">
     <g id="line2d_23">
      <g>
       <use style="fill:#262626;stroke:#262626;stroke-width:0.8;" x="377.275693" xlink:href="#mdb55994ccf" y="94.993441"/>
      </g>
     </g>
     <g id="text_23">
      <!-- 0.0 -->
      <g style="fill:#262626;" transform="translate(370.914443 112.672191)scale(0.08 -0.08)">
       <use xlink:href="#DejaVuSerif-48"/>
       <use x="63.623047" xlink:href="#DejaVuSerif-46"/>
       <use x="95.410156" xlink:href="#DejaVuSerif-48"/>
      </g>
     </g>
    </g>
    <g id="xtick_8">
     <g id="line2d_24">
      <g>
       <use style="fill:#262626;stroke:#262626;stroke-width:0.8;" x="418.466639" xlink:href="#mdb55994ccf" y="94.993441"/>
      </g>
     </g>
     <g id="text_24">
      <!-- 0.5 -->
      <g style="fill:#262626;" transform="translate(412.105389 112.672191)scale(0.08 -0.08)">
       <use xlink:href="#DejaVuSerif-48"/>
       <use x="63.623047" xlink:href="#DejaVuSerif-46"/>
       <use x="95.410156" xlink:href="#DejaVuSerif-53"/>
      </g>
     </g>
    </g>
    <g id="xtick_9">
     <g id="line2d_25">
      <g>
       <use style="fill:#262626;stroke:#262626;stroke-width:0.8;" x="459.657585" xlink:href="#mdb55994ccf" y="94.993441"/>
      </g>
     </g>
     <g id="text_25">
      <!-- 1.0 -->
      <g style="fill:#262626;" transform="translate(453.296335 112.672191)scale(0.08 -0.08)">
       <use xlink:href="#DejaVuSerif-49"/>
       <use x="63.623047" xlink:href="#DejaVuSerif-46"/>
       <use x="95.410156" xlink:href="#DejaVuSerif-48"/>
      </g>
     </g>
    </g>
   </g>
   <g id="matplotlib.axis_8">
    <g id="ytick_15">
     <g id="line2d_26">
      <g>
       <use style="fill:#262626;stroke:#262626;stroke-width:0.8;" x="377.275693" xlink:href="#m0337516d9e" y="94.993441"/>
      </g>
     </g>
     <g id="text_26">
      <!-- 0.0 -->
      <g style="fill:#262626;" transform="translate(352.953193 98.032816)scale(0.08 -0.08)">
       <use xlink:href="#DejaVuSerif-48"/>
       <use x="63.623047" xlink:href="#DejaVuSerif-46"/>
       <use x="95.410156" xlink:href="#DejaVuSerif-48"/>
      </g>
     </g>
    </g>
    <g id="ytick_16">
     <g id="line2d_27">
      <g>
       <use style="fill:#262626;stroke:#262626;stroke-width:0.8;" x="377.275693" xlink:href="#m0337516d9e" y="78.459814"/>
      </g>
     </g>
     <g id="text_27">
      <!-- 0.2 -->
      <g style="fill:#262626;" transform="translate(352.953193 81.499189)scale(0.08 -0.08)">
       <use xlink:href="#DejaVuSerif-48"/>
       <use x="63.623047" xlink:href="#DejaVuSerif-46"/>
       <use x="95.410156" xlink:href="#DejaVuSerif-50"/>
      </g>
     </g>
    </g>
    <g id="ytick_17">
     <g id="line2d_28">
      <g>
       <use style="fill:#262626;stroke:#262626;stroke-width:0.8;" x="377.275693" xlink:href="#m0337516d9e" y="61.926188"/>
      </g>
     </g>
     <g id="text_28">
      <!-- 0.4 -->
      <g style="fill:#262626;" transform="translate(352.953193 64.965563)scale(0.08 -0.08)">
       <use xlink:href="#DejaVuSerif-48"/>
       <use x="63.623047" xlink:href="#DejaVuSerif-46"/>
       <use x="95.410156" xlink:href="#DejaVuSerif-52"/>
      </g>
     </g>
    </g>
    <g id="ytick_18">
     <g id="line2d_29">
      <g>
       <use style="fill:#262626;stroke:#262626;stroke-width:0.8;" x="377.275693" xlink:href="#m0337516d9e" y="45.392562"/>
      </g>
     </g>
     <g id="text_29">
      <!-- 0.6 -->
      <g style="fill:#262626;" transform="translate(352.953193 48.431937)scale(0.08 -0.08)">
       <use xlink:href="#DejaVuSerif-48"/>
       <use x="63.623047" xlink:href="#DejaVuSerif-46"/>
       <use x="95.410156" xlink:href="#DejaVuSerif-54"/>
      </g>
     </g>
    </g>
    <g id="ytick_19">
     <g id="line2d_30">
      <g>
       <use style="fill:#262626;stroke:#262626;stroke-width:0.8;" x="377.275693" xlink:href="#m0337516d9e" y="28.858936"/>
      </g>
     </g>
     <g id="text_30">
      <!-- 0.8 -->
      <g style="fill:#262626;" transform="translate(352.953193 31.898311)scale(0.08 -0.08)">
       <use xlink:href="#DejaVuSerif-48"/>
       <use x="63.623047" xlink:href="#DejaVuSerif-46"/>
       <use x="95.410156" xlink:href="#DejaVuSerif-56"/>
      </g>
     </g>
    </g>
    <g id="ytick_20">
     <g id="line2d_31">
      <g>
       <use style="fill:#262626;stroke:#262626;stroke-width:0.8;" x="377.275693" xlink:href="#m0337516d9e" y="12.325309"/>
      </g>
     </g>
     <g id="text_31">
      <!-- 1.0 -->
      <g style="fill:#262626;" transform="translate(352.953193 15.364684)scale(0.08 -0.08)">
       <use xlink:href="#DejaVuSerif-49"/>
       <use x="63.623047" xlink:href="#DejaVuSerif-46"/>
       <use x="95.410156" xlink:href="#DejaVuSerif-48"/>
      </g>
     </g>
    </g>
   </g>
   <g id="patch_8">
    <path d="M 377.275693 94.993441 
L 377.275693 12.325309 
" style="fill:none;stroke:#262626;stroke-linecap:square;stroke-linejoin:miter;stroke-width:1.25;"/>
   </g>
   <g id="patch_9">
    <path d="M 459.657585 94.993441 
L 459.657585 12.325309 
" style="fill:none;stroke:#262626;stroke-linecap:square;stroke-linejoin:miter;stroke-width:1.25;"/>
   </g>
   <g id="patch_10">
    <path d="M 377.275693 94.993441 
L 459.657585 94.993441 
" style="fill:none;stroke:#262626;stroke-linecap:square;stroke-linejoin:miter;stroke-width:1.25;"/>
   </g>
   <g id="patch_11">
    <path d="M 377.275693 12.325309 
L 459.657585 12.325309 
" style="fill:none;stroke:#262626;stroke-linecap:square;stroke-linejoin:miter;stroke-width:1.25;"/>
   </g>
  </g>
 </g>
 <defs>
  <clipPath id="p9842a8c1b4">
   <rect height="82.668131" width="58.844209" x="47.748125" y="12.325309"/>
  </clipPath>
  <clipPath id="p8562a98eab">
   <rect height="82.668131" width="23.537683" x="106.592334" y="12.325309"/>
  </clipPath>
 </defs>
</svg>
