<?xml version="1.0" encoding="utf-8" standalone="no"?>
<!DOCTYPE svg PUBLIC "-//W3C//DTD SVG 1.1//EN"
  "http://www.w3.org/Graphics/SVG/1.1/DTD/svg11.dtd">
<!-- Created with matplotlib (https://matplotlib.org/) -->
<svg height="152.273534pt" version="1.1" viewBox="0 0 506.614147 152.273534" width="506.614147pt" xmlns="http://www.w3.org/2000/svg" xmlns:xlink="http://www.w3.org/1999/xlink">
 <metadata>
  <rdf:RDF xmlns:cc="http://creativecommons.org/ns#" xmlns:dc="http://purl.org/dc/elements/1.1/" xmlns:rdf="http://www.w3.org/1999/02/22-rdf-syntax-ns#">
   <cc:Work>
    <dc:type rdf:resource="http://purl.org/dc/dcmitype/StillImage"/>
    <dc:date>2021-01-23T15:18:26.572579</dc:date>
    <dc:format>image/svg+xml</dc:format>
    <dc:creator>
     <cc:Agent>
      <dc:title>Matplotlib v3.3.2, https://matplotlib.org/</dc:title>
     </cc:Agent>
    </dc:creator>
   </cc:Work>
  </rdf:RDF>
 </metadata>
 <defs>
  <style type="text/css">*{stroke-linecap:butt;stroke-linejoin:round;}</style>
 </defs>
 <g id="figure_1">
  <g id="patch_1">
   <path d="M 0 152.273534 
L 506.614147 152.273534 
L 506.614147 0 
L 0 0 
z
" style="fill:#ffffff;"/>
  </g>
  <g id="axes_1">
   <g id="matplotlib.axis_1">
    <g id="xtick_1">
     <g id="line2d_1">
      <defs>
       <path d="M 0 0 
L 0 6 
" id="mcb61a3cf6c" style="stroke:#262626;stroke-width:0.8;"/>
      </defs>
      <g>
       <use style="fill:#262626;stroke:#262626;stroke-width:0.8;" x="57.511365" xlink:href="#mcb61a3cf6c" y="107.814534"/>
      </g>
     </g>
     <g id="text_1">
      <!-- Wt -->
      <g style="fill:#262626;" transform="translate(51.792615 125.493284)scale(0.08 -0.08)">
       <defs>
        <path d="M 76.21875 0 
L 68.21875 0 
L 51.515625 59.28125 
L 34.8125 0 
L 26.8125 0 
L 7.71875 67.671875 
L 0.484375 67.671875 
L 0.484375 72.90625 
L 27.09375 72.90625 
L 27.09375 67.671875 
L 18.015625 67.671875 
L 33.203125 13.8125 
L 49.8125 72.90625 
L 57.71875 72.90625 
L 74.609375 13.1875 
L 89.890625 67.671875 
L 81.5 67.671875 
L 81.5 72.90625 
L 102.484375 72.90625 
L 102.484375 67.671875 
L 95.3125 67.671875 
z
" id="DejaVuSerif-87"/>
        <path d="M 10.796875 46.6875 
L 2.875 46.6875 
L 2.875 51.90625 
L 10.796875 51.90625 
L 10.796875 68.015625 
L 19.828125 68.015625 
L 19.828125 51.90625 
L 36.71875 51.90625 
L 36.71875 46.6875 
L 19.828125 46.6875 
L 19.828125 13.71875 
Q 19.828125 7.125 21.09375 5.265625 
Q 22.359375 3.421875 25.78125 3.421875 
Q 29.296875 3.421875 30.90625 5.484375 
Q 32.515625 7.5625 32.625 12.203125 
L 39.40625 12.203125 
Q 39.015625 5.125 35.546875 1.84375 
Q 32.078125 -1.421875 25 -1.421875 
Q 17.234375 -1.421875 14.015625 2.015625 
Q 10.796875 5.46875 10.796875 13.71875 
z
" id="DejaVuSerif-116"/>
       </defs>
       <use xlink:href="#DejaVuSerif-87"/>
       <use x="102.783203" xlink:href="#DejaVuSerif-116"/>
      </g>
      <!-- N = 12 -->
      <g style="fill:#262626;" transform="translate(43.02699 134.451534)scale(0.08 -0.08)">
       <defs>
        <path d="M 4.890625 0 
L 4.890625 5.171875 
L 14.703125 5.171875 
L 14.703125 67.671875 
L 4.890625 67.671875 
L 4.890625 72.90625 
L 23.578125 72.90625 
L 67.28125 15.375 
L 67.28125 67.671875 
L 57.515625 67.671875 
L 57.515625 72.90625 
L 83.109375 72.90625 
L 83.109375 67.671875 
L 73.296875 67.671875 
L 73.296875 -1.421875 
L 67.390625 -1.421875 
L 20.703125 60.015625 
L 20.703125 5.171875 
L 30.515625 5.171875 
L 30.515625 0 
z
" id="DejaVuSerif-78"/>
        <path id="DejaVuSerif-32"/>
        <path d="M 10.59375 45.21875 
L 73.1875 45.21875 
L 73.1875 37.40625 
L 10.59375 37.40625 
z
M 10.59375 25.296875 
L 73.1875 25.296875 
L 73.1875 17.484375 
L 10.59375 17.484375 
z
" id="DejaVuSerif-61"/>
        <path d="M 14.203125 0 
L 14.203125 5.171875 
L 26.90625 5.171875 
L 26.90625 65.828125 
L 12.203125 56.296875 
L 12.203125 62.703125 
L 29.984375 74.21875 
L 36.71875 74.21875 
L 36.71875 5.171875 
L 49.421875 5.171875 
L 49.421875 0 
z
" id="DejaVuSerif-49"/>
        <path d="M 12.796875 55.515625 
L 7.328125 55.515625 
L 7.328125 68.5 
Q 12.546875 71.296875 17.84375 72.75 
Q 23.140625 74.21875 28.21875 74.21875 
Q 39.59375 74.21875 46.1875 68.703125 
Q 52.78125 63.1875 52.78125 53.71875 
Q 52.78125 43.015625 37.84375 28.125 
Q 36.671875 27 36.078125 26.421875 
L 17.671875 8.015625 
L 48.09375 8.015625 
L 48.09375 17 
L 53.8125 17 
L 53.8125 0 
L 6.78125 0 
L 6.78125 5.328125 
L 28.90625 27.390625 
Q 36.234375 34.71875 39.359375 40.84375 
Q 42.484375 46.96875 42.484375 53.71875 
Q 42.484375 61.078125 38.640625 65.234375 
Q 34.8125 69.390625 28.078125 69.390625 
Q 21.09375 69.390625 17.28125 65.921875 
Q 13.484375 62.453125 12.796875 55.515625 
z
" id="DejaVuSerif-50"/>
       </defs>
       <use xlink:href="#DejaVuSerif-78"/>
       <use x="87.5" xlink:href="#DejaVuSerif-32"/>
       <use x="119.287109" xlink:href="#DejaVuSerif-61"/>
       <use x="203.076172" xlink:href="#DejaVuSerif-32"/>
       <use x="234.863281" xlink:href="#DejaVuSerif-49"/>
       <use x="298.486328" xlink:href="#DejaVuSerif-50"/>
      </g>
     </g>
    </g>
    <g id="xtick_2">
     <g id="line2d_2">
      <g>
       <use style="fill:#262626;stroke:#262626;stroke-width:0.8;" x="86.933469" xlink:href="#mcb61a3cf6c" y="107.814534"/>
      </g>
     </g>
     <g id="text_2">
      <!-- Tg -->
      <g style="fill:#262626;" transform="translate(81.704719 125.379534)scale(0.08 -0.08)">
       <defs>
        <path d="M 19.09375 0 
L 19.09375 5.171875 
L 28.421875 5.171875 
L 28.421875 67.09375 
L 6.984375 67.09375 
L 6.984375 55.71875 
L 0.984375 55.71875 
L 0.984375 72.90625 
L 65.71875 72.90625 
L 65.71875 55.71875 
L 59.71875 55.71875 
L 59.71875 67.09375 
L 38.28125 67.09375 
L 38.28125 5.171875 
L 47.609375 5.171875 
L 47.609375 0 
z
" id="DejaVuSerif-84"/>
        <path d="M 52.484375 46.6875 
L 52.484375 1.125 
Q 52.484375 -10.0625 46.328125 -16.140625 
Q 40.1875 -22.21875 28.8125 -22.21875 
Q 23.6875 -22.21875 19 -21.28125 
Q 14.3125 -20.359375 10.015625 -18.5 
L 10.015625 -7.625 
L 14.703125 -7.625 
Q 15.578125 -12.703125 18.84375 -15.046875 
Q 22.125 -17.390625 28.21875 -17.390625 
Q 36.140625 -17.390625 39.8125 -12.921875 
Q 43.5 -8.453125 43.5 1.125 
L 43.5 8.109375 
Q 40.875 3.21875 36.796875 0.890625 
Q 32.71875 -1.421875 26.703125 -1.421875 
Q 17.140625 -1.421875 11.0625 6.171875 
Q 4.984375 13.765625 4.984375 25.984375 
Q 4.984375 38.1875 11.03125 45.75 
Q 17.09375 53.328125 26.703125 53.328125 
Q 32.71875 53.328125 36.796875 51 
Q 40.875 48.6875 43.5 43.796875 
L 43.5 51.90625 
L 61.078125 51.90625 
L 61.078125 46.6875 
z
M 43.5 28.515625 
Q 43.5 37.84375 39.90625 42.765625 
Q 36.328125 47.703125 29.5 47.703125 
Q 22.5625 47.703125 19.015625 42.234375 
Q 15.484375 36.765625 15.484375 25.984375 
Q 15.484375 15.234375 19.015625 9.71875 
Q 22.5625 4.203125 29.5 4.203125 
Q 36.328125 4.203125 39.90625 9.109375 
Q 43.5 14.015625 43.5 23.390625 
z
" id="DejaVuSerif-103"/>
       </defs>
       <use xlink:href="#DejaVuSerif-84"/>
       <use x="66.699219" xlink:href="#DejaVuSerif-103"/>
      </g>
      <!-- N = 12 -->
      <g style="fill:#262626;" transform="translate(72.449094 134.451534)scale(0.08 -0.08)">
       <use xlink:href="#DejaVuSerif-78"/>
       <use x="87.5" xlink:href="#DejaVuSerif-32"/>
       <use x="119.287109" xlink:href="#DejaVuSerif-61"/>
       <use x="203.076172" xlink:href="#DejaVuSerif-32"/>
       <use x="234.863281" xlink:href="#DejaVuSerif-49"/>
       <use x="298.486328" xlink:href="#DejaVuSerif-50"/>
      </g>
     </g>
    </g>
   </g>
   <g id="matplotlib.axis_2">
    <g id="ytick_1">
     <g id="line2d_3">
      <defs>
       <path d="M 0 0 
L -6 0 
" id="m7311a879a7" style="stroke:#262626;stroke-width:0.8;"/>
      </defs>
      <g>
       <use style="fill:#262626;stroke:#262626;stroke-width:0.8;" x="42.800313" xlink:href="#m7311a879a7" y="107.421945"/>
      </g>
     </g>
     <g id="text_3">
      <!-- 20 -->
      <g style="fill:#262626;" transform="translate(21.020313 110.46132)scale(0.08 -0.08)">
       <defs>
        <path d="M 31.78125 3.421875 
Q 39.265625 3.421875 42.96875 11.625 
Q 46.6875 19.828125 46.6875 36.375 
Q 46.6875 52.984375 42.96875 61.1875 
Q 39.265625 69.390625 31.78125 69.390625 
Q 24.3125 69.390625 20.59375 61.1875 
Q 16.890625 52.984375 16.890625 36.375 
Q 16.890625 19.828125 20.59375 11.625 
Q 24.3125 3.421875 31.78125 3.421875 
z
M 31.78125 -1.421875 
Q 19.921875 -1.421875 13.25 8.53125 
Q 6.59375 18.5 6.59375 36.375 
Q 6.59375 54.296875 13.25 64.25 
Q 19.921875 74.21875 31.78125 74.21875 
Q 43.703125 74.21875 50.34375 64.25 
Q 56.984375 54.296875 56.984375 36.375 
Q 56.984375 18.5 50.34375 8.53125 
Q 43.703125 -1.421875 31.78125 -1.421875 
z
" id="DejaVuSerif-48"/>
       </defs>
       <use xlink:href="#DejaVuSerif-50"/>
       <use x="63.623047" xlink:href="#DejaVuSerif-48"/>
      </g>
     </g>
    </g>
    <g id="ytick_2">
     <g id="line2d_4">
      <g>
       <use style="fill:#262626;stroke:#262626;stroke-width:0.8;" x="42.800313" xlink:href="#m7311a879a7" y="84.988259"/>
      </g>
     </g>
     <g id="text_4">
      <!-- 40 -->
      <g style="fill:#262626;" transform="translate(21.020313 88.027634)scale(0.08 -0.08)">
       <defs>
        <path d="M 34.90625 24.703125 
L 34.90625 63.484375 
L 10.015625 24.703125 
z
M 56.390625 0 
L 23.1875 0 
L 23.1875 5.171875 
L 34.90625 5.171875 
L 34.90625 19.484375 
L 3.078125 19.484375 
L 3.078125 24.8125 
L 35.015625 74.21875 
L 44.671875 74.21875 
L 44.671875 24.703125 
L 58.59375 24.703125 
L 58.59375 19.484375 
L 44.671875 19.484375 
L 44.671875 5.171875 
L 56.390625 5.171875 
z
" id="DejaVuSerif-52"/>
       </defs>
       <use xlink:href="#DejaVuSerif-52"/>
       <use x="63.623047" xlink:href="#DejaVuSerif-48"/>
      </g>
     </g>
    </g>
    <g id="ytick_3">
     <g id="line2d_5">
      <g>
       <use style="fill:#262626;stroke:#262626;stroke-width:0.8;" x="42.800313" xlink:href="#m7311a879a7" y="62.554574"/>
      </g>
     </g>
     <g id="text_5">
      <!-- 60 -->
      <g style="fill:#262626;" transform="translate(21.020313 65.593949)scale(0.08 -0.08)">
       <defs>
        <path d="M 32.71875 3.421875 
Q 39.59375 3.421875 43.296875 8.46875 
Q 47.015625 13.53125 47.015625 23 
Q 47.015625 32.46875 43.296875 37.515625 
Q 39.59375 42.578125 32.71875 42.578125 
Q 25.734375 42.578125 22.0625 37.6875 
Q 18.40625 32.8125 18.40625 23.578125 
Q 18.40625 13.875 22.109375 8.640625 
Q 25.828125 3.421875 32.71875 3.421875 
z
M 16.796875 40.140625 
Q 20.125 43.796875 24.3125 45.59375 
Q 28.515625 47.40625 33.796875 47.40625 
Q 44.671875 47.40625 51 40.859375 
Q 57.328125 34.328125 57.328125 23 
Q 57.328125 11.921875 50.515625 5.25 
Q 43.703125 -1.421875 32.328125 -1.421875 
Q 19.96875 -1.421875 13.328125 7.78125 
Q 6.6875 17 6.6875 34.078125 
Q 6.6875 53.21875 14.546875 63.71875 
Q 22.40625 74.21875 36.71875 74.21875 
Q 40.578125 74.21875 44.828125 73.484375 
Q 49.078125 72.75 53.515625 71.296875 
L 53.515625 59.28125 
L 48 59.28125 
Q 47.40625 64.203125 44.234375 66.796875 
Q 41.0625 69.390625 35.6875 69.390625 
Q 26.21875 69.390625 21.578125 62.203125 
Q 16.9375 55.03125 16.796875 40.140625 
z
" id="DejaVuSerif-54"/>
       </defs>
       <use xlink:href="#DejaVuSerif-54"/>
       <use x="63.623047" xlink:href="#DejaVuSerif-48"/>
      </g>
     </g>
    </g>
    <g id="ytick_4">
     <g id="line2d_6">
      <g>
       <use style="fill:#262626;stroke:#262626;stroke-width:0.8;" x="42.800313" xlink:href="#m7311a879a7" y="40.120888"/>
      </g>
     </g>
     <g id="text_6">
      <!-- 80 -->
      <g style="fill:#262626;" transform="translate(21.020313 43.160263)scale(0.08 -0.08)">
       <defs>
        <path d="M 46.578125 19.921875 
Q 46.578125 27.734375 42.6875 32.046875 
Q 38.8125 36.375 31.78125 36.375 
Q 24.75 36.375 20.875 32.046875 
Q 17 27.734375 17 19.921875 
Q 17 12.0625 20.875 7.734375 
Q 24.75 3.421875 31.78125 3.421875 
Q 38.8125 3.421875 42.6875 7.734375 
Q 46.578125 12.0625 46.578125 19.921875 
z
M 44.578125 55.328125 
Q 44.578125 61.96875 41.203125 65.671875 
Q 37.84375 69.390625 31.78125 69.390625 
Q 25.78125 69.390625 22.390625 65.671875 
Q 19 61.96875 19 55.328125 
Q 19 48.640625 22.390625 44.921875 
Q 25.78125 41.21875 31.78125 41.21875 
Q 37.84375 41.21875 41.203125 44.921875 
Q 44.578125 48.640625 44.578125 55.328125 
z
M 39.3125 38.8125 
Q 47.609375 37.703125 52.25 32.6875 
Q 56.890625 27.6875 56.890625 19.921875 
Q 56.890625 9.671875 50.390625 4.125 
Q 43.890625 -1.421875 31.78125 -1.421875 
Q 19.734375 -1.421875 13.203125 4.125 
Q 6.6875 9.671875 6.6875 19.921875 
Q 6.6875 27.6875 11.328125 32.6875 
Q 15.96875 37.703125 24.3125 38.8125 
Q 16.9375 40.140625 13 44.40625 
Q 9.078125 48.6875 9.078125 55.328125 
Q 9.078125 64.109375 15.125 69.15625 
Q 21.1875 74.21875 31.78125 74.21875 
Q 42.390625 74.21875 48.4375 69.15625 
Q 54.5 64.109375 54.5 55.328125 
Q 54.5 48.6875 50.5625 44.40625 
Q 46.625 40.140625 39.3125 38.8125 
z
" id="DejaVuSerif-56"/>
       </defs>
       <use xlink:href="#DejaVuSerif-56"/>
       <use x="63.623047" xlink:href="#DejaVuSerif-48"/>
      </g>
     </g>
    </g>
    <g id="text_7">
     <!-- Total Run Segments -->
     <g style="fill:#262626;" transform="translate(14.798438 117.492969)rotate(-90)scale(0.1 -0.1)">
      <defs>
       <path d="M 30.078125 3.421875 
Q 37.3125 3.421875 40.984375 9.125 
Q 44.671875 14.84375 44.671875 25.984375 
Q 44.671875 37.109375 40.984375 42.796875 
Q 37.3125 48.484375 30.078125 48.484375 
Q 22.859375 48.484375 19.171875 42.796875 
Q 15.484375 37.109375 15.484375 25.984375 
Q 15.484375 14.84375 19.1875 9.125 
Q 22.90625 3.421875 30.078125 3.421875 
z
M 30.078125 -1.421875 
Q 18.75 -1.421875 11.859375 6.078125 
Q 4.984375 13.578125 4.984375 25.984375 
Q 4.984375 38.375 11.84375 45.84375 
Q 18.703125 53.328125 30.078125 53.328125 
Q 41.453125 53.328125 48.3125 45.84375 
Q 55.171875 38.375 55.171875 25.984375 
Q 55.171875 13.578125 48.3125 6.078125 
Q 41.453125 -1.421875 30.078125 -1.421875 
z
" id="DejaVuSerif-111"/>
       <path d="M 39.796875 16.3125 
L 39.796875 27.296875 
L 28.21875 27.296875 
Q 21.53125 27.296875 18.25 24.40625 
Q 14.984375 21.53125 14.984375 15.578125 
Q 14.984375 10.15625 18.296875 6.984375 
Q 21.625 3.8125 27.296875 3.8125 
Q 32.90625 3.8125 36.34375 7.28125 
Q 39.796875 10.75 39.796875 16.3125 
z
M 48.78125 32.421875 
L 48.78125 5.171875 
L 56.78125 5.171875 
L 56.78125 0 
L 39.796875 0 
L 39.796875 5.609375 
Q 36.8125 2 32.90625 0.28125 
Q 29 -1.421875 23.78125 -1.421875 
Q 15.140625 -1.421875 10.0625 3.171875 
Q 4.984375 7.765625 4.984375 15.578125 
Q 4.984375 23.640625 10.796875 28.078125 
Q 16.609375 32.515625 27.203125 32.515625 
L 39.796875 32.515625 
L 39.796875 36.078125 
Q 39.796875 42 36.203125 45.234375 
Q 32.625 48.484375 26.125 48.484375 
Q 20.75 48.484375 17.578125 46.046875 
Q 14.40625 43.609375 13.625 38.8125 
L 8.984375 38.8125 
L 8.984375 49.3125 
Q 13.671875 51.3125 18.09375 52.3125 
Q 22.515625 53.328125 26.703125 53.328125 
Q 37.5 53.328125 43.140625 47.96875 
Q 48.78125 42.625 48.78125 32.421875 
z
" id="DejaVuSerif-97"/>
       <path d="M 20.515625 5.171875 
L 29 5.171875 
L 29 0 
L 2.875 0 
L 2.875 5.171875 
L 11.53125 5.171875 
L 11.53125 70.796875 
L 2.875 70.796875 
L 2.875 75.984375 
L 20.515625 75.984375 
z
" id="DejaVuSerif-108"/>
       <path d="M 47.90625 36.1875 
Q 51.3125 35.25 53.78125 33.03125 
Q 56.25 30.8125 58.203125 26.8125 
L 68.796875 5.171875 
L 77.6875 5.171875 
L 77.6875 0 
L 60.5 0 
L 49.125 23.1875 
Q 45.84375 29.9375 43.109375 31.90625 
Q 40.375 33.890625 35.59375 33.890625 
L 24.703125 33.890625 
L 24.703125 5.171875 
L 35.015625 5.171875 
L 35.015625 0 
L 5.515625 0 
L 5.515625 5.171875 
L 14.796875 5.171875 
L 14.796875 67.671875 
L 5.515625 67.671875 
L 5.515625 72.90625 
L 42.484375 72.90625 
Q 53.125 72.90625 58.90625 67.828125 
Q 64.703125 62.75 64.703125 53.421875 
Q 64.703125 45.90625 60.46875 41.578125 
Q 56.25 37.25 47.90625 36.1875 
z
M 24.703125 39.109375 
L 39.109375 39.109375 
Q 46.484375 39.109375 50 42.59375 
Q 53.515625 46.09375 53.515625 53.421875 
Q 53.515625 60.75 50 64.203125 
Q 46.484375 67.671875 39.109375 67.671875 
L 24.703125 67.671875 
z
" id="DejaVuSerif-82"/>
       <path d="M 35.40625 51.90625 
L 52.203125 51.90625 
L 52.203125 5.171875 
L 60.6875 5.171875 
L 60.6875 0 
L 43.21875 0 
L 43.21875 9.1875 
Q 40.71875 4 36.765625 1.28125 
Q 32.8125 -1.421875 27.59375 -1.421875 
Q 18.953125 -1.421875 14.875 3.484375 
Q 10.796875 8.40625 10.796875 18.890625 
L 10.796875 46.6875 
L 2.6875 46.6875 
L 2.6875 51.90625 
L 19.828125 51.90625 
L 19.828125 21.6875 
Q 19.828125 12.203125 22.140625 8.6875 
Q 24.46875 5.171875 30.421875 5.171875 
Q 36.671875 5.171875 39.9375 9.765625 
Q 43.21875 14.359375 43.21875 23.09375 
L 43.21875 46.6875 
L 35.40625 46.6875 
z
" id="DejaVuSerif-117"/>
       <path d="M 4.109375 0 
L 4.109375 5.171875 
L 12.203125 5.171875 
L 12.203125 46.6875 
L 3.609375 46.6875 
L 3.609375 51.90625 
L 21.1875 51.90625 
L 21.1875 42.671875 
Q 23.6875 47.953125 27.65625 50.640625 
Q 31.640625 53.328125 36.921875 53.328125 
Q 45.515625 53.328125 49.5625 48.390625 
Q 53.609375 43.453125 53.609375 33.015625 
L 53.609375 5.171875 
L 61.625 5.171875 
L 61.625 0 
L 36.8125 0 
L 36.8125 5.171875 
L 44.578125 5.171875 
L 44.578125 30.171875 
Q 44.578125 39.703125 42.234375 43.234375 
Q 39.890625 46.78125 33.984375 46.78125 
Q 27.734375 46.78125 24.453125 42.203125 
Q 21.1875 37.640625 21.1875 28.90625 
L 21.1875 5.171875 
L 29 5.171875 
L 29 0 
z
" id="DejaVuSerif-110"/>
       <path d="M 9.28125 3.515625 
L 9.28125 20.125 
L 14.890625 20.0625 
Q 15.140625 11.765625 19.703125 7.78125 
Q 24.265625 3.8125 33.59375 3.8125 
Q 42.28125 3.8125 46.84375 7.25 
Q 51.421875 10.6875 51.421875 17.28125 
Q 51.421875 22.5625 48.65625 25.390625 
Q 45.90625 28.21875 37.015625 30.90625 
L 27.390625 33.796875 
Q 16.9375 36.96875 12.671875 41.703125 
Q 8.40625 46.4375 8.40625 54.6875 
Q 8.40625 63.96875 14.984375 69.09375 
Q 21.578125 74.21875 33.5 74.21875 
Q 38.578125 74.21875 44.625 73.109375 
Q 50.6875 72.015625 57.515625 69.921875 
L 57.515625 54.390625 
L 52 54.390625 
Q 51.171875 62.109375 46.84375 65.546875 
Q 42.53125 69 33.6875 69 
Q 25.984375 69 21.953125 65.84375 
Q 17.921875 62.703125 17.921875 56.6875 
Q 17.921875 51.46875 20.9375 48.484375 
Q 23.96875 45.515625 33.796875 42.578125 
L 42.828125 39.890625 
Q 52.734375 36.921875 56.953125 32.296875 
Q 61.1875 27.6875 61.1875 19.921875 
Q 61.1875 9.328125 54.390625 3.953125 
Q 47.609375 -1.421875 34.1875 -1.421875 
Q 28.171875 -1.421875 21.9375 -0.1875 
Q 15.71875 1.03125 9.28125 3.515625 
z
" id="DejaVuSerif-83"/>
       <path d="M 54.203125 25 
L 15.484375 25 
L 15.484375 24.609375 
Q 15.484375 14.109375 19.4375 8.765625 
Q 23.390625 3.421875 31.109375 3.421875 
Q 37.015625 3.421875 40.796875 6.515625 
Q 44.578125 9.625 46.09375 15.71875 
L 53.328125 15.71875 
Q 51.171875 7.171875 45.375 2.875 
Q 39.59375 -1.421875 30.171875 -1.421875 
Q 18.796875 -1.421875 11.890625 6.078125 
Q 4.984375 13.578125 4.984375 25.984375 
Q 4.984375 38.28125 11.765625 45.796875 
Q 18.5625 53.328125 29.59375 53.328125 
Q 41.359375 53.328125 47.65625 46.0625 
Q 53.953125 38.8125 54.203125 25 
z
M 43.609375 30.171875 
Q 43.3125 39.265625 39.765625 43.875 
Q 36.234375 48.484375 29.59375 48.484375 
Q 23.390625 48.484375 19.828125 43.84375 
Q 16.265625 39.203125 15.484375 30.171875 
z
" id="DejaVuSerif-101"/>
       <path d="M 51.8125 41.796875 
Q 54.390625 47.515625 58.421875 50.421875 
Q 62.453125 53.328125 67.828125 53.328125 
Q 75.984375 53.328125 79.984375 48.265625 
Q 83.984375 43.21875 83.984375 33.015625 
L 83.984375 5.171875 
L 92.09375 5.171875 
L 92.09375 0 
L 67.1875 0 
L 67.1875 5.171875 
L 75 5.171875 
L 75 31.984375 
Q 75 39.9375 72.65625 43.3125 
Q 70.3125 46.6875 64.890625 46.6875 
Q 58.890625 46.6875 55.734375 42.140625 
Q 52.59375 37.59375 52.59375 28.90625 
L 52.59375 5.171875 
L 60.40625 5.171875 
L 60.40625 0 
L 35.796875 0 
L 35.796875 5.171875 
L 43.609375 5.171875 
L 43.609375 32.328125 
Q 43.609375 40.09375 41.265625 43.390625 
Q 38.921875 46.6875 33.5 46.6875 
Q 27.484375 46.6875 24.328125 42.140625 
Q 21.1875 37.59375 21.1875 28.90625 
L 21.1875 5.171875 
L 29 5.171875 
L 29 0 
L 4.109375 0 
L 4.109375 5.171875 
L 12.203125 5.171875 
L 12.203125 46.78125 
L 3.609375 46.78125 
L 3.609375 51.90625 
L 21.1875 51.90625 
L 21.1875 42.671875 
Q 23.6875 47.859375 27.53125 50.59375 
Q 31.390625 53.328125 36.28125 53.328125 
Q 42.328125 53.328125 46.375 50.3125 
Q 50.4375 47.3125 51.8125 41.796875 
z
" id="DejaVuSerif-109"/>
       <path d="M 5.609375 2.875 
L 5.609375 14.984375 
L 10.796875 14.984375 
Q 10.984375 9.1875 14.421875 6.296875 
Q 17.875 3.421875 24.609375 3.421875 
Q 30.671875 3.421875 33.84375 5.6875 
Q 37.015625 7.953125 37.015625 12.3125 
Q 37.015625 15.71875 34.6875 17.8125 
Q 32.375 19.921875 24.90625 22.3125 
L 18.40625 24.515625 
Q 11.71875 26.65625 8.71875 29.875 
Q 5.71875 33.109375 5.71875 38.09375 
Q 5.71875 45.21875 10.9375 49.265625 
Q 16.15625 53.328125 25.390625 53.328125 
Q 29.5 53.328125 34.03125 52.25 
Q 38.578125 51.171875 43.40625 49.125 
L 43.40625 37.796875 
L 38.234375 37.796875 
Q 38.03125 42.828125 34.703125 45.65625 
Q 31.390625 48.484375 25.6875 48.484375 
Q 20.015625 48.484375 17.109375 46.484375 
Q 14.203125 44.484375 14.203125 40.484375 
Q 14.203125 37.203125 16.40625 35.21875 
Q 18.609375 33.25 25.203125 31.203125 
L 32.328125 29 
Q 39.703125 26.703125 42.9375 23.265625 
Q 46.1875 19.828125 46.1875 14.40625 
Q 46.1875 7.03125 40.546875 2.796875 
Q 34.90625 -1.421875 25 -1.421875 
Q 19.96875 -1.421875 15.1875 -0.34375 
Q 10.40625 0.734375 5.609375 2.875 
z
" id="DejaVuSerif-115"/>
      </defs>
      <use xlink:href="#DejaVuSerif-84"/>
      <use x="58.949219" xlink:href="#DejaVuSerif-111"/>
      <use x="119.154297" xlink:href="#DejaVuSerif-116"/>
      <use x="159.339844" xlink:href="#DejaVuSerif-97"/>
      <use x="218.958984" xlink:href="#DejaVuSerif-108"/>
      <use x="250.941406" xlink:href="#DejaVuSerif-32"/>
      <use x="282.728516" xlink:href="#DejaVuSerif-82"/>
      <use x="358.021484" xlink:href="#DejaVuSerif-117"/>
      <use x="422.425781" xlink:href="#DejaVuSerif-110"/>
      <use x="486.830078" xlink:href="#DejaVuSerif-32"/>
      <use x="518.617188" xlink:href="#DejaVuSerif-83"/>
      <use x="587.123047" xlink:href="#DejaVuSerif-101"/>
      <use x="646.302734" xlink:href="#DejaVuSerif-103"/>
      <use x="710.316406" xlink:href="#DejaVuSerif-109"/>
      <use x="805.140625" xlink:href="#DejaVuSerif-101"/>
      <use x="864.320312" xlink:href="#DejaVuSerif-110"/>
      <use x="928.724609" xlink:href="#DejaVuSerif-116"/>
      <use x="968.910156" xlink:href="#DejaVuSerif-115"/>
     </g>
    </g>
   </g>
   <g id="PathCollection_1">
    <defs>
     <path d="M 0 1.5 
C 0.397805 1.5 0.77937 1.341951 1.06066 1.06066 
C 1.341951 0.77937 1.5 0.397805 1.5 -0 
C 1.5 -0.397805 1.341951 -0.77937 1.06066 -1.06066 
C 0.77937 -1.341951 0.397805 -1.5 0 -1.5 
C -0.397805 -1.5 -0.77937 -1.341951 -1.06066 -1.06066 
C -1.341951 -0.77937 -1.5 -0.397805 -1.5 0 
C -1.5 0.397805 -1.341951 0.77937 -1.06066 1.06066 
C -0.77937 1.341951 -0.397805 1.5 0 1.5 
z
" id="C0_0_120a7725dd"/>
    </defs>
    <g clip-path="url(#pbff9818f86)">
     <use style="fill:#a2a3af;" x="57.511365" xlink:href="#C0_0_120a7725dd" y="104.056892"/>
    </g>
    <g clip-path="url(#pbff9818f86)">
     <use style="fill:#a2a3af;" x="57.511365" xlink:href="#C0_0_120a7725dd" y="99.570155"/>
    </g>
    <g clip-path="url(#pbff9818f86)">
     <use style="fill:#a2a3af;" x="54.589831" xlink:href="#C0_0_120a7725dd" y="98.448471"/>
    </g>
    <g clip-path="url(#pbff9818f86)">
     <use style="fill:#a2a3af;" x="57.511365" xlink:href="#C0_0_120a7725dd" y="93.961734"/>
    </g>
    <g clip-path="url(#pbff9818f86)">
     <use style="fill:#a2a3af;" x="57.511365" xlink:href="#C0_0_120a7725dd" y="82.744891"/>
    </g>
    <g clip-path="url(#pbff9818f86)">
     <use style="fill:#a2a3af;" x="57.511365" xlink:href="#C0_0_120a7725dd" y="74.893101"/>
    </g>
    <g clip-path="url(#pbff9818f86)">
     <use style="fill:#a2a3af;" x="54.589831" xlink:href="#C0_0_120a7725dd" y="73.771417"/>
    </g>
    <g clip-path="url(#pbff9818f86)">
     <use style="fill:#a2a3af;" x="57.511365" xlink:href="#C0_0_120a7725dd" y="71.528048"/>
    </g>
    <g clip-path="url(#pbff9818f86)">
     <use style="fill:#a2a3af;" x="57.511365" xlink:href="#C0_0_120a7725dd" y="68.162995"/>
    </g>
    <g clip-path="url(#pbff9818f86)">
     <use style="fill:#a2a3af;" x="55.419967" xlink:href="#C0_0_120a7725dd" y="65.919627"/>
    </g>
    <g clip-path="url(#pbff9818f86)">
     <use style="fill:#a2a3af;" x="57.511365" xlink:href="#C0_0_120a7725dd" y="63.676258"/>
    </g>
    <g clip-path="url(#pbff9818f86)">
     <use style="fill:#a2a3af;" x="57.511365" xlink:href="#C0_0_120a7725dd" y="28.904045"/>
    </g>
   </g>
   <g id="PathCollection_2">
    <defs>
     <path d="M 0 1.5 
C 0.397805 1.5 0.77937 1.341951 1.06066 1.06066 
C 1.341951 0.77937 1.5 0.397805 1.5 -0 
C 1.5 -0.397805 1.341951 -0.77937 1.06066 -1.06066 
C 0.77937 -1.341951 0.397805 -1.5 0 -1.5 
C -0.397805 -1.5 -0.77937 -1.341951 -1.06066 -1.06066 
C -1.341951 -0.77937 -1.5 -0.397805 -1.5 0 
C -1.5 0.397805 -1.341951 0.77937 -1.06066 1.06066 
C -0.77937 1.341951 -0.397805 1.5 0 1.5 
z
" id="C1_0_f311cfe633"/>
    </defs>
    <g clip-path="url(#pbff9818f86)">
     <use style="fill:#4e2c43;" x="86.933469" xlink:href="#C1_0_f311cfe633" y="88.353312"/>
    </g>
    <g clip-path="url(#pbff9818f86)">
     <use style="fill:#4e2c43;" x="86.933469" xlink:href="#C1_0_f311cfe633" y="84.988259"/>
    </g>
    <g clip-path="url(#pbff9818f86)">
     <use style="fill:#4e2c43;" x="83.783469" xlink:href="#C1_0_f311cfe633" y="84.988259"/>
    </g>
    <g clip-path="url(#pbff9818f86)">
     <use style="fill:#4e2c43;" x="89.855003" xlink:href="#C1_0_f311cfe633" y="83.866575"/>
    </g>
    <g clip-path="url(#pbff9818f86)">
     <use style="fill:#4e2c43;" x="86.933469" xlink:href="#C1_0_f311cfe633" y="79.379838"/>
    </g>
    <g clip-path="url(#pbff9818f86)">
     <use style="fill:#4e2c43;" x="86.933469" xlink:href="#C1_0_f311cfe633" y="70.406364"/>
    </g>
    <g clip-path="url(#pbff9818f86)">
     <use style="fill:#4e2c43;" x="86.933469" xlink:href="#C1_0_f311cfe633" y="63.676258"/>
    </g>
    <g clip-path="url(#pbff9818f86)">
     <use style="fill:#4e2c43;" x="86.933469" xlink:href="#C1_0_f311cfe633" y="46.850994"/>
    </g>
    <g clip-path="url(#pbff9818f86)">
     <use style="fill:#4e2c43;" x="86.933469" xlink:href="#C1_0_f311cfe633" y="38.999204"/>
    </g>
    <g clip-path="url(#pbff9818f86)">
     <use style="fill:#4e2c43;" x="83.783469" xlink:href="#C1_0_f311cfe633" y="38.999204"/>
    </g>
    <g clip-path="url(#pbff9818f86)">
     <use style="fill:#4e2c43;" x="86.933469" xlink:href="#C1_0_f311cfe633" y="34.512467"/>
    </g>
    <g clip-path="url(#pbff9818f86)">
     <use style="fill:#4e2c43;" x="86.933469" xlink:href="#C1_0_f311cfe633" y="28.904045"/>
    </g>
   </g>
   <g id="LineCollection_1">
    <path clip-path="url(#pbff9818f86)" d="M 57.511365 77.136469 
L 101.644521 77.136469 
" style="fill:none;stroke:#262626;stroke-width:0.75;"/>
   </g>
   <g id="LineCollection_2">
    <path clip-path="url(#pbff9818f86)" d="M 86.933469 61.993732 
L 101.644521 61.993732 
" style="fill:none;stroke:#262626;stroke-width:0.75;"/>
   </g>
   <g id="axes_2">
    <g id="matplotlib.axis_3">
     <g id="xtick_3">
      <g id="line2d_7">
       <g>
        <use style="fill:#262626;stroke:#262626;stroke-width:0.8;" x="113.413363" xlink:href="#mcb61a3cf6c" y="107.814534"/>
       </g>
      </g>
      <g id="text_8">
       <!-- Tg -->
       <g style="fill:#262626;" transform="translate(108.184613 125.379534)scale(0.08 -0.08)">
        <use xlink:href="#DejaVuSerif-84"/>
        <use x="66.699219" xlink:href="#DejaVuSerif-103"/>
       </g>
       <!-- minus -->
       <g style="fill:#262626;" transform="translate(101.135863 134.451534)scale(0.08 -0.08)">
        <defs>
         <path d="M 9.71875 68.015625 
Q 9.71875 70.265625 11.34375 71.921875 
Q 12.984375 73.578125 15.28125 73.578125 
Q 17.53125 73.578125 19.15625 71.921875 
Q 20.796875 70.265625 20.796875 68.015625 
Q 20.796875 65.71875 19.1875 64.109375 
Q 17.578125 62.5 15.28125 62.5 
Q 12.984375 62.5 11.34375 64.109375 
Q 9.71875 65.71875 9.71875 68.015625 
z
M 21.1875 5.171875 
L 29.6875 5.171875 
L 29.6875 0 
L 3.609375 0 
L 3.609375 5.171875 
L 12.203125 5.171875 
L 12.203125 46.6875 
L 3.609375 46.6875 
L 3.609375 51.90625 
L 21.1875 51.90625 
z
" id="DejaVuSerif-105"/>
        </defs>
        <use xlink:href="#DejaVuSerif-109"/>
        <use x="94.824219" xlink:href="#DejaVuSerif-105"/>
        <use x="126.806641" xlink:href="#DejaVuSerif-110"/>
        <use x="191.210938" xlink:href="#DejaVuSerif-117"/>
        <use x="255.615234" xlink:href="#DejaVuSerif-115"/>
       </g>
       <!-- Wt -->
       <g style="fill:#262626;" transform="translate(107.694613 143.409784)scale(0.08 -0.08)">
        <use xlink:href="#DejaVuSerif-87"/>
        <use x="102.783203" xlink:href="#DejaVuSerif-116"/>
       </g>
      </g>
     </g>
    </g>
    <g id="matplotlib.axis_4">
     <g id="ytick_5">
      <g id="line2d_8">
       <defs>
        <path d="M 0 0 
L 6 0 
" id="m4f8fe23594" style="stroke:#262626;stroke-width:0.8;"/>
       </defs>
       <g>
        <use style="fill:#262626;stroke:#262626;stroke-width:0.8;" x="125.182204" xlink:href="#m4f8fe23594" y="99.570155"/>
       </g>
      </g>
      <g id="text_9">
       <!-- −20 -->
       <g style="fill:#262626;" transform="translate(136.782204 102.60953)scale(0.08 -0.08)">
        <defs>
         <path d="M 10.59375 35.296875 
L 73.1875 35.296875 
L 73.1875 27.390625 
L 10.59375 27.390625 
z
" id="DejaVuSerif-8722"/>
        </defs>
        <use xlink:href="#DejaVuSerif-8722"/>
        <use x="83.789062" xlink:href="#DejaVuSerif-50"/>
        <use x="147.412109" xlink:href="#DejaVuSerif-48"/>
       </g>
      </g>
     </g>
     <g id="ytick_6">
      <g id="line2d_9">
       <g>
        <use style="fill:#262626;stroke:#262626;stroke-width:0.8;" x="125.182204" xlink:href="#m4f8fe23594" y="77.136469"/>
       </g>
      </g>
      <g id="text_10">
       <!-- 0 -->
       <g style="fill:#262626;" transform="translate(136.782204 80.175844)scale(0.08 -0.08)">
        <use xlink:href="#DejaVuSerif-48"/>
       </g>
      </g>
     </g>
     <g id="ytick_7">
      <g id="line2d_10">
       <g>
        <use style="fill:#262626;stroke:#262626;stroke-width:0.8;" x="125.182204" xlink:href="#m4f8fe23594" y="54.702784"/>
       </g>
      </g>
      <g id="text_11">
       <!-- 20 -->
       <g style="fill:#262626;" transform="translate(136.782204 57.742159)scale(0.08 -0.08)">
        <use xlink:href="#DejaVuSerif-50"/>
        <use x="63.623047" xlink:href="#DejaVuSerif-48"/>
       </g>
      </g>
     </g>
     <g id="ytick_8">
      <g id="line2d_11">
       <g>
        <use style="fill:#262626;stroke:#262626;stroke-width:0.8;" x="125.182204" xlink:href="#m4f8fe23594" y="32.269098"/>
       </g>
      </g>
      <g id="text_12">
       <!-- 40 -->
       <g style="fill:#262626;" transform="translate(136.782204 35.308473)scale(0.08 -0.08)">
        <use xlink:href="#DejaVuSerif-52"/>
        <use x="63.623047" xlink:href="#DejaVuSerif-48"/>
       </g>
      </g>
     </g>
     <g id="text_13">
      <!-- Mean difference -->
      <g style="fill:#262626;" transform="translate(165.264392 108.139844)rotate(-90)scale(0.1 -0.1)">
       <defs>
        <path d="M 5.515625 0 
L 5.515625 5.171875 
L 14.796875 5.171875 
L 14.796875 67.671875 
L 4.984375 67.671875 
L 4.984375 72.90625 
L 26.21875 72.90625 
L 51.8125 21 
L 77.390625 72.90625 
L 97.3125 72.90625 
L 97.3125 67.671875 
L 87.59375 67.671875 
L 87.59375 5.171875 
L 96.921875 5.171875 
L 96.921875 0 
L 68.40625 0 
L 68.40625 5.171875 
L 77.6875 5.171875 
L 77.6875 61.53125 
L 52.6875 10.6875 
L 45.796875 10.6875 
L 20.796875 61.53125 
L 20.796875 5.171875 
L 30.078125 5.171875 
L 30.078125 0 
z
" id="DejaVuSerif-77"/>
        <path d="M 52.484375 5.171875 
L 61.078125 5.171875 
L 61.078125 0 
L 43.5 0 
L 43.5 8.109375 
Q 40.875 3.21875 36.796875 0.890625 
Q 32.71875 -1.421875 26.703125 -1.421875 
Q 17.140625 -1.421875 11.0625 6.171875 
Q 4.984375 13.765625 4.984375 25.984375 
Q 4.984375 38.1875 11.03125 45.75 
Q 17.09375 53.328125 26.703125 53.328125 
Q 32.71875 53.328125 36.796875 51 
Q 40.875 48.6875 43.5 43.796875 
L 43.5 70.796875 
L 35.015625 70.796875 
L 35.015625 75.984375 
L 52.484375 75.984375 
z
M 43.5 23.390625 
L 43.5 28.515625 
Q 43.5 37.84375 39.90625 42.765625 
Q 36.328125 47.703125 29.5 47.703125 
Q 22.5625 47.703125 19.015625 42.234375 
Q 15.484375 36.765625 15.484375 25.984375 
Q 15.484375 15.234375 19.015625 9.71875 
Q 22.5625 4.203125 29.5 4.203125 
Q 36.328125 4.203125 39.90625 9.109375 
Q 43.5 14.015625 43.5 23.390625 
z
" id="DejaVuSerif-100"/>
        <path d="M 43.015625 63.71875 
L 38.28125 63.71875 
Q 38.234375 67.390625 36.203125 69.28125 
Q 34.1875 71.1875 30.328125 71.1875 
Q 25.296875 71.1875 23.234375 68.421875 
Q 21.1875 65.671875 21.1875 58.59375 
L 21.1875 51.90625 
L 35.6875 51.90625 
L 35.6875 46.6875 
L 21.1875 46.6875 
L 21.1875 5.171875 
L 32.71875 5.171875 
L 32.71875 0 
L 3.609375 0 
L 3.609375 5.171875 
L 12.203125 5.171875 
L 12.203125 46.6875 
L 3.609375 46.6875 
L 3.609375 51.90625 
L 12.203125 51.90625 
L 12.203125 58.40625 
Q 12.203125 67.09375 16.71875 71.53125 
Q 21.234375 75.984375 29.984375 75.984375 
Q 33.25 75.984375 36.515625 75.390625 
Q 39.796875 74.8125 43.015625 73.578125 
z
" id="DejaVuSerif-102"/>
        <path d="M 47.796875 52 
L 47.796875 39.015625 
L 42.625 39.015625 
Q 42.390625 42.875 40.484375 44.78125 
Q 38.578125 46.6875 34.90625 46.6875 
Q 28.265625 46.6875 24.71875 42.09375 
Q 21.1875 37.5 21.1875 28.90625 
L 21.1875 5.171875 
L 31.59375 5.171875 
L 31.59375 0 
L 4.109375 0 
L 4.109375 5.171875 
L 12.203125 5.171875 
L 12.203125 46.78125 
L 3.609375 46.78125 
L 3.609375 51.90625 
L 21.1875 51.90625 
L 21.1875 42.671875 
Q 23.828125 48.09375 27.96875 50.703125 
Q 32.125 53.328125 38.09375 53.328125 
Q 40.28125 53.328125 42.703125 52.984375 
Q 45.125 52.640625 47.796875 52 
z
" id="DejaVuSerif-114"/>
        <path d="M 51.421875 15.578125 
Q 49.515625 7.28125 44.09375 2.921875 
Q 38.671875 -1.421875 30.078125 -1.421875 
Q 18.75 -1.421875 11.859375 6.078125 
Q 4.984375 13.578125 4.984375 25.984375 
Q 4.984375 38.421875 11.859375 45.875 
Q 18.75 53.328125 30.078125 53.328125 
Q 35.015625 53.328125 39.890625 52.171875 
Q 44.78125 51.03125 49.703125 48.6875 
L 49.703125 35.40625 
L 44.484375 35.40625 
Q 43.453125 42.234375 40.015625 45.359375 
Q 36.578125 48.484375 30.171875 48.484375 
Q 22.90625 48.484375 19.1875 42.84375 
Q 15.484375 37.203125 15.484375 25.984375 
Q 15.484375 14.75 19.171875 9.078125 
Q 22.859375 3.421875 30.171875 3.421875 
Q 35.984375 3.421875 39.453125 6.4375 
Q 42.921875 9.46875 44.1875 15.578125 
z
" id="DejaVuSerif-99"/>
       </defs>
       <use xlink:href="#DejaVuSerif-77"/>
       <use x="102.392578" xlink:href="#DejaVuSerif-101"/>
       <use x="161.572266" xlink:href="#DejaVuSerif-97"/>
       <use x="221.191406" xlink:href="#DejaVuSerif-110"/>
       <use x="285.595703" xlink:href="#DejaVuSerif-32"/>
       <use x="317.382812" xlink:href="#DejaVuSerif-100"/>
       <use x="381.396484" xlink:href="#DejaVuSerif-105"/>
       <use x="413.378906" xlink:href="#DejaVuSerif-102"/>
       <use x="450.390625" xlink:href="#DejaVuSerif-102"/>
       <use x="487.402344" xlink:href="#DejaVuSerif-101"/>
       <use x="546.582031" xlink:href="#DejaVuSerif-114"/>
       <use x="594.384766" xlink:href="#DejaVuSerif-101"/>
       <use x="653.564453" xlink:href="#DejaVuSerif-110"/>
       <use x="717.96875" xlink:href="#DejaVuSerif-99"/>
       <use x="773.974609" xlink:href="#DejaVuSerif-101"/>
      </g>
     </g>
    </g>
    <g id="PolyCollection_1">
     <defs>
      <path d="M 113.422921 -55.133695 
L 113.413489 -55.133695 
L 113.413489 -55.848439 
L 113.413489 -56.563182 
L 113.413489 -57.277925 
L 113.413489 -57.992668 
L 113.413489 -58.707412 
L 113.413489 -59.422155 
L 113.413489 -60.136898 
L 113.413489 -60.851641 
L 113.413489 -61.566385 
L 113.413489 -62.281128 
L 113.413489 -62.995871 
L 113.413489 -63.710615 
L 113.413489 -64.425358 
L 113.413489 -65.140101 
L 113.413489 -65.854844 
L 113.413489 -66.569588 
L 113.413489 -67.284331 
L 113.413489 -67.999074 
L 113.413489 -68.713817 
L 113.413489 -69.428561 
L 113.413489 -70.143304 
L 113.413489 -70.858047 
L 113.413489 -71.57279 
L 113.413489 -72.287534 
L 113.413489 -73.002277 
L 113.413489 -73.71702 
L 113.413489 -74.431764 
L 113.413489 -75.146507 
L 113.413489 -75.86125 
L 113.413489 -76.575993 
L 113.413489 -77.290737 
L 113.413489 -78.00548 
L 113.413489 -78.720223 
L 113.413489 -79.434966 
L 113.413489 -80.14971 
L 113.413489 -80.864453 
L 113.413489 -81.579196 
L 113.413489 -82.293939 
L 113.413489 -83.008683 
L 113.413489 -83.723426 
L 113.413489 -84.438169 
L 113.413489 -85.152912 
L 113.413489 -85.867656 
L 113.413489 -86.582399 
L 113.413489 -87.297142 
L 113.413489 -88.011886 
L 113.413489 -88.726629 
L 113.413489 -89.441372 
L 113.413489 -90.156115 
L 113.413489 -90.870859 
L 113.413489 -91.585602 
L 113.413489 -92.300345 
L 113.413489 -93.015088 
L 113.413489 -93.729832 
L 113.413489 -94.444575 
L 113.413489 -95.159318 
L 113.413489 -95.874061 
L 113.413489 -96.588805 
L 113.413489 -97.303548 
L 113.413489 -98.018291 
L 113.413489 -98.733034 
L 113.413489 -99.447778 
L 113.413489 -100.162521 
L 113.413489 -100.877264 
L 113.413489 -101.592008 
L 113.413489 -102.306751 
L 113.413489 -103.021494 
L 113.413489 -103.736237 
L 113.413489 -104.450981 
L 113.413489 -105.165724 
L 113.413489 -105.880467 
L 113.413489 -106.59521 
L 113.413489 -107.309954 
L 113.413489 -108.024697 
L 113.413489 -108.73944 
L 113.413489 -109.454183 
L 113.413489 -110.168927 
L 113.413489 -110.88367 
L 113.413489 -111.598413 
L 113.413489 -112.313156 
L 113.413489 -113.0279 
L 113.413489 -113.742643 
L 113.413489 -114.457386 
L 113.413489 -115.17213 
L 113.413489 -115.886873 
L 113.413489 -116.601616 
L 113.413489 -117.316359 
L 113.413489 -118.031103 
L 113.413489 -118.745846 
L 113.413489 -119.460589 
L 113.413489 -120.175332 
L 113.413489 -120.890076 
L 113.413489 -121.604819 
L 113.413489 -122.319562 
L 113.413489 -123.034305 
L 113.413489 -123.749049 
L 113.413489 -124.463792 
L 113.413489 -125.178535 
L 113.413489 -125.893279 
L 113.419837 -125.893279 
L 113.419837 -125.893279 
L 113.419198 -125.178535 
L 113.417636 -124.463792 
L 113.415905 -123.749049 
L 113.414593 -123.034305 
L 113.413853 -122.319562 
L 113.413555 -121.604819 
L 113.413557 -120.890076 
L 113.413895 -120.175332 
L 113.414865 -119.460589 
L 113.417071 -118.745846 
L 113.421469 -118.031103 
L 113.429448 -117.316359 
L 113.442844 -116.601616 
L 113.463604 -115.886873 
L 113.493035 -115.17213 
L 113.531318 -114.457386 
L 113.577937 -113.742643 
L 113.632385 -113.0279 
L 113.693909 -112.313156 
L 113.760759 -111.598413 
L 113.830854 -110.88367 
L 113.903581 -110.168927 
L 113.97986 -109.454183 
L 114.060028 -108.73944 
L 114.143364 -108.024697 
L 114.231188 -107.309954 
L 114.329983 -106.59521 
L 114.450286 -105.880467 
L 114.601976 -105.165724 
L 114.790278 -104.450981 
L 115.015796 -103.736237 
L 115.278096 -103.021494 
L 115.578452 -102.306751 
L 115.916198 -101.592008 
L 116.27911 -100.877264 
L 116.639179 -100.162521 
L 116.964762 -99.447778 
L 117.241449 -98.733034 
L 117.479805 -98.018291 
L 117.701449 -97.303548 
L 117.919527 -96.588805 
L 118.133212 -95.874061 
L 118.336897 -95.159318 
L 118.529311 -94.444575 
L 118.712528 -93.729832 
L 118.885741 -93.015088 
L 119.042764 -92.300345 
L 119.17333 -91.585602 
L 119.263666 -90.870859 
L 119.297784 -90.156115 
L 119.264265 -89.441372 
L 119.166096 -88.726629 
L 119.022947 -88.011886 
L 118.859666 -87.297142 
L 118.689512 -86.582399 
L 118.507853 -85.867656 
L 118.301026 -85.152912 
L 118.059976 -84.438169 
L 117.787379 -83.723426 
L 117.49635 -83.008683 
L 117.203608 -82.293939 
L 116.920519 -81.579196 
L 116.647438 -80.864453 
L 116.376105 -80.14971 
L 116.0989 -79.434966 
L 115.817769 -78.720223 
L 115.544697 -78.00548 
L 115.292935 -77.290737 
L 115.068508 -76.575993 
L 114.870777 -75.86125 
L 114.698231 -75.146507 
L 114.549935 -74.431764 
L 114.421655 -73.71702 
L 114.304048 -73.002277 
L 114.187394 -72.287534 
L 114.068728 -71.57279 
L 113.95386 -70.858047 
L 113.852192 -70.143304 
L 113.769794 -69.428561 
L 113.706635 -68.713817 
L 113.658197 -67.999074 
L 113.618417 -67.284331 
L 113.582136 -66.569588 
L 113.546852 -65.854844 
L 113.513409 -65.140101 
L 113.48495 -64.425358 
L 113.464318 -63.710615 
L 113.451714 -62.995871 
L 113.44468 -62.281128 
L 113.44027 -61.566385 
L 113.437111 -60.851641 
L 113.435431 -60.136898 
L 113.435443 -59.422155 
L 113.436079 -58.707412 
L 113.435564 -57.992668 
L 113.433083 -57.277925 
L 113.429421 -56.563182 
L 113.425862 -55.848439 
L 113.422921 -55.133695 
z
" id="mb3f0defdd1"/>
     </defs>
     <g clip-path="url(#p140ad7245e)">
      <use style="fill:#601a4a;fill-opacity:0.8;" x="0" xlink:href="#mb3f0defdd1" y="152.273534"/>
     </g>
    </g>
    <g id="LineCollection_3">
     <path clip-path="url(#p140ad7245e)" d="M 89.875679 77.136469 
L 125.182204 77.136469 
" style="fill:none;stroke:#262626;stroke-width:0.75;"/>
    </g>
    <g id="LineCollection_4">
     <path clip-path="url(#p140ad7245e)" d="M 99.290753 61.993732 
L 125.182204 61.993732 
" style="fill:none;stroke:#262626;stroke-width:0.75;"/>
    </g>
    <g id="line2d_12">
     <path clip-path="url(#p140ad7245e)" d="M 113.413363 61.993732 
" style="fill:none;stroke:#262626;stroke-linecap:round;stroke-width:1.4;"/>
     <defs>
      <path d="M 0 2 
C 0.530406 2 1.03916 1.789267 1.414214 1.414214 
C 1.789267 1.03916 2 0.530406 2 0 
C 2 -0.530406 1.789267 -1.03916 1.414214 -1.414214 
C 1.03916 -1.789267 0.530406 -2 0 -2 
C -0.530406 -2 -1.03916 -1.789267 -1.414214 -1.414214 
C -1.789267 -1.03916 -2 -0.530406 -2 0 
C -2 0.530406 -1.789267 1.03916 -1.414214 1.414214 
C -1.03916 1.789267 -0.530406 2 0 2 
z
" id="m517b1c9516"/>
     </defs>
     <g clip-path="url(#p140ad7245e)">
      <use style="fill:#262626;" x="113.413363" xlink:href="#m517b1c9516" y="61.993732"/>
     </g>
    </g>
    <g id="line2d_13">
     <path clip-path="url(#p140ad7245e)" d="M 113.413363 79.473312 
L 113.413363 45.168467 
" style="fill:none;stroke:#262626;stroke-linecap:round;stroke-width:2;"/>
    </g>
    <g id="LineCollection_5">
     <defs>
      <path d="M 106.352058 -44.459 
L 125.182204 -44.459 
" id="me934c1fa36" style="stroke:#262626;"/>
     </defs>
     <g>
      <use style="fill:#262626;stroke:#262626;" x="0" xlink:href="#me934c1fa36" y="152.273534"/>
     </g>
    </g>
    <g id="LineCollection_6">
     <defs>
      <path d="M 125.182204 -44.459 
L 125.182204 -127.127131 
" id="m70c3a79a23" style="stroke:#262626;"/>
     </defs>
     <g>
      <use style="fill:#262626;stroke:#262626;" x="0" xlink:href="#m70c3a79a23" y="152.273534"/>
     </g>
    </g>
   </g>
   <g id="LineCollection_7">
    <defs>
     <path d="M 42.800313 -44.459 
L 95.7601 -44.459 
" id="mf5cca015d8" style="stroke:#262626;"/>
    </defs>
    <g>
     <use style="fill:#262626;stroke:#262626;" x="0" xlink:href="#mf5cca015d8" y="152.273534"/>
    </g>
   </g>
   <g id="LineCollection_8">
    <defs>
     <path d="M 42.800313 -44.459 
L 42.800313 -127.127131 
" id="m35959b3da5" style="stroke:#262626;"/>
    </defs>
    <g>
     <use style="fill:#262626;stroke:#262626;" x="0" xlink:href="#m35959b3da5" y="152.273534"/>
    </g>
   </g>
  </g>
  <g id="axes_3">
   <g id="matplotlib.axis_5">
    <g id="xtick_4">
     <g id="line2d_14">
      <g>
       <use style="fill:#262626;stroke:#262626;stroke-width:0.8;" x="222.275149" xlink:href="#mcb61a3cf6c" y="107.814534"/>
      </g>
     </g>
     <g id="text_14">
      <!-- Wt -->
      <g style="fill:#262626;" transform="translate(216.556399 125.493284)scale(0.08 -0.08)">
       <use xlink:href="#DejaVuSerif-87"/>
       <use x="102.783203" xlink:href="#DejaVuSerif-116"/>
      </g>
      <!-- N = 12 -->
      <g style="fill:#262626;" transform="translate(207.790774 134.451534)scale(0.08 -0.08)">
       <use xlink:href="#DejaVuSerif-78"/>
       <use x="87.5" xlink:href="#DejaVuSerif-32"/>
       <use x="119.287109" xlink:href="#DejaVuSerif-61"/>
       <use x="203.076172" xlink:href="#DejaVuSerif-32"/>
       <use x="234.863281" xlink:href="#DejaVuSerif-49"/>
       <use x="298.486328" xlink:href="#DejaVuSerif-50"/>
      </g>
     </g>
    </g>
    <g id="xtick_5">
     <g id="line2d_15">
      <g>
       <use style="fill:#262626;stroke:#262626;stroke-width:0.8;" x="251.697253" xlink:href="#mcb61a3cf6c" y="107.814534"/>
      </g>
     </g>
     <g id="text_15">
      <!-- Tg -->
      <g style="fill:#262626;" transform="translate(246.468503 125.379534)scale(0.08 -0.08)">
       <use xlink:href="#DejaVuSerif-84"/>
       <use x="66.699219" xlink:href="#DejaVuSerif-103"/>
      </g>
      <!-- N = 12 -->
      <g style="fill:#262626;" transform="translate(237.212878 134.451534)scale(0.08 -0.08)">
       <use xlink:href="#DejaVuSerif-78"/>
       <use x="87.5" xlink:href="#DejaVuSerif-32"/>
       <use x="119.287109" xlink:href="#DejaVuSerif-61"/>
       <use x="203.076172" xlink:href="#DejaVuSerif-32"/>
       <use x="234.863281" xlink:href="#DejaVuSerif-49"/>
       <use x="298.486328" xlink:href="#DejaVuSerif-50"/>
      </g>
     </g>
    </g>
   </g>
   <g id="matplotlib.axis_6">
    <g id="ytick_9">
     <g id="line2d_16">
      <g>
       <use style="fill:#262626;stroke:#262626;stroke-width:0.8;" x="207.564096" xlink:href="#m7311a879a7" y="79.320415"/>
      </g>
     </g>
     <g id="text_16">
      <!-- 15 -->
      <g style="fill:#262626;" transform="translate(185.784096 82.35979)scale(0.08 -0.08)">
       <defs>
        <path d="M 50.296875 72.90625 
L 50.296875 64.890625 
L 16.890625 64.890625 
L 16.890625 44 
Q 19.4375 45.75 22.828125 46.625 
Q 26.21875 47.515625 30.421875 47.515625 
Q 42.234375 47.515625 49.0625 40.96875 
Q 55.90625 34.421875 55.90625 23.09375 
Q 55.90625 11.53125 49 5.046875 
Q 42.09375 -1.421875 29.59375 -1.421875 
Q 24.5625 -1.421875 19.28125 -0.1875 
Q 14.015625 1.03125 8.5 3.515625 
L 8.5 17.671875 
L 14.015625 17.671875 
Q 14.453125 10.75 18.421875 7.078125 
Q 22.40625 3.421875 29.59375 3.421875 
Q 37.3125 3.421875 41.453125 8.5 
Q 45.609375 13.578125 45.609375 23.09375 
Q 45.609375 32.5625 41.484375 37.609375 
Q 37.359375 42.671875 29.59375 42.671875 
Q 25.203125 42.671875 21.84375 41.109375 
Q 18.5 39.546875 15.921875 36.28125 
L 11.71875 36.28125 
L 11.71875 72.90625 
z
" id="DejaVuSerif-53"/>
       </defs>
       <use xlink:href="#DejaVuSerif-49"/>
       <use x="63.623047" xlink:href="#DejaVuSerif-53"/>
      </g>
     </g>
    </g>
    <g id="ytick_10">
     <g id="line2d_17">
      <g>
       <use style="fill:#262626;stroke:#262626;stroke-width:0.8;" x="207.564096" xlink:href="#m7311a879a7" y="48.212887"/>
      </g>
     </g>
     <g id="text_17">
      <!-- 20 -->
      <g style="fill:#262626;" transform="translate(185.784096 51.252262)scale(0.08 -0.08)">
       <use xlink:href="#DejaVuSerif-50"/>
       <use x="63.623047" xlink:href="#DejaVuSerif-48"/>
      </g>
     </g>
    </g>
    <g id="text_18">
     <!-- Segment Distance (cm) -->
     <g style="fill:#262626;" transform="translate(179.562221 125.760938)rotate(-90)scale(0.1 -0.1)">
      <defs>
       <path d="M 24.703125 5.171875 
L 33.796875 5.171875 
Q 48 5.171875 55.59375 13.28125 
Q 63.1875 21.390625 63.1875 36.53125 
Q 63.1875 51.65625 55.609375 59.65625 
Q 48.046875 67.671875 33.796875 67.671875 
L 24.703125 67.671875 
z
M 5.515625 0 
L 5.515625 5.171875 
L 14.796875 5.171875 
L 14.796875 67.671875 
L 5.515625 67.671875 
L 5.515625 72.90625 
L 34.515625 72.90625 
Q 53.375 72.90625 63.890625 63.28125 
Q 74.421875 53.65625 74.421875 36.53125 
Q 74.421875 19.34375 63.875 9.671875 
Q 53.328125 0 34.515625 0 
z
" id="DejaVuSerif-68"/>
       <path d="M 31.890625 -15.578125 
Q 20.015625 -10.25 13.953125 1.296875 
Q 7.90625 12.84375 7.90625 30.171875 
Q 7.90625 47.5625 13.953125 59.109375 
Q 20.015625 70.65625 31.890625 75.984375 
L 31.890625 71.1875 
Q 24.359375 66.015625 21.09375 56.609375 
Q 17.828125 47.21875 17.828125 30.171875 
Q 17.828125 13.1875 21.09375 3.78125 
Q 24.359375 -5.609375 31.890625 -10.796875 
z
" id="DejaVuSerif-40"/>
       <path d="M 7.078125 -15.578125 
L 7.078125 -10.796875 
Q 14.59375 -5.609375 17.890625 3.78125 
Q 21.1875 13.1875 21.1875 30.171875 
Q 21.1875 47.21875 17.890625 56.609375 
Q 14.59375 66.015625 7.078125 71.1875 
L 7.078125 75.984375 
Q 19 70.65625 25.046875 59.109375 
Q 31.109375 47.5625 31.109375 30.171875 
Q 31.109375 12.84375 25.046875 1.296875 
Q 19 -10.25 7.078125 -15.578125 
z
" id="DejaVuSerif-41"/>
      </defs>
      <use xlink:href="#DejaVuSerif-83"/>
      <use x="68.505859" xlink:href="#DejaVuSerif-101"/>
      <use x="127.685547" xlink:href="#DejaVuSerif-103"/>
      <use x="191.699219" xlink:href="#DejaVuSerif-109"/>
      <use x="286.523438" xlink:href="#DejaVuSerif-101"/>
      <use x="345.703125" xlink:href="#DejaVuSerif-110"/>
      <use x="410.107422" xlink:href="#DejaVuSerif-116"/>
      <use x="450.292969" xlink:href="#DejaVuSerif-32"/>
      <use x="482.080078" xlink:href="#DejaVuSerif-68"/>
      <use x="562.255859" xlink:href="#DejaVuSerif-105"/>
      <use x="594.238281" xlink:href="#DejaVuSerif-115"/>
      <use x="645.556641" xlink:href="#DejaVuSerif-116"/>
      <use x="685.742188" xlink:href="#DejaVuSerif-97"/>
      <use x="745.361328" xlink:href="#DejaVuSerif-110"/>
      <use x="809.765625" xlink:href="#DejaVuSerif-99"/>
      <use x="865.771484" xlink:href="#DejaVuSerif-101"/>
      <use x="924.951172" xlink:href="#DejaVuSerif-32"/>
      <use x="956.738281" xlink:href="#DejaVuSerif-40"/>
      <use x="995.751953" xlink:href="#DejaVuSerif-99"/>
      <use x="1051.757812" xlink:href="#DejaVuSerif-109"/>
      <use x="1146.582031" xlink:href="#DejaVuSerif-41"/>
     </g>
    </g>
   </g>
   <g id="PathCollection_3">
    <defs>
     <path d="M 0 1.5 
C 0.397805 1.5 0.77937 1.341951 1.06066 1.06066 
C 1.341951 0.77937 1.5 0.397805 1.5 -0 
C 1.5 -0.397805 1.341951 -0.77937 1.06066 -1.06066 
C 0.77937 -1.341951 0.397805 -1.5 0 -1.5 
C -0.397805 -1.5 -0.77937 -1.341951 -1.06066 -1.06066 
C -1.341951 -0.77937 -1.5 -0.397805 -1.5 0 
C -1.5 0.397805 -1.341951 0.77937 -1.06066 1.06066 
C -0.77937 1.341951 -0.397805 1.5 0 1.5 
z
" id="C2_0_bfe8999bcd"/>
    </defs>
    <g clip-path="url(#p86e60179fd)">
     <use style="fill:#a2a3af;" x="222.275149" xlink:href="#C2_0_bfe8999bcd" y="104.056892"/>
    </g>
    <g clip-path="url(#p86e60179fd)">
     <use style="fill:#a2a3af;" x="222.275149" xlink:href="#C2_0_bfe8999bcd" y="97.915553"/>
    </g>
    <g clip-path="url(#p86e60179fd)">
     <use style="fill:#a2a3af;" x="219.156489" xlink:href="#C2_0_bfe8999bcd" y="97.493418"/>
    </g>
    <g clip-path="url(#p86e60179fd)">
     <use style="fill:#a2a3af;" x="222.275149" xlink:href="#C2_0_bfe8999bcd" y="90.629298"/>
    </g>
    <g clip-path="url(#p86e60179fd)">
     <use style="fill:#a2a3af;" x="219.604063" xlink:href="#C2_0_bfe8999bcd" y="89.039135"/>
    </g>
    <g clip-path="url(#p86e60179fd)">
     <use style="fill:#a2a3af;" x="222.275149" xlink:href="#C2_0_bfe8999bcd" y="84.560074"/>
    </g>
    <g clip-path="url(#p86e60179fd)">
     <use style="fill:#a2a3af;" x="219.183623" xlink:href="#C2_0_bfe8999bcd" y="83.984715"/>
    </g>
    <g clip-path="url(#p86e60179fd)">
     <use style="fill:#a2a3af;" x="222.275149" xlink:href="#C2_0_bfe8999bcd" y="78.500855"/>
    </g>
    <g clip-path="url(#p86e60179fd)">
     <use style="fill:#a2a3af;" x="221.296674" xlink:href="#C2_0_bfe8999bcd" y="75.649259"/>
    </g>
    <g clip-path="url(#p86e60179fd)">
     <use style="fill:#a2a3af;" x="222.275149" xlink:href="#C2_0_bfe8999bcd" y="67.540038"/>
    </g>
    <g clip-path="url(#p86e60179fd)">
     <use style="fill:#a2a3af;" x="219.984665" xlink:href="#C2_0_bfe8999bcd" y="65.480563"/>
    </g>
    <g clip-path="url(#p86e60179fd)">
     <use style="fill:#a2a3af;" x="222.275149" xlink:href="#C2_0_bfe8999bcd" y="58.187571"/>
    </g>
   </g>
   <g id="PathCollection_4">
    <defs>
     <path d="M 0 1.5 
C 0.397805 1.5 0.77937 1.341951 1.06066 1.06066 
C 1.341951 0.77937 1.5 0.397805 1.5 -0 
C 1.5 -0.397805 1.341951 -0.77937 1.06066 -1.06066 
C 0.77937 -1.341951 0.397805 -1.5 0 -1.5 
C -0.397805 -1.5 -0.77937 -1.341951 -1.06066 -1.06066 
C -1.341951 -0.77937 -1.5 -0.397805 -1.5 0 
C -1.5 0.397805 -1.341951 0.77937 -1.06066 1.06066 
C -0.77937 1.341951 -0.397805 1.5 0 1.5 
z
" id="C3_0_0fe91fc556"/>
    </defs>
    <g clip-path="url(#p86e60179fd)">
     <use style="fill:#4e2c43;" x="251.697253" xlink:href="#C3_0_0fe91fc556" y="103.726453"/>
    </g>
    <g clip-path="url(#p86e60179fd)">
     <use style="fill:#4e2c43;" x="248.843325" xlink:href="#C3_0_0fe91fc556" y="102.456676"/>
    </g>
    <g clip-path="url(#p86e60179fd)">
     <use style="fill:#4e2c43;" x="253.947373" xlink:href="#C3_0_0fe91fc556" y="101.627007"/>
    </g>
    <g clip-path="url(#p86e60179fd)">
     <use style="fill:#4e2c43;" x="251.697253" xlink:href="#C3_0_0fe91fc556" y="97.750456"/>
    </g>
    <g clip-path="url(#p86e60179fd)">
     <use style="fill:#4e2c43;" x="251.697253" xlink:href="#C3_0_0fe91fc556" y="89.518998"/>
    </g>
    <g clip-path="url(#p86e60179fd)">
     <use style="fill:#4e2c43;" x="251.697253" xlink:href="#C3_0_0fe91fc556" y="79.190363"/>
    </g>
    <g clip-path="url(#p86e60179fd)">
     <use style="fill:#4e2c43;" x="251.697253" xlink:href="#C3_0_0fe91fc556" y="65.786573"/>
    </g>
    <g clip-path="url(#p86e60179fd)">
     <use style="fill:#4e2c43;" x="249.558891" xlink:href="#C3_0_0fe91fc556" y="63.583729"/>
    </g>
    <g clip-path="url(#p86e60179fd)">
     <use style="fill:#4e2c43;" x="251.872377" xlink:href="#C3_0_0fe91fc556" y="61.547708"/>
    </g>
    <g clip-path="url(#p86e60179fd)">
     <use style="fill:#4e2c43;" x="251.697253" xlink:href="#C3_0_0fe91fc556" y="45.934983"/>
    </g>
    <g clip-path="url(#p86e60179fd)">
     <use style="fill:#4e2c43;" x="251.697253" xlink:href="#C3_0_0fe91fc556" y="31.689913"/>
    </g>
    <g clip-path="url(#p86e60179fd)">
     <use style="fill:#4e2c43;" x="250.528522" xlink:href="#C3_0_0fe91fc556" y="28.904045"/>
    </g>
   </g>
   <g id="LineCollection_9">
    <path clip-path="url(#p86e60179fd)" d="M 222.275149 84.272394 
L 266.408305 84.272394 
" style="fill:none;stroke:#262626;stroke-width:0.75;"/>
   </g>
   <g id="LineCollection_10">
    <path clip-path="url(#p86e60179fd)" d="M 251.697253 72.488468 
L 266.408305 72.488468 
" style="fill:none;stroke:#262626;stroke-width:0.75;"/>
   </g>
   <g id="axes_4">
    <g id="matplotlib.axis_7">
     <g id="xtick_6">
      <g id="line2d_18">
       <g>
        <use style="fill:#262626;stroke:#262626;stroke-width:0.8;" x="278.177147" xlink:href="#mcb61a3cf6c" y="107.814534"/>
       </g>
      </g>
      <g id="text_19">
       <!-- Tg -->
       <g style="fill:#262626;" transform="translate(272.948397 125.379534)scale(0.08 -0.08)">
        <use xlink:href="#DejaVuSerif-84"/>
        <use x="66.699219" xlink:href="#DejaVuSerif-103"/>
       </g>
       <!-- minus -->
       <g style="fill:#262626;" transform="translate(265.899647 134.451534)scale(0.08 -0.08)">
        <use xlink:href="#DejaVuSerif-109"/>
        <use x="94.824219" xlink:href="#DejaVuSerif-105"/>
        <use x="126.806641" xlink:href="#DejaVuSerif-110"/>
        <use x="191.210938" xlink:href="#DejaVuSerif-117"/>
        <use x="255.615234" xlink:href="#DejaVuSerif-115"/>
       </g>
       <!-- Wt -->
       <g style="fill:#262626;" transform="translate(272.458397 143.409784)scale(0.08 -0.08)">
        <use xlink:href="#DejaVuSerif-87"/>
        <use x="102.783203" xlink:href="#DejaVuSerif-116"/>
       </g>
      </g>
     </g>
    </g>
    <g id="matplotlib.axis_8">
     <g id="ytick_11">
      <g id="line2d_19">
       <g>
        <use style="fill:#262626;stroke:#262626;stroke-width:0.8;" x="289.945988" xlink:href="#m4f8fe23594" y="84.272394"/>
       </g>
      </g>
      <g id="text_20">
       <!-- 0 -->
       <g style="fill:#262626;" transform="translate(301.545988 87.311769)scale(0.08 -0.08)">
        <use xlink:href="#DejaVuSerif-48"/>
       </g>
      </g>
     </g>
     <g id="ytick_12">
      <g id="line2d_20">
       <g>
        <use style="fill:#262626;stroke:#262626;stroke-width:0.8;" x="289.945988" xlink:href="#m4f8fe23594" y="53.164867"/>
       </g>
      </g>
      <g id="text_21">
       <!-- 5 -->
       <g style="fill:#262626;" transform="translate(301.545988 56.204242)scale(0.08 -0.08)">
        <use xlink:href="#DejaVuSerif-53"/>
       </g>
      </g>
     </g>
     <g id="text_22">
      <!-- Median difference -->
      <g style="fill:#262626;" transform="translate(318.234426 112.939844)rotate(-90)scale(0.1 -0.1)">
       <use xlink:href="#DejaVuSerif-77"/>
       <use x="102.392578" xlink:href="#DejaVuSerif-101"/>
       <use x="161.572266" xlink:href="#DejaVuSerif-100"/>
       <use x="225.585938" xlink:href="#DejaVuSerif-105"/>
       <use x="257.568359" xlink:href="#DejaVuSerif-97"/>
       <use x="317.1875" xlink:href="#DejaVuSerif-110"/>
       <use x="381.591797" xlink:href="#DejaVuSerif-32"/>
       <use x="413.378906" xlink:href="#DejaVuSerif-100"/>
       <use x="477.392578" xlink:href="#DejaVuSerif-105"/>
       <use x="509.375" xlink:href="#DejaVuSerif-102"/>
       <use x="546.386719" xlink:href="#DejaVuSerif-102"/>
       <use x="583.398438" xlink:href="#DejaVuSerif-101"/>
       <use x="642.578125" xlink:href="#DejaVuSerif-114"/>
       <use x="690.380859" xlink:href="#DejaVuSerif-101"/>
       <use x="749.560547" xlink:href="#DejaVuSerif-110"/>
       <use x="813.964844" xlink:href="#DejaVuSerif-99"/>
       <use x="869.970703" xlink:href="#DejaVuSerif-101"/>
      </g>
     </g>
    </g>
    <g id="PolyCollection_2">
     <defs>
      <path d="M 278.251794 -37.553947 
L 278.177921 -37.553947 
L 278.177921 -38.456363 
L 278.177921 -39.35878 
L 278.177921 -40.261196 
L 278.177921 -41.163613 
L 278.177921 -42.066029 
L 278.177921 -42.968446 
L 278.177921 -43.870862 
L 278.177921 -44.773279 
L 278.177921 -45.675695 
L 278.177921 -46.578112 
L 278.177921 -47.480528 
L 278.177921 -48.382945 
L 278.177921 -49.285361 
L 278.177921 -50.187777 
L 278.177921 -51.090194 
L 278.177921 -51.99261 
L 278.177921 -52.895027 
L 278.177921 -53.797443 
L 278.177921 -54.69986 
L 278.177921 -55.602276 
L 278.177921 -56.504693 
L 278.177921 -57.407109 
L 278.177921 -58.309526 
L 278.177921 -59.211942 
L 278.177921 -60.114359 
L 278.177921 -61.016775 
L 278.177921 -61.919192 
L 278.177921 -62.821608 
L 278.177921 -63.724024 
L 278.177921 -64.626441 
L 278.177921 -65.528857 
L 278.177921 -66.431274 
L 278.177921 -67.33369 
L 278.177921 -68.236107 
L 278.177921 -69.138523 
L 278.177921 -70.04094 
L 278.177921 -70.943356 
L 278.177921 -71.845773 
L 278.177921 -72.748189 
L 278.177921 -73.650606 
L 278.177921 -74.553022 
L 278.177921 -75.455438 
L 278.177921 -76.357855 
L 278.177921 -77.260271 
L 278.177921 -78.162688 
L 278.177921 -79.065104 
L 278.177921 -79.967521 
L 278.177921 -80.869937 
L 278.177921 -81.772354 
L 278.177921 -82.67477 
L 278.177921 -83.577187 
L 278.177921 -84.479603 
L 278.177921 -85.38202 
L 278.177921 -86.284436 
L 278.177921 -87.186852 
L 278.177921 -88.089269 
L 278.177921 -88.991685 
L 278.177921 -89.894102 
L 278.177921 -90.796518 
L 278.177921 -91.698935 
L 278.177921 -92.601351 
L 278.177921 -93.503768 
L 278.177921 -94.406184 
L 278.177921 -95.308601 
L 278.177921 -96.211017 
L 278.177921 -97.113434 
L 278.177921 -98.01585 
L 278.177921 -98.918267 
L 278.177921 -99.820683 
L 278.177921 -100.723099 
L 278.177921 -101.625516 
L 278.177921 -102.527932 
L 278.177921 -103.430349 
L 278.177921 -104.332765 
L 278.177921 -105.235182 
L 278.177921 -106.137598 
L 278.177921 -107.040015 
L 278.177921 -107.942431 
L 278.177921 -108.844848 
L 278.177921 -109.747264 
L 278.177921 -110.649681 
L 278.177921 -111.552097 
L 278.177921 -112.454513 
L 278.177921 -113.35693 
L 278.177921 -114.259346 
L 278.177921 -115.161763 
L 278.177921 -116.064179 
L 278.177921 -116.966596 
L 278.177921 -117.869012 
L 278.177921 -118.771429 
L 278.177921 -119.673845 
L 278.177921 -120.576262 
L 278.177921 -121.478678 
L 278.177921 -122.381095 
L 278.177921 -123.283511 
L 278.177921 -124.185927 
L 278.177921 -125.088344 
L 278.177921 -125.99076 
L 278.177921 -126.893177 
L 278.185025 -126.893177 
L 278.185025 -126.893177 
L 278.186602 -125.99076 
L 278.189425 -125.088344 
L 278.194667 -124.185927 
L 278.203071 -123.283511 
L 278.21431 -122.381095 
L 278.226898 -121.478678 
L 278.238882 -120.576262 
L 278.248958 -119.673845 
L 278.257211 -118.771429 
L 278.264915 -117.869012 
L 278.273627 -116.966596 
L 278.284325 -116.064179 
L 278.297077 -115.161763 
L 278.311158 -114.259346 
L 278.325436 -113.35693 
L 278.339047 -112.454513 
L 278.352348 -111.552097 
L 278.367513 -110.649681 
L 278.387961 -109.747264 
L 278.416626 -108.844848 
L 278.454332 -107.942431 
L 278.499748 -107.040015 
L 278.551146 -106.137598 
L 278.608707 -105.235182 
L 278.675742 -104.332765 
L 278.758082 -103.430349 
L 278.861882 -102.527932 
L 278.99085 -101.625516 
L 279.144512 -100.723099 
L 279.319312 -99.820683 
L 279.512957 -98.918267 
L 279.729556 -98.01585 
L 279.981246 -97.113434 
L 280.283853 -96.211017 
L 280.648838 -95.308601 
L 281.07694 -94.406184 
L 281.557101 -93.503768 
L 282.069282 -92.601351 
L 282.586996 -91.698935 
L 283.077583 -90.796518 
L 283.502773 -89.894102 
L 283.823743 -88.991685 
L 284.011918 -88.089269 
L 284.061568 -87.186852 
L 283.996862 -86.284436 
L 283.867039 -85.38202 
L 283.729122 -84.479603 
L 283.625439 -83.577187 
L 283.567559 -82.67477 
L 283.535514 -81.772354 
L 283.492987 -80.869937 
L 283.410441 -79.967521 
L 283.283298 -79.065104 
L 283.134331 -78.162688 
L 282.998661 -77.260271 
L 282.901341 -76.357855 
L 282.842819 -75.455438 
L 282.802144 -74.553022 
L 282.755156 -73.650606 
L 282.693814 -72.748189 
L 282.631359 -71.845773 
L 282.588749 -70.943356 
L 282.5735 -70.04094 
L 282.56915 -69.138523 
L 282.544597 -68.236107 
L 282.475098 -67.33369 
L 282.357155 -66.431274 
L 282.20651 -65.528857 
L 282.044173 -64.626441 
L 281.884142 -63.724024 
L 281.731265 -62.821608 
L 281.586213 -61.919192 
L 281.449366 -61.016775 
L 281.31986 -60.114359 
L 281.192935 -59.211942 
L 281.060019 -58.309526 
L 280.912057 -57.407109 
L 280.743354 -56.504693 
L 280.553834 -55.602276 
L 280.349286 -54.69986 
L 280.139364 -53.797443 
L 279.933472 -52.895027 
L 279.736725 -51.99261 
L 279.549382 -51.090194 
L 279.370408 -50.187777 
L 279.201517 -49.285361 
L 279.047464 -48.382945 
L 278.912588 -47.480528 
L 278.797613 -46.578112 
L 278.699863 -45.675695 
L 278.615966 -44.773279 
L 278.543802 -43.870862 
L 278.482221 -42.968446 
L 278.429826 -42.066029 
L 278.384658 -41.163613 
L 278.344921 -40.261196 
L 278.309635 -39.35878 
L 278.27857 -38.456363 
L 278.251794 -37.553947 
z
" id="mfed8282603"/>
     </defs>
     <g clip-path="url(#pb9c64d80da)">
      <use style="fill:#601a4a;fill-opacity:0.8;" x="0" xlink:href="#mfed8282603" y="152.273534"/>
     </g>
    </g>
    <g id="LineCollection_11">
     <path clip-path="url(#pb9c64d80da)" d="M 254.639463 84.272394 
L 289.945988 84.272394 
" style="fill:none;stroke:#262626;stroke-width:0.75;"/>
    </g>
    <g id="LineCollection_12">
     <path clip-path="url(#pb9c64d80da)" d="M 264.054537 72.488468 
L 289.945988 72.488468 
" style="fill:none;stroke:#262626;stroke-width:0.75;"/>
    </g>
    <g id="line2d_21">
     <path clip-path="url(#pb9c64d80da)" d="M 278.177147 72.488468 
" style="fill:none;stroke:#262626;stroke-linecap:round;stroke-width:1.4;"/>
     <g clip-path="url(#pb9c64d80da)">
      <use style="fill:#262626;" x="278.177147" xlink:href="#m517b1c9516" y="72.488468"/>
     </g>
    </g>
    <g id="line2d_22">
     <path clip-path="url(#pb9c64d80da)" d="M 278.177147 100.155565 
L 278.177147 48.179523 
" style="fill:none;stroke:#262626;stroke-linecap:round;stroke-width:2;"/>
    </g>
    <g id="LineCollection_13">
     <defs>
      <path d="M 271.115842 -44.459 
L 289.945988 -44.459 
" id="m02f98a1ff4" style="stroke:#262626;"/>
     </defs>
     <g>
      <use style="fill:#262626;stroke:#262626;" x="0" xlink:href="#m02f98a1ff4" y="152.273534"/>
     </g>
    </g>
    <g id="LineCollection_14">
     <defs>
      <path d="M 289.945988 -44.459 
L 289.945988 -127.127131 
" id="mb98b5ad2a4" style="stroke:#262626;"/>
     </defs>
     <g>
      <use style="fill:#262626;stroke:#262626;" x="0" xlink:href="#mb98b5ad2a4" y="152.273534"/>
     </g>
    </g>
   </g>
   <g id="LineCollection_15">
    <defs>
     <path d="M 207.564096 -44.459 
L 260.523884 -44.459 
" id="mb5a92f0715" style="stroke:#262626;"/>
    </defs>
    <g>
     <use style="fill:#262626;stroke:#262626;" x="0" xlink:href="#mb5a92f0715" y="152.273534"/>
    </g>
   </g>
   <g id="LineCollection_16">
    <defs>
     <path d="M 207.564096 -44.459 
L 207.564096 -127.127131 
" id="me4e1e610d9" style="stroke:#262626;"/>
    </defs>
    <g>
     <use style="fill:#262626;stroke:#262626;" x="0" xlink:href="#me4e1e610d9" y="152.273534"/>
    </g>
   </g>
  </g>
  <g id="axes_5">
   <g id="matplotlib.axis_9">
    <g id="xtick_7">
     <g id="line2d_23">
      <g>
       <use style="fill:#262626;stroke:#262626;stroke-width:0.8;" x="387.038933" xlink:href="#mcb61a3cf6c" y="107.814534"/>
      </g>
     </g>
     <g id="text_23">
      <!-- Wt -->
      <g style="fill:#262626;" transform="translate(381.320183 125.493284)scale(0.08 -0.08)">
       <use xlink:href="#DejaVuSerif-87"/>
       <use x="102.783203" xlink:href="#DejaVuSerif-116"/>
      </g>
      <!-- N = 12 -->
      <g style="fill:#262626;" transform="translate(372.554558 134.451534)scale(0.08 -0.08)">
       <use xlink:href="#DejaVuSerif-78"/>
       <use x="87.5" xlink:href="#DejaVuSerif-32"/>
       <use x="119.287109" xlink:href="#DejaVuSerif-61"/>
       <use x="203.076172" xlink:href="#DejaVuSerif-32"/>
       <use x="234.863281" xlink:href="#DejaVuSerif-49"/>
       <use x="298.486328" xlink:href="#DejaVuSerif-50"/>
      </g>
     </g>
    </g>
    <g id="xtick_8">
     <g id="line2d_24">
      <g>
       <use style="fill:#262626;stroke:#262626;stroke-width:0.8;" x="416.461037" xlink:href="#mcb61a3cf6c" y="107.814534"/>
      </g>
     </g>
     <g id="text_24">
      <!-- Tg -->
      <g style="fill:#262626;" transform="translate(411.232287 125.379534)scale(0.08 -0.08)">
       <use xlink:href="#DejaVuSerif-84"/>
       <use x="66.699219" xlink:href="#DejaVuSerif-103"/>
      </g>
      <!-- N = 12 -->
      <g style="fill:#262626;" transform="translate(401.976662 134.451534)scale(0.08 -0.08)">
       <use xlink:href="#DejaVuSerif-78"/>
       <use x="87.5" xlink:href="#DejaVuSerif-32"/>
       <use x="119.287109" xlink:href="#DejaVuSerif-61"/>
       <use x="203.076172" xlink:href="#DejaVuSerif-32"/>
       <use x="234.863281" xlink:href="#DejaVuSerif-49"/>
       <use x="298.486328" xlink:href="#DejaVuSerif-50"/>
      </g>
     </g>
    </g>
   </g>
   <g id="matplotlib.axis_10">
    <g id="ytick_13">
     <g id="line2d_25">
      <g>
       <use style="fill:#262626;stroke:#262626;stroke-width:0.8;" x="372.32788" xlink:href="#m7311a879a7" y="98.279427"/>
      </g>
     </g>
     <g id="text_25">
      <!-- 0.4 -->
      <g style="fill:#262626;" transform="translate(348.00538 101.318802)scale(0.08 -0.08)">
       <defs>
        <path d="M 9.421875 5.078125 
Q 9.421875 7.8125 11.28125 9.71875 
Q 13.140625 11.625 15.921875 11.625 
Q 18.609375 11.625 20.5 9.71875 
Q 22.40625 7.8125 22.40625 5.078125 
Q 22.40625 2.390625 20.5 0.484375 
Q 18.609375 -1.421875 15.921875 -1.421875 
Q 13.140625 -1.421875 11.28125 0.453125 
Q 9.421875 2.34375 9.421875 5.078125 
z
" id="DejaVuSerif-46"/>
       </defs>
       <use xlink:href="#DejaVuSerif-48"/>
       <use x="63.623047" xlink:href="#DejaVuSerif-46"/>
       <use x="95.410156" xlink:href="#DejaVuSerif-52"/>
      </g>
     </g>
    </g>
    <g id="ytick_14">
     <g id="line2d_26">
      <g>
       <use style="fill:#262626;stroke:#262626;stroke-width:0.8;" x="372.32788" xlink:href="#m7311a879a7" y="67.043752"/>
      </g>
     </g>
     <g id="text_26">
      <!-- 0.6 -->
      <g style="fill:#262626;" transform="translate(348.00538 70.083127)scale(0.08 -0.08)">
       <use xlink:href="#DejaVuSerif-48"/>
       <use x="63.623047" xlink:href="#DejaVuSerif-46"/>
       <use x="95.410156" xlink:href="#DejaVuSerif-54"/>
      </g>
     </g>
    </g>
    <g id="ytick_15">
     <g id="line2d_27">
      <g>
       <use style="fill:#262626;stroke:#262626;stroke-width:0.8;" x="372.32788" xlink:href="#m7311a879a7" y="35.808077"/>
      </g>
     </g>
     <g id="text_27">
      <!-- 0.8 -->
      <g style="fill:#262626;" transform="translate(348.00538 38.847452)scale(0.08 -0.08)">
       <use xlink:href="#DejaVuSerif-48"/>
       <use x="63.623047" xlink:href="#DejaVuSerif-46"/>
       <use x="95.410156" xlink:href="#DejaVuSerif-56"/>
      </g>
     </g>
    </g>
    <g id="text_28">
     <!-- Circuity -->
     <g style="fill:#262626;" transform="translate(341.783505 86.749219)rotate(-90)scale(0.1 -0.1)">
      <defs>
       <path d="M 70.515625 19.28125 
Q 67.28125 9.078125 59.6875 3.828125 
Q 52.09375 -1.421875 40.484375 -1.421875 
Q 33.34375 -1.421875 27.234375 1.015625 
Q 21.140625 3.46875 16.40625 8.203125 
Q 10.9375 13.671875 8.265625 20.625 
Q 5.609375 27.59375 5.609375 36.375 
Q 5.609375 53.375 15.421875 63.796875 
Q 25.25 74.21875 41.3125 74.21875 
Q 47.265625 74.21875 54 72.65625 
Q 60.75 71.09375 68.5 67.921875 
L 68.5 51.125 
L 62.984375 51.125 
Q 61.1875 60.296875 55.734375 64.640625 
Q 50.296875 69 40.484375 69 
Q 28.8125 69 22.796875 60.71875 
Q 16.796875 52.4375 16.796875 36.375 
Q 16.796875 20.359375 22.796875 12.078125 
Q 28.8125 3.8125 40.484375 3.8125 
Q 48.640625 3.8125 53.90625 7.6875 
Q 59.1875 11.578125 61.53125 19.28125 
z
" id="DejaVuSerif-67"/>
       <path d="M 21.578125 -9.515625 
L 25 -0.875 
L 5.609375 46.6875 
L -0.296875 46.6875 
L -0.296875 51.90625 
L 23.578125 51.90625 
L 23.578125 46.6875 
L 15.28125 46.6875 
L 29.890625 10.984375 
L 44.484375 46.6875 
L 36.71875 46.6875 
L 36.71875 51.90625 
L 56.203125 51.90625 
L 56.203125 46.6875 
L 50.390625 46.6875 
L 26.609375 -11.71875 
Q 24.171875 -17.78125 21.1875 -20 
Q 18.21875 -22.21875 12.796875 -22.21875 
Q 10.5 -22.21875 8.078125 -21.828125 
Q 5.671875 -21.4375 3.21875 -20.703125 
L 3.21875 -10.796875 
L 7.8125 -10.796875 
Q 8.109375 -14.109375 9.5 -15.546875 
Q 10.890625 -17 13.8125 -17 
Q 16.5 -17 18.140625 -15.5 
Q 19.78125 -14.015625 21.578125 -9.515625 
z
" id="DejaVuSerif-121"/>
      </defs>
      <use xlink:href="#DejaVuSerif-67"/>
      <use x="76.513672" xlink:href="#DejaVuSerif-105"/>
      <use x="108.496094" xlink:href="#DejaVuSerif-114"/>
      <use x="156.298828" xlink:href="#DejaVuSerif-99"/>
      <use x="212.304688" xlink:href="#DejaVuSerif-117"/>
      <use x="276.708984" xlink:href="#DejaVuSerif-105"/>
      <use x="308.691406" xlink:href="#DejaVuSerif-116"/>
      <use x="348.876953" xlink:href="#DejaVuSerif-121"/>
     </g>
    </g>
   </g>
   <g id="PathCollection_5">
    <defs>
     <path d="M 0 1.5 
C 0.397805 1.5 0.77937 1.341951 1.06066 1.06066 
C 1.341951 0.77937 1.5 0.397805 1.5 -0 
C 1.5 -0.397805 1.341951 -0.77937 1.06066 -1.06066 
C 0.77937 -1.341951 0.397805 -1.5 0 -1.5 
C -0.397805 -1.5 -0.77937 -1.341951 -1.06066 -1.06066 
C -1.341951 -0.77937 -1.5 -0.397805 -1.5 0 
C -1.5 0.397805 -1.341951 0.77937 -1.06066 1.06066 
C -0.77937 1.341951 -0.397805 1.5 0 1.5 
z
" id="C4_0_ef20a10370"/>
    </defs>
    <g clip-path="url(#p7c912193c5)">
     <use style="fill:#a2a3af;" x="387.038933" xlink:href="#C4_0_ef20a10370" y="104.056892"/>
    </g>
    <g clip-path="url(#p7c912193c5)">
     <use style="fill:#a2a3af;" x="387.038933" xlink:href="#C4_0_ef20a10370" y="96.925946"/>
    </g>
    <g clip-path="url(#p7c912193c5)">
     <use style="fill:#a2a3af;" x="387.038933" xlink:href="#C4_0_ef20a10370" y="67.334306"/>
    </g>
    <g clip-path="url(#p7c912193c5)">
     <use style="fill:#a2a3af;" x="384.024725" xlink:href="#C4_0_ef20a10370" y="66.462968"/>
    </g>
    <g clip-path="url(#p7c912193c5)">
     <use style="fill:#a2a3af;" x="389.519822" xlink:href="#C4_0_ef20a10370" y="65.485684"/>
    </g>
    <g clip-path="url(#p7c912193c5)">
     <use style="fill:#a2a3af;" x="387.038933" xlink:href="#C4_0_ef20a10370" y="53.278337"/>
    </g>
    <g clip-path="url(#p7c912193c5)">
     <use style="fill:#a2a3af;" x="384.249859" xlink:href="#C4_0_ef20a10370" y="51.883963"/>
    </g>
    <g clip-path="url(#p7c912193c5)">
     <use style="fill:#a2a3af;" x="389.259566" xlink:href="#C4_0_ef20a10370" y="51.150604"/>
    </g>
    <g clip-path="url(#p7c912193c5)">
     <use style="fill:#a2a3af;" x="387.038933" xlink:href="#C4_0_ef20a10370" y="48.97773"/>
    </g>
    <g clip-path="url(#p7c912193c5)">
     <use style="fill:#a2a3af;" x="387.038933" xlink:href="#C4_0_ef20a10370" y="45.741816"/>
    </g>
    <g clip-path="url(#p7c912193c5)">
     <use style="fill:#a2a3af;" x="387.038933" xlink:href="#C4_0_ef20a10370" y="41.683369"/>
    </g>
    <g clip-path="url(#p7c912193c5)">
     <use style="fill:#a2a3af;" x="385.24434" xlink:href="#C4_0_ef20a10370" y="39.217835"/>
    </g>
   </g>
   <g id="PathCollection_6">
    <defs>
     <path d="M 0 1.5 
C 0.397805 1.5 0.77937 1.341951 1.06066 1.06066 
C 1.341951 0.77937 1.5 0.397805 1.5 -0 
C 1.5 -0.397805 1.341951 -0.77937 1.06066 -1.06066 
C 0.77937 -1.341951 0.397805 -1.5 0 -1.5 
C -0.397805 -1.5 -0.77937 -1.341951 -1.06066 -1.06066 
C -1.341951 -0.77937 -1.5 -0.397805 -1.5 0 
C -1.5 0.397805 -1.341951 0.77937 -1.06066 1.06066 
C -0.77937 1.341951 -0.397805 1.5 0 1.5 
z
" id="C5_0_dcf7e10be7"/>
    </defs>
    <g clip-path="url(#p7c912193c5)">
     <use style="fill:#4e2c43;" x="416.461037" xlink:href="#C5_0_dcf7e10be7" y="81.634557"/>
    </g>
    <g clip-path="url(#p7c912193c5)">
     <use style="fill:#4e2c43;" x="416.461037" xlink:href="#C5_0_dcf7e10be7" y="64.443999"/>
    </g>
    <g clip-path="url(#p7c912193c5)">
     <use style="fill:#4e2c43;" x="416.461037" xlink:href="#C5_0_dcf7e10be7" y="55.642563"/>
    </g>
    <g clip-path="url(#p7c912193c5)">
     <use style="fill:#4e2c43;" x="416.461037" xlink:href="#C5_0_dcf7e10be7" y="52.537839"/>
    </g>
    <g clip-path="url(#p7c912193c5)">
     <use style="fill:#4e2c43;" x="414.239091" xlink:href="#C5_0_dcf7e10be7" y="50.41135"/>
    </g>
    <g clip-path="url(#p7c912193c5)">
     <use style="fill:#4e2c43;" x="416.461037" xlink:href="#C5_0_dcf7e10be7" y="45.365109"/>
    </g>
    <g clip-path="url(#p7c912193c5)">
     <use style="fill:#4e2c43;" x="416.461037" xlink:href="#C5_0_dcf7e10be7" y="38.561921"/>
    </g>
    <g clip-path="url(#p7c912193c5)">
     <use style="fill:#4e2c43;" x="413.382955" xlink:href="#C5_0_dcf7e10be7" y="37.924527"/>
    </g>
    <g clip-path="url(#p7c912193c5)">
     <use style="fill:#4e2c43;" x="419.323125" xlink:href="#C5_0_dcf7e10be7" y="37.308916"/>
    </g>
    <g clip-path="url(#p7c912193c5)">
     <use style="fill:#4e2c43;" x="416.461037" xlink:href="#C5_0_dcf7e10be7" y="35.202987"/>
    </g>
    <g clip-path="url(#p7c912193c5)">
     <use style="fill:#4e2c43;" x="413.611443" xlink:href="#C5_0_dcf7e10be7" y="33.924413"/>
    </g>
    <g clip-path="url(#p7c912193c5)">
     <use style="fill:#4e2c43;" x="416.461037" xlink:href="#C5_0_dcf7e10be7" y="28.904045"/>
    </g>
   </g>
   <g id="LineCollection_17">
    <path clip-path="url(#p7c912193c5)" d="M 387.038933 52.58115 
L 431.172089 52.58115 
" style="fill:none;stroke:#262626;stroke-width:0.75;"/>
   </g>
   <g id="LineCollection_18">
    <path clip-path="url(#p7c912193c5)" d="M 416.461037 41.963515 
L 431.172089 41.963515 
" style="fill:none;stroke:#262626;stroke-width:0.75;"/>
   </g>
   <g id="axes_6">
    <g id="matplotlib.axis_11">
     <g id="xtick_9">
      <g id="line2d_28">
       <g>
        <use style="fill:#262626;stroke:#262626;stroke-width:0.8;" x="442.940931" xlink:href="#mcb61a3cf6c" y="107.814534"/>
       </g>
      </g>
      <g id="text_29">
       <!-- Tg -->
       <g style="fill:#262626;" transform="translate(437.712181 125.379534)scale(0.08 -0.08)">
        <use xlink:href="#DejaVuSerif-84"/>
        <use x="66.699219" xlink:href="#DejaVuSerif-103"/>
       </g>
       <!-- minus -->
       <g style="fill:#262626;" transform="translate(430.663431 134.451534)scale(0.08 -0.08)">
        <use xlink:href="#DejaVuSerif-109"/>
        <use x="94.824219" xlink:href="#DejaVuSerif-105"/>
        <use x="126.806641" xlink:href="#DejaVuSerif-110"/>
        <use x="191.210938" xlink:href="#DejaVuSerif-117"/>
        <use x="255.615234" xlink:href="#DejaVuSerif-115"/>
       </g>
       <!-- Wt -->
       <g style="fill:#262626;" transform="translate(437.222181 143.409784)scale(0.08 -0.08)">
        <use xlink:href="#DejaVuSerif-87"/>
        <use x="102.783203" xlink:href="#DejaVuSerif-116"/>
       </g>
      </g>
     </g>
    </g>
    <g id="matplotlib.axis_12">
     <g id="ytick_16">
      <g id="line2d_29">
       <g>
        <use style="fill:#262626;stroke:#262626;stroke-width:0.8;" x="454.709772" xlink:href="#m4f8fe23594" y="83.816825"/>
       </g>
      </g>
      <g id="text_30">
       <!-- −0.2 -->
       <g style="fill:#262626;" transform="translate(466.309772 86.8562)scale(0.08 -0.08)">
        <use xlink:href="#DejaVuSerif-8722"/>
        <use x="83.789062" xlink:href="#DejaVuSerif-48"/>
        <use x="147.412109" xlink:href="#DejaVuSerif-46"/>
        <use x="179.199219" xlink:href="#DejaVuSerif-50"/>
       </g>
      </g>
     </g>
     <g id="ytick_17">
      <g id="line2d_30">
       <g>
        <use style="fill:#262626;stroke:#262626;stroke-width:0.8;" x="454.709772" xlink:href="#m4f8fe23594" y="52.58115"/>
       </g>
      </g>
      <g id="text_31">
       <!-- 0.0 -->
       <g style="fill:#262626;" transform="translate(466.309772 55.620525)scale(0.08 -0.08)">
        <use xlink:href="#DejaVuSerif-48"/>
        <use x="63.623047" xlink:href="#DejaVuSerif-46"/>
        <use x="95.410156" xlink:href="#DejaVuSerif-48"/>
       </g>
      </g>
     </g>
     <g id="text_32">
      <!-- Median difference -->
      <g style="fill:#262626;" transform="translate(497.33446 112.939844)rotate(-90)scale(0.1 -0.1)">
       <use xlink:href="#DejaVuSerif-77"/>
       <use x="102.392578" xlink:href="#DejaVuSerif-101"/>
       <use x="161.572266" xlink:href="#DejaVuSerif-100"/>
       <use x="225.585938" xlink:href="#DejaVuSerif-105"/>
       <use x="257.568359" xlink:href="#DejaVuSerif-97"/>
       <use x="317.1875" xlink:href="#DejaVuSerif-110"/>
       <use x="381.591797" xlink:href="#DejaVuSerif-32"/>
       <use x="413.378906" xlink:href="#DejaVuSerif-100"/>
       <use x="477.392578" xlink:href="#DejaVuSerif-105"/>
       <use x="509.375" xlink:href="#DejaVuSerif-102"/>
       <use x="546.386719" xlink:href="#DejaVuSerif-102"/>
       <use x="583.398438" xlink:href="#DejaVuSerif-101"/>
       <use x="642.578125" xlink:href="#DejaVuSerif-114"/>
       <use x="690.380859" xlink:href="#DejaVuSerif-101"/>
       <use x="749.560547" xlink:href="#DejaVuSerif-110"/>
       <use x="813.964844" xlink:href="#DejaVuSerif-99"/>
       <use x="869.970703" xlink:href="#DejaVuSerif-101"/>
      </g>
     </g>
    </g>
    <g id="PolyCollection_3">
     <defs>
      <path d="M 442.947836 -82.608159 
L 442.94105 -82.608159 
L 442.94105 -83.373481 
L 442.94105 -84.138804 
L 442.94105 -84.904127 
L 442.94105 -85.66945 
L 442.94105 -86.434772 
L 442.94105 -87.200095 
L 442.94105 -87.965418 
L 442.94105 -88.73074 
L 442.94105 -89.496063 
L 442.94105 -90.261386 
L 442.94105 -91.026709 
L 442.94105 -91.792031 
L 442.94105 -92.557354 
L 442.94105 -93.322677 
L 442.94105 -94.087999 
L 442.94105 -94.853322 
L 442.94105 -95.618645 
L 442.94105 -96.383967 
L 442.94105 -97.14929 
L 442.94105 -97.914613 
L 442.94105 -98.679936 
L 442.94105 -99.445258 
L 442.94105 -100.210581 
L 442.94105 -100.975904 
L 442.94105 -101.741226 
L 442.94105 -102.506549 
L 442.94105 -103.271872 
L 442.94105 -104.037195 
L 442.94105 -104.802517 
L 442.94105 -105.56784 
L 442.94105 -106.333163 
L 442.94105 -107.098485 
L 442.94105 -107.863808 
L 442.94105 -108.629131 
L 442.94105 -109.394453 
L 442.94105 -110.159776 
L 442.94105 -110.925099 
L 442.94105 -111.690422 
L 442.94105 -112.455744 
L 442.94105 -113.221067 
L 442.94105 -113.98639 
L 442.94105 -114.751712 
L 442.94105 -115.517035 
L 442.94105 -116.282358 
L 442.94105 -117.047681 
L 442.94105 -117.813003 
L 442.94105 -118.578326 
L 442.94105 -119.343649 
L 442.94105 -120.108971 
L 442.94105 -120.874294 
L 442.94105 -121.639617 
L 442.94105 -122.404939 
L 442.94105 -123.170262 
L 442.94105 -123.935585 
L 442.94105 -124.700908 
L 442.94105 -125.46623 
L 442.94105 -126.231553 
L 442.94105 -126.996876 
L 442.94105 -127.762198 
L 442.94105 -128.527521 
L 442.94105 -129.292844 
L 442.94105 -130.058167 
L 442.94105 -130.823489 
L 442.94105 -131.588812 
L 442.94105 -132.354135 
L 442.94105 -133.119457 
L 442.94105 -133.88478 
L 442.94105 -134.650103 
L 442.94105 -135.415425 
L 442.94105 -136.180748 
L 442.94105 -136.946071 
L 442.94105 -137.711394 
L 442.94105 -138.476716 
L 442.94105 -139.242039 
L 442.94105 -140.007362 
L 442.94105 -140.772684 
L 442.94105 -141.538007 
L 442.94105 -142.30333 
L 442.94105 -143.068653 
L 442.94105 -143.833975 
L 442.94105 -144.599298 
L 442.94105 -145.364621 
L 442.94105 -146.129943 
L 442.94105 -146.895266 
L 442.94105 -147.660589 
L 442.94105 -148.425911 
L 442.94105 -149.191234 
L 442.94105 -149.956557 
L 442.94105 -150.72188 
L 442.94105 -151.487202 
L 442.94105 -152.252525 
L 442.94105 -153.017848 
L 442.94105 -153.78317 
L 442.94105 -154.548493 
L 442.94105 -155.313816 
L 442.94105 -156.079139 
L 442.94105 -156.844461 
L 442.94105 -157.609784 
L 442.94105 -158.375107 
L 442.951304 -158.375107 
L 442.951304 -158.375107 
L 442.95077 -157.609784 
L 442.949245 -156.844461 
L 442.948168 -156.079139 
L 442.948353 -155.313816 
L 442.949886 -154.548493 
L 442.952744 -153.78317 
L 442.956723 -153.017848 
L 442.960706 -152.252525 
L 442.962946 -151.487202 
L 442.962711 -150.72188 
L 442.961145 -149.956557 
L 442.959872 -149.191234 
L 442.959254 -148.425911 
L 442.958757 -147.660589 
L 442.958732 -146.895266 
L 442.960847 -146.129943 
L 442.966261 -145.364621 
L 442.973485 -144.599298 
L 442.978578 -143.833975 
L 442.978232 -143.068653 
L 442.972945 -142.30333 
L 442.966604 -141.538007 
L 442.962828 -140.772684 
L 442.962498 -140.007362 
L 442.964924 -139.242039 
L 442.969787 -138.476716 
L 442.9765 -137.711394 
L 442.982474 -136.946071 
L 442.984222 -136.180748 
L 442.981015 -135.415425 
L 442.976905 -134.650103 
L 442.98013 -133.88478 
L 443.003444 -133.119457 
L 443.066944 -132.354135 
L 443.198859 -131.588812 
L 443.426194 -130.823489 
L 443.750212 -130.058167 
L 444.116968 -129.292844 
L 444.415826 -128.527521 
L 444.535912 -127.762198 
L 444.454522 -126.996876 
L 444.272487 -126.231553 
L 444.145852 -125.46623 
L 444.177666 -124.700908 
L 444.377159 -123.935585 
L 444.696097 -123.170262 
L 445.057924 -122.404939 
L 445.350394 -121.639617 
L 445.45636 -120.874294 
L 445.352181 -120.108971 
L 445.164142 -119.343649 
L 445.088815 -118.578326 
L 445.261606 -117.813003 
L 445.719006 -117.047681 
L 446.440905 -116.282358 
L 447.343169 -115.517035 
L 448.217388 -114.751712 
L 448.772216 -113.98639 
L 448.825351 -113.221067 
L 448.453929 -112.455744 
L 447.916931 -111.690422 
L 447.439983 -110.925099 
L 447.101073 -110.159776 
L 446.882421 -109.394453 
L 446.751958 -108.629131 
L 446.675716 -107.863808 
L 446.604787 -107.098485 
L 446.496005 -106.333163 
L 446.341428 -105.56784 
L 446.161095 -104.802517 
L 445.974423 -104.037195 
L 445.792773 -103.271872 
L 445.630984 -102.506549 
L 445.502844 -101.741226 
L 445.397395 -100.975904 
L 445.272829 -100.210581 
L 445.085475 -99.445258 
L 444.823964 -98.679936 
L 444.514513 -97.914613 
L 444.199576 -97.14929 
L 443.91419 -96.383967 
L 443.676048 -95.618645 
L 443.48876 -94.853322 
L 443.348721 -94.087999 
L 443.248241 -93.322677 
L 443.176017 -92.557354 
L 443.119829 -91.792031 
L 443.071722 -91.026709 
L 443.030731 -90.261386 
L 442.999986 -89.496063 
L 442.981281 -88.73074 
L 442.972452 -87.965418 
L 442.968824 -87.200095 
L 442.966081 -86.434772 
L 442.96214 -85.66945 
L 442.957297 -84.904127 
L 442.952936 -84.138804 
L 442.949888 -83.373481 
L 442.947836 -82.608159 
z
" id="m2475fbed3d"/>
     </defs>
     <g clip-path="url(#pff7227a019)">
      <use style="fill:#601a4a;fill-opacity:0.8;" x="0" xlink:href="#m2475fbed3d" y="152.273534"/>
     </g>
    </g>
    <g id="LineCollection_19">
     <path clip-path="url(#pff7227a019)" d="M 419.403247 52.58115 
L 454.709772 52.58115 
" style="fill:none;stroke:#262626;stroke-width:0.75;"/>
    </g>
    <g id="LineCollection_20">
     <path clip-path="url(#pff7227a019)" d="M 428.818321 41.963515 
L 454.709772 41.963515 
" style="fill:none;stroke:#262626;stroke-width:0.75;"/>
    </g>
    <g id="line2d_31">
     <path clip-path="url(#pff7227a019)" d="M 442.940931 41.963515 
" style="fill:none;stroke:#262626;stroke-linecap:round;stroke-width:1.4;"/>
     <g clip-path="url(#pff7227a019)">
      <use style="fill:#262626;" x="442.940931" xlink:href="#m517b1c9516" y="41.963515"/>
     </g>
    </g>
    <g id="line2d_32">
     <path clip-path="url(#pff7227a019)" d="M 442.940931 58.248333 
L 442.940931 25.168745 
" style="fill:none;stroke:#262626;stroke-linecap:round;stroke-width:2;"/>
    </g>
    <g id="LineCollection_21">
     <defs>
      <path d="M 435.879626 -44.459 
L 454.709772 -44.459 
" id="m852a56ace4" style="stroke:#262626;"/>
     </defs>
     <g>
      <use style="fill:#262626;stroke:#262626;" x="0" xlink:href="#m852a56ace4" y="152.273534"/>
     </g>
    </g>
    <g id="LineCollection_22">
     <defs>
      <path d="M 454.709772 -44.459 
L 454.709772 -127.127131 
" id="ma2ceea17e3" style="stroke:#262626;"/>
     </defs>
     <g>
      <use style="fill:#262626;stroke:#262626;" x="0" xlink:href="#ma2ceea17e3" y="152.273534"/>
     </g>
    </g>
   </g>
   <g id="LineCollection_23">
    <defs>
     <path d="M 372.32788 -44.459 
L 425.287668 -44.459 
" id="m96897311a1" style="stroke:#262626;"/>
    </defs>
    <g>
     <use style="fill:#262626;stroke:#262626;" x="0" xlink:href="#m96897311a1" y="152.273534"/>
    </g>
   </g>
   <g id="LineCollection_24">
    <defs>
     <path d="M 372.32788 -44.459 
L 372.32788 -127.127131 
" id="m68438fcaff" style="stroke:#262626;"/>
    </defs>
    <g>
     <use style="fill:#262626;stroke:#262626;" x="0" xlink:href="#m68438fcaff" y="152.273534"/>
    </g>
   </g>
  </g>
 </g>
 <defs>
  <clipPath id="pbff9818f86">
   <rect height="82.668131" width="58.844209" x="42.800313" y="25.146403"/>
  </clipPath>
  <clipPath id="p140ad7245e">
   <rect height="82.668131" width="23.537683" x="101.644521" y="25.146403"/>
  </clipPath>
  <clipPath id="p86e60179fd">
   <rect height="82.668131" width="58.844209" x="207.564096" y="25.146403"/>
  </clipPath>
  <clipPath id="pb9c64d80da">
   <rect height="82.668131" width="23.537683" x="266.408305" y="25.146403"/>
  </clipPath>
  <clipPath id="p7c912193c5">
   <rect height="82.668131" width="58.844209" x="372.32788" y="25.146403"/>
  </clipPath>
  <clipPath id="pff7227a019">
   <rect height="82.668131" width="23.537683" x="431.172089" y="25.146403"/>
  </clipPath>
 </defs>
</svg>
